{"glyphs":{"0":{"ha":872,"x_min":60,"x_max":813,"o":"m 436 -14 q 715 121 618 -14 q 813 485 813 256 q 715 849 813 714 q 436 983 618 983 q 156 849 253 983 q 60 485 60 714 q 156 121 60 256 q 436 -14 253 -14 m 436 103 q 251 204 315 103 q 186 485 186 306 q 251 764 186 663 q 436 865 315 865 q 622 764 557 865 q 686 485 686 663 q 622 204 686 306 q 436 103 557 103 "},"1":{"ha":872,"x_min":178,"x_max":735,"o":"m 246 0 l 675 0 q 717 17 700 0 q 735 58 735 33 q 717 101 735 83 q 675 118 700 118 l 538 118 l 538 903 q 518 950 538 931 q 471 969 499 969 l 442 969 q 403 960 422 969 l 214 861 q 178 804 178 843 q 194 761 178 778 q 238 744 211 744 q 269 753 250 744 l 411 822 l 411 118 l 246 118 q 204 101 221 118 q 188 58 188 83 q 204 17 188 33 q 246 0 221 0 "},"2":{"ha":872,"x_min":90,"x_max":768,"o":"m 164 0 l 700 0 q 742 17 725 0 q 760 58 760 33 q 742 101 760 83 q 700 118 725 118 l 217 118 q 285 199 236 160 q 432 304 335 239 q 606 426 539 374 q 720 549 672 479 q 768 701 768 619 q 726 849 768 785 q 610 948 683 913 q 449 983 538 983 q 140 913 282 983 q 110 861 110 896 q 125 822 110 838 q 163 807 140 807 q 189 814 175 807 q 426 864 301 864 q 594 817 542 864 q 646 692 646 771 q 613 597 646 642 q 529 515 579 553 q 394 424 479 478 q 235 313 296 360 q 133 206 175 267 q 90 72 90 144 q 111 20 90 40 q 164 0 132 0 "},"3":{"ha":872,"x_min":82,"x_max":768,"o":"m 408 -14 q 667 56 567 -14 q 768 254 768 126 q 706 426 768 368 q 565 501 644 483 q 685 583 638 528 q 733 733 733 638 q 646 918 733 853 q 399 983 558 983 q 124 913 257 983 q 96 865 96 897 q 111 828 96 843 q 147 814 126 814 q 172 819 158 814 q 388 865 271 865 q 551 826 496 865 q 607 721 607 788 q 533 595 607 638 q 321 553 460 553 l 313 553 q 272 535 289 553 q 254 494 254 518 q 272 453 254 471 q 313 436 289 436 l 335 436 q 642 261 642 436 q 567 142 642 178 q 385 107 493 107 q 164 147 264 107 q 138 153 150 153 q 98 135 114 153 q 82 94 82 118 q 92 62 82 75 q 118 42 101 49 q 408 -14 254 -14 "},"4":{"ha":872,"x_min":35,"x_max":828,"o":"m 601 -7 q 647 11 628 -7 q 665 56 665 29 l 665 244 l 771 244 q 811 260 794 244 q 828 300 828 276 q 811 340 828 324 q 771 357 794 357 l 665 357 l 665 896 q 643 953 665 931 q 585 976 621 976 l 557 976 q 517 967 536 976 q 488 943 499 958 l 51 386 q 35 336 35 365 l 35 324 q 58 267 35 290 q 115 244 82 244 l 539 244 l 539 56 q 557 11 539 29 q 601 -7 575 -7 m 169 357 l 539 833 l 539 357 l 169 357 "},"5":{"ha":872,"x_min":89,"x_max":793,"o":"m 413 -14 q 697 73 601 -14 q 793 300 793 160 q 756 463 793 392 q 645 574 718 533 q 469 614 572 614 q 235 557 340 614 l 279 851 l 682 851 q 724 868 707 851 q 742 910 742 885 q 724 952 742 935 q 682 969 707 969 l 236 969 q 187 951 207 969 q 163 900 167 932 l 100 531 q 97 497 97 514 q 124 439 97 461 q 189 417 150 417 q 222 424 208 417 q 238 433 235 432 q 451 493 336 493 q 609 443 551 493 q 667 307 667 393 q 597 156 667 200 q 396 111 528 111 q 174 169 283 111 q 144 176 160 176 q 104 159 119 176 q 89 117 89 142 q 96 87 89 97 q 117 67 103 76 q 413 -14 243 -14 "},"6":{"ha":872,"x_min":82,"x_max":806,"o":"m 463 -14 q 644 28 567 -14 q 764 142 722 69 q 806 301 806 214 q 765 474 806 400 q 653 588 725 547 q 488 628 582 628 q 314 593 383 628 q 203 506 244 558 q 274 751 210 642 q 494 861 338 861 q 679 821 593 861 q 703 817 690 817 q 744 834 728 817 q 760 874 760 851 q 751 903 760 889 q 731 924 743 917 q 621 967 679 950 q 485 983 563 983 q 251 908 342 983 q 122 718 161 832 q 82 483 82 604 q 463 -14 82 -14 m 464 104 q 210 360 247 104 q 472 513 292 513 q 626 456 574 513 q 679 304 679 399 q 653 204 679 250 q 577 131 626 158 q 464 104 528 104 "},"7":{"ha":872,"x_min":83,"x_max":788,"o":"m 319 -7 q 354 3 338 -7 q 379 28 371 13 l 774 835 q 788 896 788 865 q 765 949 788 928 q 710 969 743 969 l 143 969 q 101 951 118 969 q 83 908 83 933 q 101 866 83 883 q 143 849 118 849 l 647 849 l 265 89 q 257 56 257 72 q 275 11 257 29 q 319 -7 293 -7 "},"8":{"ha":872,"x_min":65,"x_max":807,"o":"m 436 -14 q 649 26 567 -14 q 769 128 732 67 q 807 257 807 189 q 600 519 807 450 q 716 597 671 543 q 761 731 761 650 q 728 849 761 790 q 623 945 696 907 q 436 983 550 983 q 249 945 322 983 q 144 849 176 907 q 111 731 111 790 q 156 597 111 650 q 272 519 201 543 q 65 257 65 450 q 103 128 65 189 q 223 26 140 67 q 436 -14 306 -14 m 436 572 q 285 618 333 572 q 238 722 238 664 q 288 830 238 788 q 436 872 339 872 q 584 830 533 872 q 635 722 635 788 q 587 618 635 664 q 436 572 539 572 m 436 97 q 295 126 350 97 q 216 194 240 154 q 192 271 192 235 q 263 409 192 360 q 436 458 333 458 q 610 409 539 458 q 681 271 681 360 q 656 194 681 235 q 577 126 632 154 q 436 97 522 97 "},"9":{"ha":872,"x_min":67,"x_max":790,"o":"m 388 -14 q 621 62 531 -14 q 751 251 711 138 q 790 486 790 365 q 410 983 790 983 q 228 942 306 983 q 108 828 150 900 q 67 668 67 756 q 107 496 67 569 q 219 382 147 422 q 385 342 290 342 q 558 376 489 342 q 669 464 628 411 q 599 218 663 328 q 378 108 535 108 q 193 149 279 108 q 169 153 182 153 q 128 135 144 153 q 113 96 113 118 q 121 67 113 81 q 142 46 129 53 q 251 3 193 19 q 388 -14 310 -14 m 400 457 q 246 514 299 457 q 193 665 193 571 q 219 765 193 719 q 295 838 246 811 q 408 865 344 865 q 663 610 625 865 q 400 457 581 457 "},"\u0000":{"ha":0,"x_min":0,"x_max":0,"o":""},"\r":{"ha":361,"x_min":0,"x_max":0,"o":""}," ":{"ha":361,"x_min":0,"x_max":0,"o":""},"A":{"ha":1036,"x_min":69,"x_max":967,"o":"m 132 -7 q 167 3 151 -7 q 192 32 183 14 l 282 249 l 754 249 l 844 32 q 869 3 853 14 q 904 -7 885 -7 q 949 11 932 -7 q 967 56 967 29 q 960 83 967 67 l 606 919 q 574 960 594 944 q 525 976 554 976 l 511 976 q 462 960 482 976 q 431 919 442 944 l 76 83 q 69 56 69 67 q 87 11 69 29 q 132 -7 104 -7 m 331 364 l 518 815 l 706 364 l 331 364 "},"Á":{"ha":1036,"x_min":69,"x_max":967,"o":"m 132 -7 q 167 3 151 -7 q 192 32 183 14 l 282 249 l 754 249 l 844 32 q 869 3 853 14 q 904 -7 885 -7 q 949 11 932 -7 q 967 56 967 29 q 960 83 967 67 l 606 919 q 574 960 594 944 q 525 976 554 976 l 511 976 q 462 960 482 976 q 431 919 442 944 l 76 83 q 69 56 69 67 q 87 11 69 29 q 132 -7 104 -7 m 331 364 l 518 815 l 706 364 l 331 364 m 518 1026 q 549 1042 536 1026 l 644 1156 q 658 1190 658 1171 q 644 1228 658 1214 q 607 1242 629 1242 q 561 1215 575 1242 l 490 1090 q 481 1064 481 1076 q 491 1037 481 1047 q 518 1026 501 1026 "},"Ă":{"ha":1036,"x_min":69,"x_max":967,"o":"m 132 -7 q 167 3 151 -7 q 192 32 183 14 l 282 249 l 754 249 l 844 32 q 869 3 853 14 q 904 -7 885 -7 q 949 11 932 -7 q 967 56 967 29 q 960 83 967 67 l 606 919 q 574 960 594 944 q 525 976 554 976 l 511 976 q 462 960 482 976 q 431 919 442 944 l 76 83 q 69 56 69 67 q 87 11 69 29 q 132 -7 104 -7 m 331 364 l 518 815 l 706 364 l 331 364 m 518 1039 q 635 1069 583 1039 q 713 1151 686 1100 q 717 1171 717 1160 q 705 1201 717 1189 q 674 1214 693 1214 q 635 1188 647 1214 q 589 1138 619 1156 q 518 1119 558 1119 q 447 1138 478 1119 q 401 1188 417 1156 q 363 1214 389 1214 q 331 1201 343 1214 q 319 1171 319 1189 q 324 1151 319 1160 q 401 1069 350 1100 q 518 1039 453 1039 "},"Ắ":{"ha":1036,"x_min":69,"x_max":967,"o":"m 132 -7 q 167 3 151 -7 q 192 32 183 14 l 282 249 l 754 249 l 844 32 q 869 3 853 14 q 904 -7 885 -7 q 949 11 932 -7 q 967 56 967 29 q 960 83 967 67 l 606 919 q 574 960 594 944 q 525 976 554 976 l 511 976 q 462 960 482 976 q 431 919 442 944 l 76 83 q 69 56 69 67 q 87 11 69 29 q 132 -7 104 -7 m 331 364 l 518 815 l 706 364 l 331 364 m 515 1161 q 546 1175 532 1161 l 617 1251 q 635 1290 635 1269 q 621 1322 635 1310 q 588 1335 607 1335 q 543 1301 563 1335 l 493 1217 q 486 1189 486 1203 q 494 1169 486 1178 q 515 1161 503 1161 m 518 1039 q 637 1066 585 1039 q 713 1139 689 1093 q 717 1157 717 1147 q 706 1183 717 1172 q 678 1194 694 1194 q 644 1171 658 1194 q 518 1108 608 1108 q 442 1126 475 1108 q 392 1171 408 1143 q 358 1194 378 1194 q 331 1183 342 1194 q 319 1157 319 1172 q 324 1139 319 1147 q 399 1066 347 1093 q 518 1039 451 1039 "},"Ặ":{"ha":1036,"x_min":69,"x_max":967,"o":"m 132 -7 q 167 3 151 -7 q 192 32 183 14 l 282 249 l 754 249 l 844 32 q 869 3 853 14 q 904 -7 885 -7 q 949 11 932 -7 q 967 56 967 29 q 960 83 967 67 l 606 919 q 574 960 594 944 q 525 976 554 976 l 511 976 q 462 960 482 976 q 431 919 442 944 l 76 83 q 69 56 69 67 q 87 11 69 29 q 132 -7 104 -7 m 331 364 l 518 815 l 706 364 l 331 364 m 518 -231 q 568 -210 547 -231 q 589 -160 589 -189 q 568 -110 589 -131 q 518 -89 547 -89 q 468 -110 489 -89 q 447 -160 447 -131 q 468 -210 447 -189 q 518 -231 489 -231 m 518 1039 q 635 1069 583 1039 q 713 1151 686 1100 q 717 1171 717 1160 q 705 1201 717 1189 q 674 1214 693 1214 q 635 1188 647 1214 q 589 1138 619 1156 q 518 1119 558 1119 q 447 1138 478 1119 q 401 1188 417 1156 q 363 1214 389 1214 q 331 1201 343 1214 q 319 1171 319 1189 q 324 1151 319 1160 q 401 1069 350 1100 q 518 1039 453 1039 "},"Ằ":{"ha":1036,"x_min":69,"x_max":967,"o":"m 132 -7 q 167 3 151 -7 q 192 32 183 14 l 282 249 l 754 249 l 844 32 q 869 3 853 14 q 904 -7 885 -7 q 949 11 932 -7 q 967 56 967 29 q 960 83 967 67 l 606 919 q 574 960 594 944 q 525 976 554 976 l 511 976 q 462 960 482 976 q 431 919 442 944 l 76 83 q 69 56 69 67 q 87 11 69 29 q 132 -7 104 -7 m 331 364 l 518 815 l 706 364 l 331 364 m 521 1161 q 542 1169 533 1161 q 550 1189 550 1178 q 543 1217 550 1203 l 493 1301 q 449 1335 474 1335 q 415 1322 429 1335 q 401 1290 401 1310 q 419 1251 401 1269 l 490 1175 q 521 1161 504 1161 m 518 1039 q 637 1066 585 1039 q 713 1139 689 1093 q 717 1157 717 1147 q 706 1183 717 1172 q 678 1194 694 1194 q 644 1171 658 1194 q 518 1108 608 1108 q 442 1126 475 1108 q 392 1171 408 1143 q 358 1194 378 1194 q 331 1183 342 1194 q 319 1157 319 1172 q 324 1139 319 1147 q 399 1066 347 1093 q 518 1039 451 1039 "},"Ẳ":{"ha":1036,"x_min":69,"x_max":967,"o":"m 132 -7 q 167 3 151 -7 q 192 32 183 14 l 282 249 l 754 249 l 844 32 q 869 3 853 14 q 904 -7 885 -7 q 949 11 932 -7 q 967 56 967 29 q 960 83 967 67 l 606 919 q 574 960 594 944 q 525 976 554 976 l 511 976 q 462 960 482 976 q 431 919 442 944 l 76 83 q 69 56 69 67 q 87 11 69 29 q 132 -7 104 -7 m 331 364 l 518 815 l 706 364 l 331 364 m 508 1161 q 543 1182 535 1161 q 559 1206 549 1196 q 586 1228 569 1217 q 627 1267 614 1249 q 640 1315 640 1285 q 610 1383 640 1360 q 525 1406 581 1406 q 469 1399 497 1406 q 418 1378 440 1392 q 403 1349 403 1368 q 411 1328 403 1338 q 432 1319 419 1319 q 464 1330 438 1319 q 525 1340 490 1340 q 568 1314 568 1340 q 560 1294 568 1303 q 531 1269 551 1286 q 491 1235 506 1251 q 476 1194 476 1218 q 486 1169 476 1178 q 508 1161 496 1161 m 518 1039 q 637 1066 585 1039 q 713 1139 689 1093 q 717 1157 717 1147 q 706 1183 717 1172 q 678 1194 694 1194 q 644 1171 658 1194 q 518 1108 608 1108 q 442 1126 475 1108 q 392 1171 408 1143 q 358 1194 378 1194 q 331 1183 342 1194 q 319 1157 319 1172 q 324 1139 319 1147 q 399 1066 347 1093 q 518 1039 451 1039 "},"Ẵ":{"ha":1036,"x_min":69,"x_max":967,"o":"m 132 -7 q 167 3 151 -7 q 192 32 183 14 l 282 249 l 754 249 l 844 32 q 869 3 853 14 q 904 -7 885 -7 q 949 11 932 -7 q 967 56 967 29 q 960 83 967 67 l 606 919 q 574 960 594 944 q 525 976 554 976 l 511 976 q 462 960 482 976 q 431 919 442 944 l 76 83 q 69 56 69 67 q 87 11 69 29 q 132 -7 104 -7 m 331 364 l 518 815 l 706 364 l 331 364 m 351 1218 q 367 1223 360 1218 q 376 1235 375 1228 q 395 1256 382 1249 q 433 1263 408 1263 q 473 1256 451 1263 q 514 1243 494 1250 q 563 1227 544 1232 q 604 1222 582 1222 q 681 1253 649 1222 q 713 1322 713 1285 q 686 1344 710 1344 q 670 1340 675 1344 q 661 1329 665 1336 q 638 1309 651 1315 q 604 1303 625 1303 q 551 1311 576 1303 q 521 1321 525 1319 q 474 1335 493 1331 q 432 1340 454 1340 q 353 1309 382 1340 q 325 1240 325 1278 q 333 1224 325 1231 q 351 1218 340 1218 m 518 1039 q 637 1066 585 1039 q 713 1139 689 1093 q 717 1157 717 1147 q 706 1183 717 1172 q 678 1194 694 1194 q 644 1171 658 1194 q 518 1108 608 1108 q 442 1126 475 1108 q 392 1171 408 1143 q 358 1194 378 1194 q 331 1183 342 1194 q 319 1157 319 1172 q 324 1139 319 1147 q 399 1066 347 1093 q 518 1039 451 1039 "},"Â":{"ha":1036,"x_min":69,"x_max":967,"o":"m 132 -7 q 167 3 151 -7 q 192 32 183 14 l 282 249 l 754 249 l 844 32 q 869 3 853 14 q 904 -7 885 -7 q 949 11 932 -7 q 967 56 967 29 q 960 83 967 67 l 606 919 q 574 960 594 944 q 525 976 554 976 l 511 976 q 462 960 482 976 q 431 919 442 944 l 76 83 q 69 56 69 67 q 87 11 69 29 q 132 -7 104 -7 m 331 364 l 518 815 l 706 364 l 331 364 m 372 1025 q 397 1035 388 1025 l 518 1138 l 639 1035 q 664 1025 649 1025 q 694 1038 682 1025 q 706 1067 707 1051 q 694 1093 706 1082 l 600 1190 q 575 1211 588 1204 q 544 1218 563 1218 l 492 1218 q 461 1211 474 1218 q 436 1190 449 1204 l 342 1093 q 331 1067 331 1082 q 342 1038 329 1051 q 372 1025 354 1025 "},"Ấ":{"ha":1036,"x_min":69,"x_max":967,"o":"m 132 -7 q 167 3 151 -7 q 192 32 183 14 l 282 249 l 754 249 l 844 32 q 869 3 853 14 q 904 -7 885 -7 q 949 11 932 -7 q 967 56 967 29 q 960 83 967 67 l 606 919 q 574 960 594 944 q 525 976 554 976 l 511 976 q 462 960 482 976 q 431 919 442 944 l 76 83 q 69 56 69 67 q 87 11 69 29 q 132 -7 104 -7 m 331 364 l 518 815 l 706 364 l 331 364 m 663 1161 q 693 1175 679 1161 l 764 1251 q 782 1290 782 1269 q 768 1322 782 1310 q 735 1335 754 1335 q 690 1301 710 1335 l 640 1217 q 633 1189 633 1203 q 642 1169 633 1178 q 663 1161 650 1161 m 372 1025 q 397 1033 386 1025 l 518 1129 l 639 1033 q 664 1025 650 1025 q 694 1037 681 1025 q 706 1063 707 1049 q 694 1088 706 1076 l 600 1168 q 574 1187 585 1181 q 544 1193 563 1193 l 492 1193 q 463 1187 474 1193 q 436 1168 451 1181 l 342 1088 q 331 1063 331 1076 q 342 1037 329 1049 q 372 1025 356 1025 "},"Ậ":{"ha":1036,"x_min":69,"x_max":967,"o":"m 132 -7 q 167 3 151 -7 q 192 32 183 14 l 282 249 l 754 249 l 844 32 q 869 3 853 14 q 904 -7 885 -7 q 949 11 932 -7 q 967 56 967 29 q 960 83 967 67 l 606 919 q 574 960 594 944 q 525 976 554 976 l 511 976 q 462 960 482 976 q 431 919 442 944 l 76 83 q 69 56 69 67 q 87 11 69 29 q 132 -7 104 -7 m 331 364 l 518 815 l 706 364 l 331 364 m 518 -231 q 568 -210 547 -231 q 589 -160 589 -189 q 568 -110 589 -131 q 518 -89 547 -89 q 468 -110 489 -89 q 447 -160 447 -131 q 468 -210 447 -189 q 518 -231 489 -231 m 372 1025 q 397 1035 388 1025 l 518 1138 l 639 1035 q 664 1025 649 1025 q 694 1038 682 1025 q 706 1067 707 1051 q 694 1093 706 1082 l 600 1190 q 575 1211 588 1204 q 544 1218 563 1218 l 492 1218 q 461 1211 474 1218 q 436 1190 449 1204 l 342 1093 q 331 1067 331 1082 q 342 1038 329 1051 q 372 1025 354 1025 "},"Ầ":{"ha":1036,"x_min":69,"x_max":967,"o":"m 132 -7 q 167 3 151 -7 q 192 32 183 14 l 282 249 l 754 249 l 844 32 q 869 3 853 14 q 904 -7 885 -7 q 949 11 932 -7 q 967 56 967 29 q 960 83 967 67 l 606 919 q 574 960 594 944 q 525 976 554 976 l 511 976 q 462 960 482 976 q 431 919 442 944 l 76 83 q 69 56 69 67 q 87 11 69 29 q 132 -7 104 -7 m 331 364 l 518 815 l 706 364 l 331 364 m 669 1161 q 690 1169 682 1161 q 699 1189 699 1178 q 692 1217 699 1203 l 642 1301 q 597 1335 622 1335 q 564 1322 578 1335 q 550 1290 550 1310 q 568 1251 550 1269 l 639 1175 q 669 1161 653 1161 m 372 1025 q 397 1033 386 1025 l 518 1129 l 639 1033 q 664 1025 650 1025 q 694 1037 681 1025 q 706 1063 707 1049 q 694 1088 706 1076 l 600 1168 q 574 1187 585 1181 q 544 1193 563 1193 l 492 1193 q 463 1187 474 1193 q 436 1168 451 1181 l 342 1088 q 331 1063 331 1076 q 342 1037 329 1049 q 372 1025 356 1025 "},"Ẩ":{"ha":1036,"x_min":69,"x_max":967,"o":"m 132 -7 q 167 3 151 -7 q 192 32 183 14 l 282 249 l 754 249 l 844 32 q 869 3 853 14 q 904 -7 885 -7 q 949 11 932 -7 q 967 56 967 29 q 960 83 967 67 l 606 919 q 574 960 594 944 q 525 976 554 976 l 511 976 q 462 960 482 976 q 431 919 442 944 l 76 83 q 69 56 69 67 q 87 11 69 29 q 132 -7 104 -7 m 331 364 l 518 815 l 706 364 l 331 364 m 663 1165 q 697 1185 689 1165 q 711 1204 701 1196 q 738 1224 721 1213 q 778 1256 764 1240 q 792 1300 792 1272 q 681 1383 792 1383 q 629 1378 651 1383 q 586 1360 607 1374 q 571 1332 571 1350 q 579 1313 571 1321 q 600 1304 588 1304 q 631 1314 607 1304 q 679 1324 654 1324 q 722 1299 722 1324 q 717 1287 722 1293 q 701 1274 713 1281 q 688 1264 690 1267 q 645 1233 660 1247 q 631 1197 631 1218 q 640 1174 631 1182 q 663 1165 650 1165 m 372 1025 q 397 1033 386 1025 l 518 1129 l 639 1033 q 664 1025 650 1025 q 694 1037 681 1025 q 706 1063 707 1049 q 694 1088 706 1076 l 600 1168 q 574 1187 585 1181 q 544 1193 563 1193 l 492 1193 q 463 1187 474 1193 q 436 1168 451 1181 l 342 1088 q 331 1063 331 1076 q 342 1037 329 1049 q 372 1025 356 1025 "},"Ẫ":{"ha":1036,"x_min":69,"x_max":967,"o":"m 132 -7 q 167 3 151 -7 q 192 32 183 14 l 282 249 l 754 249 l 844 32 q 869 3 853 14 q 904 -7 885 -7 q 949 11 932 -7 q 967 56 967 29 q 960 83 967 67 l 606 919 q 574 960 594 944 q 525 976 554 976 l 511 976 q 462 960 482 976 q 431 919 442 944 l 76 83 q 69 56 69 67 q 87 11 69 29 q 132 -7 104 -7 m 331 364 l 518 815 l 706 364 l 331 364 m 351 1218 q 367 1223 360 1218 q 376 1235 375 1228 q 395 1256 382 1249 q 433 1263 408 1263 q 473 1256 451 1263 q 514 1243 494 1250 q 563 1227 544 1232 q 604 1222 582 1222 q 681 1253 649 1222 q 713 1322 713 1285 q 686 1344 710 1344 q 670 1340 675 1344 q 661 1329 665 1336 q 638 1309 651 1315 q 604 1303 625 1303 q 551 1311 576 1303 q 521 1321 525 1319 q 474 1335 493 1331 q 432 1340 454 1340 q 353 1309 382 1340 q 325 1240 325 1278 q 333 1224 325 1231 q 351 1218 340 1218 m 372 1025 q 397 1033 386 1025 l 518 1129 l 639 1033 q 664 1025 650 1025 q 694 1037 681 1025 q 706 1063 707 1049 q 694 1088 706 1076 l 600 1168 q 574 1187 585 1181 q 544 1193 563 1193 l 492 1193 q 463 1187 474 1193 q 436 1168 451 1181 l 342 1088 q 331 1063 331 1076 q 342 1037 329 1049 q 372 1025 356 1025 "},"Ȁ":{"ha":1036,"x_min":69,"x_max":967,"o":"m 132 -7 q 167 3 151 -7 q 192 32 183 14 l 282 249 l 754 249 l 844 32 q 869 3 853 14 q 904 -7 885 -7 q 949 11 932 -7 q 967 56 967 29 q 960 83 967 67 l 606 919 q 574 960 594 944 q 525 976 554 976 l 511 976 q 462 960 482 976 q 431 919 442 944 l 76 83 q 69 56 69 67 q 87 11 69 29 q 132 -7 104 -7 m 331 364 l 518 815 l 706 364 l 331 364 m 411 1026 q 442 1042 429 1026 l 538 1156 q 551 1190 551 1171 q 537 1228 551 1214 q 500 1242 522 1242 q 454 1215 468 1242 l 383 1090 q 374 1064 374 1076 q 384 1037 374 1047 q 411 1026 394 1026 m 625 1026 q 656 1042 643 1026 l 751 1156 q 765 1190 765 1171 q 751 1228 765 1214 q 714 1242 736 1242 q 668 1215 682 1242 l 597 1090 q 588 1064 588 1076 q 598 1037 588 1047 q 625 1026 608 1026 "},"Ä":{"ha":1036,"x_min":69,"x_max":967,"o":"m 132 -7 q 167 3 151 -7 q 192 32 183 14 l 282 249 l 754 249 l 844 32 q 869 3 853 14 q 904 -7 885 -7 q 949 11 932 -7 q 967 56 967 29 q 960 83 967 67 l 606 919 q 574 960 594 944 q 525 976 554 976 l 511 976 q 462 960 482 976 q 431 919 442 944 l 76 83 q 69 56 69 67 q 87 11 69 29 q 132 -7 104 -7 m 331 364 l 518 815 l 706 364 l 331 364 m 401 1038 q 451 1058 431 1038 q 472 1108 472 1079 q 451 1158 472 1138 q 401 1179 431 1179 q 351 1158 372 1179 q 331 1108 331 1138 q 351 1058 331 1079 q 401 1038 372 1038 m 635 1038 q 685 1058 664 1038 q 706 1108 706 1079 q 685 1158 706 1138 q 635 1179 664 1179 q 585 1158 606 1179 q 564 1108 564 1138 q 585 1058 564 1079 q 635 1038 606 1038 "},"Ạ":{"ha":1036,"x_min":69,"x_max":967,"o":"m 132 -7 q 167 3 151 -7 q 192 32 183 14 l 282 249 l 754 249 l 844 32 q 869 3 853 14 q 904 -7 885 -7 q 949 11 932 -7 q 967 56 967 29 q 960 83 967 67 l 606 919 q 574 960 594 944 q 525 976 554 976 l 511 976 q 462 960 482 976 q 431 919 442 944 l 76 83 q 69 56 69 67 q 87 11 69 29 q 132 -7 104 -7 m 331 364 l 518 815 l 706 364 l 331 364 m 518 -231 q 568 -210 547 -231 q 589 -160 589 -189 q 568 -110 589 -131 q 518 -89 547 -89 q 468 -110 489 -89 q 447 -160 447 -131 q 468 -210 447 -189 q 518 -231 489 -231 "},"À":{"ha":1036,"x_min":69,"x_max":967,"o":"m 132 -7 q 167 3 151 -7 q 192 32 183 14 l 282 249 l 754 249 l 844 32 q 869 3 853 14 q 904 -7 885 -7 q 949 11 932 -7 q 967 56 967 29 q 960 83 967 67 l 606 919 q 574 960 594 944 q 525 976 554 976 l 511 976 q 462 960 482 976 q 431 919 442 944 l 76 83 q 69 56 69 67 q 87 11 69 29 q 132 -7 104 -7 m 331 364 l 518 815 l 706 364 l 331 364 m 518 1026 q 545 1037 535 1026 q 556 1064 556 1047 q 546 1090 556 1076 l 475 1215 q 429 1242 461 1242 q 392 1228 406 1242 q 378 1190 378 1214 q 392 1156 378 1171 l 488 1042 q 518 1026 500 1026 "},"Ả":{"ha":1036,"x_min":69,"x_max":967,"o":"m 132 -7 q 167 3 151 -7 q 192 32 183 14 l 282 249 l 754 249 l 844 32 q 869 3 853 14 q 904 -7 885 -7 q 949 11 932 -7 q 967 56 967 29 q 960 83 967 67 l 606 919 q 574 960 594 944 q 525 976 554 976 l 511 976 q 462 960 482 976 q 431 919 442 944 l 76 83 q 69 56 69 67 q 87 11 69 29 q 132 -7 104 -7 m 331 364 l 518 815 l 706 364 l 331 364 m 508 1025 q 540 1046 532 1025 q 556 1070 546 1060 q 583 1092 567 1081 q 625 1131 611 1113 q 639 1179 639 1149 q 608 1245 639 1221 q 525 1269 578 1269 q 469 1263 497 1269 q 418 1242 440 1256 q 403 1215 403 1232 q 411 1195 403 1204 q 432 1186 419 1186 q 464 1199 438 1186 q 525 1211 490 1211 q 560 1203 547 1211 q 574 1178 574 1194 q 563 1151 574 1163 q 531 1126 551 1140 q 490 1093 503 1108 q 476 1054 476 1078 q 486 1033 476 1040 q 508 1025 496 1025 "},"Ȃ":{"ha":1036,"x_min":69,"x_max":967,"o":"m 132 -7 q 167 3 151 -7 q 192 32 183 14 l 282 249 l 754 249 l 844 32 q 869 3 853 14 q 904 -7 885 -7 q 949 11 932 -7 q 967 56 967 29 q 960 83 967 67 l 606 919 q 574 960 594 944 q 525 976 554 976 l 511 976 q 462 960 482 976 q 431 919 442 944 l 76 83 q 69 56 69 67 q 87 11 69 29 q 132 -7 104 -7 m 331 364 l 518 815 l 706 364 l 331 364 m 363 1026 q 401 1053 389 1026 q 447 1103 417 1085 q 518 1121 478 1121 q 589 1103 558 1121 q 635 1053 619 1085 q 674 1026 647 1026 q 705 1039 693 1026 q 717 1069 717 1051 q 713 1089 717 1081 q 635 1171 686 1140 q 518 1201 583 1201 q 401 1171 453 1201 q 324 1089 350 1140 q 319 1069 319 1081 q 331 1039 319 1051 q 363 1026 343 1026 "},"Ā":{"ha":1036,"x_min":69,"x_max":967,"o":"m 132 -7 q 167 3 151 -7 q 192 32 183 14 l 282 249 l 754 249 l 844 32 q 869 3 853 14 q 904 -7 885 -7 q 949 11 932 -7 q 967 56 967 29 q 960 83 967 67 l 606 919 q 574 960 594 944 q 525 976 554 976 l 511 976 q 462 960 482 976 q 431 919 442 944 l 76 83 q 69 56 69 67 q 87 11 69 29 q 132 -7 104 -7 m 331 364 l 518 815 l 706 364 l 331 364 m 356 1056 l 681 1056 q 710 1067 699 1056 q 722 1097 722 1079 q 710 1127 722 1115 q 681 1139 699 1139 l 356 1139 q 326 1127 338 1139 q 314 1097 314 1115 q 326 1067 314 1079 q 356 1056 338 1056 "},"Ą":{"ha":1036,"x_min":69,"x_max":967,"o":"m 824 -282 q 943 -249 896 -282 q 958 -224 958 -237 q 950 -201 958 -210 q 928 -193 942 -193 q 915 -196 924 -193 q 867 -204 888 -204 q 796 -137 796 -204 q 837 -59 796 -93 q 932 -1 878 -25 q 957 21 947 6 q 967 56 967 36 q 960 83 967 67 l 606 919 q 574 960 594 944 q 525 976 554 976 l 511 976 q 462 960 482 976 q 431 919 442 944 l 76 83 q 69 56 69 67 q 87 11 69 29 q 132 -7 104 -7 q 167 3 151 -7 q 192 32 183 14 l 282 249 l 754 249 l 849 22 q 732 -63 769 -14 q 694 -165 694 -112 q 733 -250 694 -218 q 824 -282 771 -282 m 331 364 l 518 815 l 706 364 l 331 364 "},"Å":{"ha":1036,"x_min":69,"x_max":967,"o":"m 132 -7 q 167 3 151 -7 q 192 32 183 14 l 282 249 l 754 249 l 844 32 q 869 3 853 14 q 904 -7 885 -7 q 949 11 932 -7 q 967 56 967 29 q 960 83 967 67 l 606 919 q 574 960 594 944 q 525 976 554 976 l 511 976 q 462 960 482 976 q 431 919 442 944 l 76 83 q 69 56 69 67 q 87 11 69 29 q 132 -7 104 -7 m 331 364 l 518 815 l 706 364 l 331 364 m 518 1004 q 610 1042 572 1004 q 649 1135 649 1081 q 610 1227 649 1189 q 518 1265 572 1265 q 426 1227 464 1265 q 388 1135 388 1189 q 426 1042 388 1081 q 518 1004 464 1004 m 518 1067 q 470 1087 490 1067 q 450 1135 450 1107 q 470 1183 450 1163 q 518 1203 490 1203 q 566 1183 546 1203 q 586 1135 586 1163 q 566 1087 586 1107 q 518 1067 546 1067 "},"Ǻ":{"ha":1036,"x_min":69,"x_max":967,"o":"m 640 1242 q 671 1256 657 1242 l 742 1332 q 760 1371 760 1350 q 746 1403 760 1390 q 713 1415 732 1415 q 668 1382 688 1415 l 618 1297 q 611 1269 611 1283 q 619 1250 611 1258 q 640 1242 628 1242 m 518 1004 q 610 1042 572 1004 q 649 1135 649 1081 q 610 1227 649 1189 q 518 1265 572 1265 q 426 1227 464 1265 q 388 1135 388 1189 q 426 1042 388 1081 q 518 1004 464 1004 m 518 1067 q 470 1087 490 1067 q 450 1135 450 1107 q 470 1183 450 1163 q 518 1203 490 1203 q 566 1183 546 1203 q 586 1135 586 1163 q 566 1087 586 1107 q 518 1067 546 1067 m 132 -7 q 167 3 151 -7 q 192 32 183 14 l 282 249 l 754 249 l 844 32 q 869 3 853 14 q 904 -7 885 -7 q 949 11 932 -7 q 967 56 967 29 q 960 83 967 67 l 606 919 q 574 960 594 944 q 525 976 554 976 l 511 976 q 462 960 482 976 q 431 919 442 944 l 76 83 q 69 56 69 67 q 87 11 69 29 q 132 -7 104 -7 m 331 364 l 518 815 l 706 364 l 331 364 "},"Ã":{"ha":1036,"x_min":69,"x_max":967,"o":"m 132 -7 q 167 3 151 -7 q 192 32 183 14 l 282 249 l 754 249 l 844 32 q 869 3 853 14 q 904 -7 885 -7 q 949 11 932 -7 q 967 56 967 29 q 960 83 967 67 l 606 919 q 574 960 594 944 q 525 976 554 976 l 511 976 q 462 960 482 976 q 431 919 442 944 l 76 83 q 69 56 69 67 q 87 11 69 29 q 132 -7 104 -7 m 331 364 l 518 815 l 706 364 l 331 364 m 326 1032 q 358 1057 350 1032 q 413 1101 376 1101 q 458 1093 436 1101 q 513 1069 481 1085 q 574 1044 549 1053 q 626 1035 599 1035 q 710 1076 676 1035 q 743 1167 743 1118 q 733 1188 742 1179 q 711 1197 725 1197 q 676 1168 688 1197 q 658 1140 669 1150 q 625 1131 646 1131 q 577 1139 600 1131 q 522 1163 554 1147 q 463 1188 488 1179 q 411 1196 439 1196 q 350 1175 376 1196 q 309 1124 324 1154 q 294 1064 294 1093 q 304 1041 294 1050 q 326 1032 314 1032 "},"Æ":{"ha":1444,"x_min":3,"x_max":1372,"o":"m 67 -7 q 124 29 100 -7 l 265 249 l 693 249 l 693 63 q 711 18 693 36 q 756 0 729 0 l 1313 0 q 1355 17 1338 0 q 1372 58 1372 33 q 1355 101 1372 83 q 1313 118 1338 118 l 819 118 l 819 426 l 1263 426 q 1305 443 1288 426 q 1322 485 1322 460 q 1305 527 1322 510 q 1263 544 1288 544 l 819 544 l 819 851 l 1313 851 q 1355 868 1338 851 q 1372 910 1372 885 q 1355 952 1372 935 q 1313 969 1338 969 l 635 969 q 599 960 615 969 q 571 935 582 950 l 17 94 q 3 56 3 74 q 22 11 3 29 q 67 -7 40 -7 m 340 364 l 658 851 l 693 851 l 693 364 l 340 364 "},"Ǽ":{"ha":1444,"x_min":3,"x_max":1372,"o":"m 67 -7 q 124 29 100 -7 l 265 249 l 693 249 l 693 63 q 711 18 693 36 q 756 0 729 0 l 1313 0 q 1355 17 1338 0 q 1372 58 1372 33 q 1355 101 1372 83 q 1313 118 1338 118 l 819 118 l 819 426 l 1263 426 q 1305 443 1288 426 q 1322 485 1322 460 q 1305 527 1322 510 q 1263 544 1288 544 l 819 544 l 819 851 l 1313 851 q 1355 868 1338 851 q 1372 910 1372 885 q 1355 952 1372 935 q 1313 969 1338 969 l 635 969 q 599 960 615 969 q 571 935 582 950 l 17 94 q 3 56 3 74 q 22 11 3 29 q 67 -7 40 -7 m 340 364 l 658 851 l 693 851 l 693 364 l 340 364 m 757 1026 q 788 1042 775 1026 l 883 1156 q 897 1190 897 1171 q 883 1228 897 1214 q 846 1242 868 1242 q 800 1215 814 1242 l 729 1090 q 719 1064 719 1076 q 730 1037 719 1047 q 757 1026 740 1026 "},"B":{"ha":963,"x_min":135,"x_max":890,"o":"m 197 0 l 533 0 q 804 72 718 0 q 890 272 890 144 q 837 419 890 361 q 700 504 783 478 q 798 584 760 531 q 836 718 836 638 q 755 901 836 833 q 525 969 674 969 l 197 969 q 153 951 171 969 q 135 906 135 932 l 135 63 q 153 18 135 36 q 197 0 171 0 m 492 550 l 261 550 l 261 851 l 515 851 q 662 813 608 851 q 715 708 715 774 q 665 592 715 633 q 492 550 615 550 m 521 118 l 261 118 l 261 436 l 522 436 q 768 278 768 436 q 712 160 768 201 q 521 118 656 118 "},"C":{"ha":965,"x_min":76,"x_max":910,"o":"m 563 -14 q 731 8 657 -14 q 879 72 806 31 q 910 125 910 89 q 894 163 910 147 q 854 178 879 178 q 829 172 840 178 q 710 124 768 140 q 575 107 651 107 q 372 156 456 107 q 245 291 288 206 q 203 485 203 376 q 245 678 203 593 q 372 813 288 764 q 575 863 456 863 q 710 846 651 863 q 829 797 768 829 q 854 792 840 792 q 894 808 879 792 q 910 844 910 824 q 879 897 910 881 q 731 961 806 939 q 563 983 657 983 q 313 923 424 983 q 140 749 203 863 q 76 485 76 636 q 140 220 76 333 q 313 47 203 107 q 563 -14 424 -14 "},"Ć":{"ha":965,"x_min":76,"x_max":910,"o":"m 563 -14 q 731 8 657 -14 q 879 72 806 31 q 910 125 910 89 q 894 163 910 147 q 854 178 879 178 q 829 172 840 178 q 710 124 768 140 q 575 107 651 107 q 372 156 456 107 q 245 291 288 206 q 203 485 203 376 q 245 678 203 593 q 372 813 288 764 q 575 863 456 863 q 710 846 651 863 q 829 797 768 829 q 854 792 840 792 q 894 808 879 792 q 910 844 910 824 q 879 897 910 881 q 731 961 806 939 q 563 983 657 983 q 313 923 424 983 q 140 749 203 863 q 76 485 76 636 q 140 220 76 333 q 313 47 203 107 q 563 -14 424 -14 m 549 1026 q 579 1042 567 1026 l 675 1156 q 689 1190 689 1171 q 674 1228 689 1214 q 638 1242 660 1242 q 592 1215 606 1242 l 521 1090 q 511 1064 511 1076 q 522 1037 511 1047 q 549 1026 532 1026 "},"Č":{"ha":965,"x_min":76,"x_max":910,"o":"m 563 -14 q 731 8 657 -14 q 879 72 806 31 q 910 125 910 89 q 894 163 910 147 q 854 178 879 178 q 829 172 840 178 q 710 124 768 140 q 575 107 651 107 q 372 156 456 107 q 245 291 288 206 q 203 485 203 376 q 245 678 203 593 q 372 813 288 764 q 575 863 456 863 q 710 846 651 863 q 829 797 768 829 q 854 792 840 792 q 894 808 879 792 q 910 844 910 824 q 879 897 910 881 q 731 961 806 939 q 563 983 657 983 q 313 923 424 983 q 140 749 203 863 q 76 485 76 636 q 140 220 76 333 q 313 47 203 107 q 563 -14 424 -14 m 522 1026 l 575 1026 q 606 1033 593 1026 q 631 1054 618 1040 l 725 1151 q 736 1178 736 1163 q 725 1206 738 1193 q 694 1219 713 1219 q 669 1210 679 1219 l 549 1107 l 428 1210 q 403 1219 418 1219 q 372 1206 385 1219 q 361 1178 360 1193 q 372 1151 361 1163 l 467 1054 q 492 1033 479 1040 q 522 1026 504 1026 "},"Ç":{"ha":965,"x_min":76,"x_max":910,"o":"m 854 178 q 829 172 840 178 q 710 124 768 140 q 575 107 651 107 q 372 156 456 107 q 245 291 288 206 q 203 485 203 376 q 245 678 203 593 q 372 813 288 764 q 575 863 456 863 q 710 846 651 863 q 829 797 768 829 q 854 792 840 792 q 894 808 879 792 q 910 844 910 824 q 879 897 910 881 q 731 961 806 939 q 563 983 657 983 q 313 923 424 983 q 140 749 203 863 q 76 485 76 636 q 133 233 76 342 q 288 62 189 125 q 514 -12 388 -1 l 447 -118 q 442 -137 442 -126 q 449 -153 442 -147 q 467 -160 457 -160 q 481 -156 472 -160 q 542 -140 511 -140 q 578 -151 564 -140 q 592 -183 592 -162 q 513 -247 592 -247 q 431 -224 474 -247 q 417 -219 422 -219 q 397 -228 404 -219 q 390 -247 390 -236 q 395 -260 390 -254 q 406 -271 400 -267 q 531 -307 464 -307 q 645 -275 606 -307 q 685 -179 685 -243 q 655 -109 685 -136 q 578 -82 625 -82 q 531 -87 553 -82 l 574 -14 q 736 10 664 -12 q 879 72 808 32 q 910 125 910 89 q 894 163 910 147 q 854 178 879 178 "},"Ḉ":{"ha":965,"x_min":76,"x_max":910,"o":"m 549 1026 q 579 1042 567 1026 l 675 1156 q 689 1190 689 1171 q 675 1228 689 1214 q 638 1242 661 1242 q 592 1215 606 1242 l 521 1090 q 511 1064 511 1076 q 522 1037 511 1047 q 549 1026 532 1026 m 854 178 q 829 172 840 178 q 710 124 768 140 q 575 107 651 107 q 372 156 456 107 q 245 291 288 206 q 203 485 203 376 q 245 678 203 593 q 372 813 288 764 q 575 863 456 863 q 710 846 651 863 q 829 797 768 829 q 854 792 840 792 q 894 808 879 792 q 910 844 910 824 q 879 897 910 881 q 731 961 806 939 q 563 983 657 983 q 313 923 424 983 q 140 749 203 863 q 76 485 76 636 q 133 233 76 342 q 288 62 189 125 q 514 -12 388 -1 l 447 -118 q 442 -137 442 -126 q 449 -153 442 -147 q 467 -160 457 -160 q 481 -156 472 -160 q 542 -140 511 -140 q 578 -151 564 -140 q 592 -183 592 -162 q 513 -247 592 -247 q 431 -224 474 -247 q 417 -219 422 -219 q 397 -228 404 -219 q 390 -247 390 -236 q 395 -260 390 -254 q 406 -271 400 -267 q 531 -307 464 -307 q 645 -275 606 -307 q 685 -179 685 -243 q 655 -109 685 -136 q 578 -82 625 -82 q 531 -87 553 -82 l 574 -14 q 736 10 664 -12 q 879 72 808 32 q 910 125 910 89 q 894 163 910 147 q 854 178 879 178 "},"Ĉ":{"ha":965,"x_min":76,"x_max":910,"o":"m 563 -14 q 731 8 657 -14 q 879 72 806 31 q 910 125 910 89 q 894 163 910 147 q 854 178 879 178 q 829 172 840 178 q 710 124 768 140 q 575 107 651 107 q 372 156 456 107 q 245 291 288 206 q 203 485 203 376 q 245 678 203 593 q 372 813 288 764 q 575 863 456 863 q 710 846 651 863 q 829 797 768 829 q 854 792 840 792 q 894 808 879 792 q 910 844 910 824 q 879 897 910 881 q 731 961 806 939 q 563 983 657 983 q 313 923 424 983 q 140 749 203 863 q 76 485 76 636 q 140 220 76 333 q 313 47 203 107 q 563 -14 424 -14 m 403 1025 q 428 1035 418 1025 l 549 1138 l 669 1035 q 694 1025 679 1025 q 725 1038 713 1025 q 736 1067 738 1051 q 725 1093 736 1082 l 631 1190 q 606 1211 618 1204 q 575 1218 593 1218 l 522 1218 q 492 1211 504 1218 q 467 1190 479 1204 l 372 1093 q 361 1067 361 1082 q 372 1038 360 1051 q 403 1025 385 1025 "},"Ċ":{"ha":965,"x_min":76,"x_max":910,"o":"m 563 -14 q 731 8 657 -14 q 879 72 806 31 q 910 125 910 89 q 894 163 910 147 q 854 178 879 178 q 829 172 840 178 q 710 124 768 140 q 575 107 651 107 q 372 156 456 107 q 245 291 288 206 q 203 485 203 376 q 245 678 203 593 q 372 813 288 764 q 575 863 456 863 q 710 846 651 863 q 829 797 768 829 q 854 792 840 792 q 894 808 879 792 q 910 844 910 824 q 879 897 910 881 q 731 961 806 939 q 563 983 657 983 q 313 923 424 983 q 140 749 203 863 q 76 485 76 636 q 140 220 76 333 q 313 47 203 107 q 563 -14 424 -14 m 549 1038 q 599 1058 578 1038 q 619 1108 619 1079 q 599 1158 619 1138 q 549 1179 578 1179 q 499 1158 519 1179 q 478 1108 478 1138 q 499 1058 478 1079 q 549 1038 519 1038 "},"D":{"ha":1043,"x_min":135,"x_max":967,"o":"m 197 0 l 476 0 q 745 70 635 0 q 911 251 856 140 q 967 485 967 363 q 911 718 967 607 q 745 899 856 829 q 476 969 635 969 l 197 969 q 153 951 171 969 q 135 906 135 932 l 135 63 q 153 18 135 36 q 197 0 171 0 m 461 118 l 261 118 l 261 851 l 461 851 q 661 805 575 851 q 794 676 747 758 q 842 485 842 593 q 794 294 842 376 q 661 165 747 211 q 461 118 575 118 "},"Ǆ":{"ha":1886,"x_min":135,"x_max":1824,"o":"m 197 0 l 476 0 q 745 70 635 0 q 911 251 856 140 q 967 485 967 363 q 911 718 967 607 q 745 899 856 829 q 476 969 635 969 l 197 969 q 153 951 171 969 q 135 906 135 932 l 135 63 q 153 18 135 36 q 197 0 171 0 m 461 118 l 261 118 l 261 851 l 461 851 q 661 805 575 851 q 794 676 747 758 q 842 485 842 593 q 794 294 842 376 q 661 165 747 211 q 461 118 575 118 m 1146 0 l 1764 0 q 1806 17 1789 0 q 1824 58 1824 33 q 1806 101 1824 83 q 1764 118 1789 118 l 1219 118 l 1793 828 q 1809 854 1803 839 q 1815 883 1815 869 q 1792 944 1815 919 q 1731 969 1769 969 l 1128 969 q 1085 951 1103 969 q 1068 908 1068 933 q 1085 866 1068 883 q 1128 849 1103 849 l 1663 849 l 1082 132 q 1065 81 1065 111 q 1089 24 1065 47 q 1146 0 1113 0 m 1417 1026 l 1469 1026 q 1500 1033 1488 1026 q 1525 1054 1513 1040 l 1619 1151 q 1631 1178 1631 1163 q 1619 1206 1632 1193 q 1589 1219 1607 1219 q 1564 1210 1574 1219 l 1443 1107 l 1322 1210 q 1297 1219 1313 1219 q 1267 1206 1279 1219 q 1256 1178 1254 1193 q 1267 1151 1256 1163 l 1361 1054 q 1386 1033 1374 1040 q 1417 1026 1399 1026 "},"Ð":{"ha":1050,"x_min":21,"x_max":974,"o":"m 204 0 l 483 0 q 752 70 642 0 q 918 251 863 140 q 974 485 974 363 q 918 718 974 607 q 752 899 863 829 q 483 969 642 969 l 204 969 q 160 951 178 969 q 142 906 142 932 l 142 531 l 67 531 q 34 517 47 531 q 21 483 21 503 q 34 451 21 464 q 67 438 47 438 l 142 438 l 142 63 q 160 18 142 36 q 204 0 178 0 m 468 118 l 268 118 l 268 438 l 431 438 q 464 451 450 438 q 478 483 478 464 q 464 517 478 503 q 431 531 450 531 l 268 531 l 268 851 l 468 851 q 668 805 582 851 q 801 676 754 758 q 849 485 849 593 q 801 294 849 376 q 668 165 754 211 q 468 118 582 118 "},"Ď":{"ha":1043,"x_min":135,"x_max":967,"o":"m 197 0 l 476 0 q 745 70 635 0 q 911 251 856 140 q 967 485 967 363 q 911 718 967 607 q 745 899 856 829 q 476 969 635 969 l 197 969 q 153 951 171 969 q 135 906 135 932 l 135 63 q 153 18 135 36 q 197 0 171 0 m 461 118 l 261 118 l 261 851 l 461 851 q 661 805 575 851 q 794 676 747 758 q 842 485 842 593 q 794 294 842 376 q 661 165 747 211 q 461 118 575 118 m 494 1026 l 547 1026 q 578 1033 565 1026 q 603 1054 590 1040 l 697 1151 q 708 1178 708 1163 q 697 1206 710 1193 q 667 1219 685 1219 q 642 1210 651 1219 l 521 1107 l 400 1210 q 375 1219 390 1219 q 344 1206 357 1219 q 333 1178 332 1193 q 344 1151 333 1163 l 439 1054 q 464 1033 451 1040 q 494 1026 476 1026 "},"Đ":{"ha":1050,"x_min":21,"x_max":974,"o":"m 204 0 l 483 0 q 752 70 642 0 q 918 251 863 140 q 974 485 974 363 q 918 718 974 607 q 752 899 863 829 q 483 969 642 969 l 204 969 q 160 951 178 969 q 142 906 142 932 l 142 531 l 67 531 q 34 517 47 531 q 21 483 21 503 q 34 451 21 464 q 67 438 47 438 l 142 438 l 142 63 q 160 18 142 36 q 204 0 178 0 m 468 118 l 268 118 l 268 438 l 431 438 q 464 451 450 438 q 478 483 478 464 q 464 517 478 503 q 431 531 450 531 l 268 531 l 268 851 l 468 851 q 668 805 582 851 q 801 676 754 758 q 849 485 849 593 q 801 294 849 376 q 668 165 754 211 q 468 118 582 118 "},"Ḍ":{"ha":1043,"x_min":135,"x_max":967,"o":"m 197 0 l 476 0 q 745 70 635 0 q 911 251 856 140 q 967 485 967 363 q 911 718 967 607 q 745 899 856 829 q 476 969 635 969 l 197 969 q 153 951 171 969 q 135 906 135 932 l 135 63 q 153 18 135 36 q 197 0 171 0 m 461 118 l 261 118 l 261 851 l 461 851 q 661 805 575 851 q 794 676 747 758 q 842 485 842 593 q 794 294 842 376 q 661 165 747 211 q 461 118 575 118 m 521 -231 q 571 -210 550 -231 q 592 -160 592 -189 q 571 -110 592 -131 q 521 -89 550 -89 q 471 -110 492 -89 q 450 -160 450 -131 q 471 -210 450 -189 q 521 -231 492 -231 "},"Ḏ":{"ha":1043,"x_min":135,"x_max":967,"o":"m 197 0 l 476 0 q 745 70 635 0 q 911 251 856 140 q 967 485 967 363 q 911 718 967 607 q 745 899 856 829 q 476 969 635 969 l 197 969 q 153 951 171 969 q 135 906 135 932 l 135 63 q 153 18 135 36 q 197 0 171 0 m 461 118 l 261 118 l 261 851 l 461 851 q 661 805 575 851 q 794 676 747 758 q 842 485 842 593 q 794 294 842 376 q 661 165 747 211 q 461 118 575 118 m 358 -190 l 683 -190 q 713 -178 701 -190 q 725 -149 725 -167 q 713 -119 725 -131 q 683 -107 701 -107 l 358 -107 q 328 -119 340 -107 q 317 -149 317 -131 q 328 -178 317 -167 q 358 -190 340 -190 "},"ǅ":{"ha":1706,"x_min":135,"x_max":1650,"o":"m 197 0 l 476 0 q 745 70 635 0 q 911 251 856 140 q 967 485 967 363 q 911 718 967 607 q 745 899 856 829 q 476 969 635 969 l 197 969 q 153 951 171 969 q 135 906 135 932 l 135 63 q 153 18 135 36 q 197 0 171 0 m 461 118 l 261 118 l 261 851 l 461 851 q 661 805 575 851 q 794 676 747 758 q 842 485 842 593 q 794 294 842 376 q 661 165 747 211 q 461 118 575 118 m 1157 0 l 1590 0 q 1633 17 1615 0 q 1650 58 1650 33 q 1633 101 1650 83 q 1590 118 1615 118 l 1233 118 l 1622 574 q 1642 629 1642 597 q 1619 686 1642 664 q 1561 708 1597 708 l 1140 708 q 1099 691 1115 708 q 1082 649 1082 674 q 1099 607 1082 624 q 1140 590 1115 590 l 1492 590 l 1092 131 q 1069 74 1069 106 q 1094 19 1069 39 q 1157 0 1119 0 m 1336 788 l 1389 788 q 1419 794 1407 788 q 1444 815 1432 801 l 1539 913 q 1550 939 1550 924 q 1539 967 1551 954 q 1508 981 1526 981 q 1483 971 1493 981 l 1363 868 l 1242 971 q 1217 981 1232 981 q 1186 967 1199 981 q 1175 939 1174 954 q 1186 913 1175 924 l 1281 815 q 1306 794 1293 801 q 1336 788 1318 788 "},"E":{"ha":886,"x_min":135,"x_max":814,"o":"m 197 0 l 754 0 q 797 17 779 0 q 814 58 814 33 q 797 101 814 83 q 754 118 779 118 l 261 118 l 261 426 l 704 426 q 747 443 729 426 q 764 485 764 460 q 747 527 764 510 q 704 544 729 544 l 261 544 l 261 851 l 754 851 q 797 868 779 851 q 814 910 814 885 q 797 952 814 935 q 754 969 779 969 l 197 969 q 153 951 171 969 q 135 906 135 932 l 135 63 q 153 18 135 36 q 197 0 171 0 "},"É":{"ha":886,"x_min":135,"x_max":814,"o":"m 197 0 l 754 0 q 797 17 779 0 q 814 58 814 33 q 797 101 814 83 q 754 118 779 118 l 261 118 l 261 426 l 704 426 q 747 443 729 426 q 764 485 764 460 q 747 527 764 510 q 704 544 729 544 l 261 544 l 261 851 l 754 851 q 797 868 779 851 q 814 910 814 885 q 797 952 814 935 q 754 969 779 969 l 197 969 q 153 951 171 969 q 135 906 135 932 l 135 63 q 153 18 135 36 q 197 0 171 0 m 475 1026 q 506 1042 493 1026 l 601 1156 q 615 1190 615 1171 q 601 1228 615 1214 q 564 1242 586 1242 q 518 1215 532 1242 l 447 1090 q 438 1064 438 1076 q 448 1037 438 1047 q 475 1026 458 1026 "},"Ĕ":{"ha":886,"x_min":135,"x_max":814,"o":"m 197 0 l 754 0 q 797 17 779 0 q 814 58 814 33 q 797 101 814 83 q 754 118 779 118 l 261 118 l 261 426 l 704 426 q 747 443 729 426 q 764 485 764 460 q 747 527 764 510 q 704 544 729 544 l 261 544 l 261 851 l 754 851 q 797 868 779 851 q 814 910 814 885 q 797 952 814 935 q 754 969 779 969 l 197 969 q 153 951 171 969 q 135 906 135 932 l 135 63 q 153 18 135 36 q 197 0 171 0 m 475 1039 q 592 1069 540 1039 q 669 1151 643 1100 q 674 1171 674 1160 q 662 1201 674 1189 q 631 1214 650 1214 q 592 1188 604 1214 q 546 1138 576 1156 q 475 1119 515 1119 q 404 1138 435 1119 q 358 1188 374 1156 q 319 1214 346 1214 q 288 1201 300 1214 q 276 1171 276 1189 q 281 1151 276 1160 q 358 1069 307 1100 q 475 1039 410 1039 "},"Ě":{"ha":886,"x_min":135,"x_max":814,"o":"m 197 0 l 754 0 q 797 17 779 0 q 814 58 814 33 q 797 101 814 83 q 754 118 779 118 l 261 118 l 261 426 l 704 426 q 747 443 729 426 q 764 485 764 460 q 747 527 764 510 q 704 544 729 544 l 261 544 l 261 851 l 754 851 q 797 868 779 851 q 814 910 814 885 q 797 952 814 935 q 754 969 779 969 l 197 969 q 153 951 171 969 q 135 906 135 932 l 135 63 q 153 18 135 36 q 197 0 171 0 m 449 1026 l 501 1026 q 532 1033 519 1026 q 557 1054 544 1040 l 651 1151 q 663 1178 663 1163 q 651 1206 664 1193 q 621 1219 639 1219 q 596 1210 606 1219 l 475 1107 l 354 1210 q 329 1219 344 1219 q 299 1206 311 1219 q 288 1178 286 1193 q 299 1151 288 1163 l 393 1054 q 418 1033 406 1040 q 449 1026 431 1026 "},"Ḝ":{"ha":886,"x_min":135,"x_max":814,"o":"m 475 1039 q 592 1069 540 1039 q 669 1151 643 1100 q 674 1171 674 1160 q 662 1201 674 1189 q 631 1214 650 1214 q 592 1188 604 1214 q 546 1138 576 1156 q 475 1119 515 1119 q 404 1138 435 1119 q 358 1188 374 1156 q 319 1214 346 1214 q 288 1201 300 1214 q 276 1171 276 1189 q 281 1151 276 1160 q 358 1069 307 1100 q 475 1039 410 1039 m 754 118 l 261 118 l 261 426 l 704 426 q 747 443 729 426 q 764 485 764 460 q 747 527 764 510 q 704 544 729 544 l 261 544 l 261 851 l 754 851 q 797 868 779 851 q 814 910 814 885 q 797 952 814 935 q 754 969 779 969 l 197 969 q 153 951 171 969 q 135 906 135 932 l 135 63 q 153 18 135 36 q 197 0 171 0 l 447 0 l 374 -118 q 368 -137 368 -126 q 376 -153 368 -147 q 393 -160 383 -160 q 407 -156 399 -160 q 468 -140 438 -140 q 504 -151 490 -140 q 518 -183 518 -162 q 439 -247 518 -247 q 357 -224 400 -247 q 343 -219 349 -219 q 324 -228 331 -219 q 317 -247 317 -236 q 322 -260 317 -254 q 332 -271 326 -267 q 457 -307 390 -307 q 572 -275 532 -307 q 611 -179 611 -243 q 581 -109 611 -136 q 504 -82 551 -82 q 457 -87 479 -82 l 507 0 l 754 0 q 797 17 779 0 q 814 58 814 33 q 797 101 814 83 q 754 118 779 118 "},"Ê":{"ha":886,"x_min":135,"x_max":814,"o":"m 197 0 l 754 0 q 797 17 779 0 q 814 58 814 33 q 797 101 814 83 q 754 118 779 118 l 261 118 l 261 426 l 704 426 q 747 443 729 426 q 764 485 764 460 q 747 527 764 510 q 704 544 729 544 l 261 544 l 261 851 l 754 851 q 797 868 779 851 q 814 910 814 885 q 797 952 814 935 q 754 969 779 969 l 197 969 q 153 951 171 969 q 135 906 135 932 l 135 63 q 153 18 135 36 q 197 0 171 0 m 329 1025 q 354 1035 344 1025 l 475 1138 l 596 1035 q 621 1025 606 1025 q 651 1038 639 1025 q 663 1067 664 1051 q 651 1093 663 1082 l 557 1190 q 532 1211 544 1204 q 501 1218 519 1218 l 449 1218 q 418 1211 431 1218 q 393 1190 406 1204 l 299 1093 q 288 1067 288 1082 q 299 1038 286 1051 q 329 1025 311 1025 "},"Ế":{"ha":886,"x_min":135,"x_max":814,"o":"m 197 0 l 754 0 q 797 17 779 0 q 814 58 814 33 q 797 101 814 83 q 754 118 779 118 l 261 118 l 261 426 l 704 426 q 747 443 729 426 q 764 485 764 460 q 747 527 764 510 q 704 544 729 544 l 261 544 l 261 851 l 754 851 q 797 868 779 851 q 814 910 814 885 q 797 952 814 935 q 754 969 779 969 l 197 969 q 153 951 171 969 q 135 906 135 932 l 135 63 q 153 18 135 36 q 197 0 171 0 m 619 1161 q 650 1175 636 1161 l 721 1251 q 739 1290 739 1269 q 725 1322 739 1310 q 692 1335 711 1335 q 647 1301 667 1335 l 597 1217 q 590 1189 590 1203 q 599 1169 590 1178 q 619 1161 607 1161 m 329 1025 q 354 1033 343 1025 l 475 1129 l 596 1033 q 621 1025 607 1025 q 651 1037 638 1025 q 663 1063 664 1049 q 651 1088 663 1076 l 557 1168 q 531 1187 542 1181 q 501 1193 519 1193 l 449 1193 q 419 1187 431 1193 q 393 1168 408 1181 l 299 1088 q 288 1063 288 1076 q 299 1037 286 1049 q 329 1025 313 1025 "},"Ệ":{"ha":886,"x_min":135,"x_max":814,"o":"m 197 0 l 754 0 q 797 17 779 0 q 814 58 814 33 q 797 101 814 83 q 754 118 779 118 l 261 118 l 261 426 l 704 426 q 747 443 729 426 q 764 485 764 460 q 747 527 764 510 q 704 544 729 544 l 261 544 l 261 851 l 754 851 q 797 868 779 851 q 814 910 814 885 q 797 952 814 935 q 754 969 779 969 l 197 969 q 153 951 171 969 q 135 906 135 932 l 135 63 q 153 18 135 36 q 197 0 171 0 m 475 -231 q 525 -210 504 -231 q 546 -160 546 -189 q 525 -110 546 -131 q 475 -89 504 -89 q 425 -110 446 -89 q 404 -160 404 -131 q 425 -210 404 -189 q 475 -231 446 -231 m 329 1025 q 354 1035 344 1025 l 475 1138 l 596 1035 q 621 1025 606 1025 q 651 1038 639 1025 q 663 1067 664 1051 q 651 1093 663 1082 l 557 1190 q 532 1211 544 1204 q 501 1218 519 1218 l 449 1218 q 418 1211 431 1218 q 393 1190 406 1204 l 299 1093 q 288 1067 288 1082 q 299 1038 286 1051 q 329 1025 311 1025 "},"Ề":{"ha":886,"x_min":135,"x_max":814,"o":"m 197 0 l 754 0 q 797 17 779 0 q 814 58 814 33 q 797 101 814 83 q 754 118 779 118 l 261 118 l 261 426 l 704 426 q 747 443 729 426 q 764 485 764 460 q 747 527 764 510 q 704 544 729 544 l 261 544 l 261 851 l 754 851 q 797 868 779 851 q 814 910 814 885 q 797 952 814 935 q 754 969 779 969 l 197 969 q 153 951 171 969 q 135 906 135 932 l 135 63 q 153 18 135 36 q 197 0 171 0 m 626 1161 q 647 1169 639 1161 q 656 1189 656 1178 q 649 1217 656 1203 l 599 1301 q 554 1335 579 1335 q 521 1322 535 1335 q 507 1290 507 1310 q 525 1251 507 1269 l 596 1175 q 626 1161 610 1161 m 329 1025 q 354 1033 343 1025 l 475 1129 l 596 1033 q 621 1025 607 1025 q 651 1037 638 1025 q 663 1063 664 1049 q 651 1088 663 1076 l 557 1168 q 531 1187 542 1181 q 501 1193 519 1193 l 449 1193 q 419 1187 431 1193 q 393 1168 408 1181 l 299 1088 q 288 1063 288 1076 q 299 1037 286 1049 q 329 1025 313 1025 "},"Ể":{"ha":886,"x_min":135,"x_max":814,"o":"m 197 0 l 754 0 q 797 17 779 0 q 814 58 814 33 q 797 101 814 83 q 754 118 779 118 l 261 118 l 261 426 l 704 426 q 747 443 729 426 q 764 485 764 460 q 747 527 764 510 q 704 544 729 544 l 261 544 l 261 851 l 754 851 q 797 868 779 851 q 814 910 814 885 q 797 952 814 935 q 754 969 779 969 l 197 969 q 153 951 171 969 q 135 906 135 932 l 135 63 q 153 18 135 36 q 197 0 171 0 m 619 1165 q 654 1185 646 1165 q 668 1204 658 1196 q 694 1224 678 1213 q 735 1256 721 1240 q 749 1300 749 1272 q 638 1383 749 1383 q 586 1378 608 1383 q 543 1360 564 1374 q 528 1332 528 1350 q 536 1313 528 1321 q 557 1304 544 1304 q 588 1314 564 1304 q 636 1324 611 1324 q 679 1299 679 1324 q 674 1287 679 1293 q 658 1274 669 1281 q 644 1264 647 1267 q 602 1233 617 1247 q 588 1197 588 1218 q 597 1174 588 1182 q 619 1165 607 1165 m 329 1025 q 354 1033 343 1025 l 475 1129 l 596 1033 q 621 1025 607 1025 q 651 1037 638 1025 q 663 1063 664 1049 q 651 1088 663 1076 l 557 1168 q 531 1187 542 1181 q 501 1193 519 1193 l 449 1193 q 419 1187 431 1193 q 393 1168 408 1181 l 299 1088 q 288 1063 288 1076 q 299 1037 286 1049 q 329 1025 313 1025 "},"Ễ":{"ha":886,"x_min":135,"x_max":814,"o":"m 197 0 l 754 0 q 797 17 779 0 q 814 58 814 33 q 797 101 814 83 q 754 118 779 118 l 261 118 l 261 426 l 704 426 q 747 443 729 426 q 764 485 764 460 q 747 527 764 510 q 704 544 729 544 l 261 544 l 261 851 l 754 851 q 797 868 779 851 q 814 910 814 885 q 797 952 814 935 q 754 969 779 969 l 197 969 q 153 951 171 969 q 135 906 135 932 l 135 63 q 153 18 135 36 q 197 0 171 0 m 308 1218 q 324 1223 317 1218 q 333 1235 332 1228 q 352 1256 339 1249 q 390 1263 365 1263 q 430 1256 408 1263 q 471 1243 451 1250 q 520 1227 501 1232 q 561 1222 539 1222 q 638 1253 606 1222 q 669 1322 669 1285 q 643 1344 667 1344 q 627 1340 632 1344 q 618 1329 622 1336 q 595 1309 608 1315 q 561 1303 582 1303 q 508 1311 533 1303 q 478 1321 482 1319 q 431 1335 450 1331 q 389 1340 411 1340 q 310 1309 339 1340 q 282 1240 282 1278 q 290 1224 282 1231 q 308 1218 297 1218 m 329 1025 q 354 1033 343 1025 l 475 1129 l 596 1033 q 621 1025 607 1025 q 651 1037 638 1025 q 663 1063 664 1049 q 651 1088 663 1076 l 557 1168 q 531 1187 542 1181 q 501 1193 519 1193 l 449 1193 q 419 1187 431 1193 q 393 1168 408 1181 l 299 1088 q 288 1063 288 1076 q 299 1037 286 1049 q 329 1025 313 1025 "},"Ȅ":{"ha":886,"x_min":135,"x_max":814,"o":"m 197 0 l 754 0 q 797 17 779 0 q 814 58 814 33 q 797 101 814 83 q 754 118 779 118 l 261 118 l 261 426 l 704 426 q 747 443 729 426 q 764 485 764 460 q 747 527 764 510 q 704 544 729 544 l 261 544 l 261 851 l 754 851 q 797 868 779 851 q 814 910 814 885 q 797 952 814 935 q 754 969 779 969 l 197 969 q 153 951 171 969 q 135 906 135 932 l 135 63 q 153 18 135 36 q 197 0 171 0 m 368 1026 q 399 1042 386 1026 l 494 1156 q 508 1190 508 1171 q 494 1228 508 1214 q 457 1242 479 1242 q 411 1215 425 1242 l 340 1090 q 331 1064 331 1076 q 341 1037 331 1047 q 368 1026 351 1026 m 582 1026 q 613 1042 600 1026 l 708 1156 q 722 1190 722 1171 q 708 1228 722 1214 q 671 1242 693 1242 q 625 1215 639 1242 l 554 1090 q 544 1064 544 1076 q 555 1037 544 1047 q 582 1026 565 1026 "},"Ë":{"ha":886,"x_min":135,"x_max":814,"o":"m 197 0 l 754 0 q 797 17 779 0 q 814 58 814 33 q 797 101 814 83 q 754 118 779 118 l 261 118 l 261 426 l 704 426 q 747 443 729 426 q 764 485 764 460 q 747 527 764 510 q 704 544 729 544 l 261 544 l 261 851 l 754 851 q 797 868 779 851 q 814 910 814 885 q 797 952 814 935 q 754 969 779 969 l 197 969 q 153 951 171 969 q 135 906 135 932 l 135 63 q 153 18 135 36 q 197 0 171 0 m 358 1038 q 408 1058 388 1038 q 429 1108 429 1079 q 408 1158 429 1138 q 358 1179 388 1179 q 308 1158 329 1179 q 288 1108 288 1138 q 308 1058 288 1079 q 358 1038 329 1038 m 592 1038 q 642 1058 621 1038 q 663 1108 663 1079 q 642 1158 663 1138 q 592 1179 621 1179 q 542 1158 563 1179 q 521 1108 521 1138 q 542 1058 521 1079 q 592 1038 563 1038 "},"Ė":{"ha":886,"x_min":135,"x_max":814,"o":"m 197 0 l 754 0 q 797 17 779 0 q 814 58 814 33 q 797 101 814 83 q 754 118 779 118 l 261 118 l 261 426 l 704 426 q 747 443 729 426 q 764 485 764 460 q 747 527 764 510 q 704 544 729 544 l 261 544 l 261 851 l 754 851 q 797 868 779 851 q 814 910 814 885 q 797 952 814 935 q 754 969 779 969 l 197 969 q 153 951 171 969 q 135 906 135 932 l 135 63 q 153 18 135 36 q 197 0 171 0 m 475 1038 q 525 1058 504 1038 q 546 1108 546 1079 q 525 1158 546 1138 q 475 1179 504 1179 q 425 1158 446 1179 q 404 1108 404 1138 q 425 1058 404 1079 q 475 1038 446 1038 "},"Ẹ":{"ha":886,"x_min":135,"x_max":814,"o":"m 197 0 l 754 0 q 797 17 779 0 q 814 58 814 33 q 797 101 814 83 q 754 118 779 118 l 261 118 l 261 426 l 704 426 q 747 443 729 426 q 764 485 764 460 q 747 527 764 510 q 704 544 729 544 l 261 544 l 261 851 l 754 851 q 797 868 779 851 q 814 910 814 885 q 797 952 814 935 q 754 969 779 969 l 197 969 q 153 951 171 969 q 135 906 135 932 l 135 63 q 153 18 135 36 q 197 0 171 0 m 475 -231 q 525 -210 504 -231 q 546 -160 546 -189 q 525 -110 546 -131 q 475 -89 504 -89 q 425 -110 446 -89 q 404 -160 404 -131 q 425 -210 404 -189 q 475 -231 446 -231 "},"È":{"ha":886,"x_min":135,"x_max":814,"o":"m 197 0 l 754 0 q 797 17 779 0 q 814 58 814 33 q 797 101 814 83 q 754 118 779 118 l 261 118 l 261 426 l 704 426 q 747 443 729 426 q 764 485 764 460 q 747 527 764 510 q 704 544 729 544 l 261 544 l 261 851 l 754 851 q 797 868 779 851 q 814 910 814 885 q 797 952 814 935 q 754 969 779 969 l 197 969 q 153 951 171 969 q 135 906 135 932 l 135 63 q 153 18 135 36 q 197 0 171 0 m 475 1026 q 502 1037 492 1026 q 513 1064 513 1047 q 503 1090 513 1076 l 432 1215 q 386 1242 418 1242 q 349 1228 363 1242 q 335 1190 335 1214 q 349 1156 335 1171 l 444 1042 q 475 1026 457 1026 "},"Ẻ":{"ha":886,"x_min":135,"x_max":814,"o":"m 197 0 l 754 0 q 797 17 779 0 q 814 58 814 33 q 797 101 814 83 q 754 118 779 118 l 261 118 l 261 426 l 704 426 q 747 443 729 426 q 764 485 764 460 q 747 527 764 510 q 704 544 729 544 l 261 544 l 261 851 l 754 851 q 797 868 779 851 q 814 910 814 885 q 797 952 814 935 q 754 969 779 969 l 197 969 q 153 951 171 969 q 135 906 135 932 l 135 63 q 153 18 135 36 q 197 0 171 0 m 465 1025 q 497 1046 489 1025 q 513 1070 503 1060 q 540 1092 524 1081 q 582 1131 568 1113 q 596 1179 596 1149 q 565 1245 596 1221 q 482 1269 535 1269 q 426 1263 454 1269 q 375 1242 397 1256 q 360 1215 360 1232 q 368 1195 360 1204 q 389 1186 376 1186 q 421 1199 394 1186 q 482 1211 447 1211 q 517 1203 504 1211 q 531 1178 531 1194 q 519 1151 531 1163 q 488 1126 508 1140 q 447 1093 460 1108 q 433 1054 433 1078 q 443 1033 433 1040 q 465 1025 453 1025 "},"Ȇ":{"ha":886,"x_min":135,"x_max":814,"o":"m 197 0 l 754 0 q 797 17 779 0 q 814 58 814 33 q 797 101 814 83 q 754 118 779 118 l 261 118 l 261 426 l 704 426 q 747 443 729 426 q 764 485 764 460 q 747 527 764 510 q 704 544 729 544 l 261 544 l 261 851 l 754 851 q 797 868 779 851 q 814 910 814 885 q 797 952 814 935 q 754 969 779 969 l 197 969 q 153 951 171 969 q 135 906 135 932 l 135 63 q 153 18 135 36 q 197 0 171 0 m 319 1026 q 358 1053 346 1026 q 404 1103 374 1085 q 475 1121 435 1121 q 546 1103 515 1121 q 592 1053 576 1085 q 631 1026 604 1026 q 662 1039 650 1026 q 674 1069 674 1051 q 669 1089 674 1081 q 592 1171 643 1140 q 475 1201 540 1201 q 358 1171 410 1201 q 281 1089 307 1140 q 276 1069 276 1081 q 288 1039 276 1051 q 319 1026 300 1026 "},"Ē":{"ha":886,"x_min":135,"x_max":814,"o":"m 197 0 l 754 0 q 797 17 779 0 q 814 58 814 33 q 797 101 814 83 q 754 118 779 118 l 261 118 l 261 426 l 704 426 q 747 443 729 426 q 764 485 764 460 q 747 527 764 510 q 704 544 729 544 l 261 544 l 261 851 l 754 851 q 797 868 779 851 q 814 910 814 885 q 797 952 814 935 q 754 969 779 969 l 197 969 q 153 951 171 969 q 135 906 135 932 l 135 63 q 153 18 135 36 q 197 0 171 0 m 313 1056 l 638 1056 q 667 1067 656 1056 q 679 1097 679 1079 q 667 1127 679 1115 q 638 1139 656 1139 l 313 1139 q 283 1127 294 1139 q 271 1097 271 1115 q 283 1067 271 1079 q 313 1056 294 1056 "},"Ḗ":{"ha":886,"x_min":135,"x_max":814,"o":"m 197 0 l 754 0 q 797 17 779 0 q 814 58 814 33 q 797 101 814 83 q 754 118 779 118 l 261 118 l 261 426 l 704 426 q 747 443 729 426 q 764 485 764 460 q 747 527 764 510 q 704 544 729 544 l 261 544 l 261 851 l 754 851 q 797 868 779 851 q 814 910 814 885 q 797 952 814 935 q 754 969 779 969 l 197 969 q 153 951 171 969 q 135 906 135 932 l 135 63 q 153 18 135 36 q 197 0 171 0 m 313 1056 l 638 1056 q 667 1067 656 1056 q 679 1097 679 1079 q 667 1127 679 1115 q 638 1139 656 1139 l 313 1139 q 283 1127 294 1139 q 271 1097 271 1115 q 283 1067 271 1079 q 313 1056 294 1056 m 475 1194 q 506 1210 493 1194 l 601 1324 q 615 1358 615 1339 q 601 1396 615 1382 q 564 1410 586 1410 q 518 1383 532 1410 l 447 1258 q 438 1232 438 1244 q 448 1205 438 1215 q 475 1194 458 1194 "},"Ḕ":{"ha":886,"x_min":135,"x_max":814,"o":"m 197 0 l 754 0 q 797 17 779 0 q 814 58 814 33 q 797 101 814 83 q 754 118 779 118 l 261 118 l 261 426 l 704 426 q 747 443 729 426 q 764 485 764 460 q 747 527 764 510 q 704 544 729 544 l 261 544 l 261 851 l 754 851 q 797 868 779 851 q 814 910 814 885 q 797 952 814 935 q 754 969 779 969 l 197 969 q 153 951 171 969 q 135 906 135 932 l 135 63 q 153 18 135 36 q 197 0 171 0 m 313 1056 l 638 1056 q 667 1067 656 1056 q 679 1097 679 1079 q 667 1127 679 1115 q 638 1139 656 1139 l 313 1139 q 283 1127 294 1139 q 271 1097 271 1115 q 283 1067 271 1079 q 313 1056 294 1056 m 475 1194 q 502 1205 492 1194 q 513 1232 513 1215 q 503 1258 513 1244 l 432 1383 q 386 1410 418 1410 q 349 1396 363 1410 q 335 1358 335 1382 q 349 1324 335 1339 l 444 1210 q 475 1194 457 1194 "},"Ę":{"ha":886,"x_min":135,"x_max":814,"o":"m 665 -282 q 785 -249 738 -282 q 800 -224 800 -237 q 792 -201 800 -210 q 769 -193 783 -193 q 757 -196 765 -193 q 708 -204 729 -204 q 638 -137 638 -204 q 682 -54 638 -92 q 775 3 726 -17 q 814 58 814 19 q 797 101 814 83 q 754 118 779 118 l 261 118 l 261 426 l 704 426 q 747 443 729 426 q 764 485 764 460 q 747 527 764 510 q 704 544 729 544 l 261 544 l 261 851 l 754 851 q 797 868 779 851 q 814 910 814 885 q 797 952 814 935 q 754 969 779 969 l 197 969 q 153 951 171 969 q 135 906 135 932 l 135 63 q 153 18 135 36 q 197 0 171 0 l 654 0 q 536 -165 536 -68 q 574 -250 536 -218 q 665 -282 613 -282 "},"Ẽ":{"ha":886,"x_min":135,"x_max":814,"o":"m 197 0 l 754 0 q 797 17 779 0 q 814 58 814 33 q 797 101 814 83 q 754 118 779 118 l 261 118 l 261 426 l 704 426 q 747 443 729 426 q 764 485 764 460 q 747 527 764 510 q 704 544 729 544 l 261 544 l 261 851 l 754 851 q 797 868 779 851 q 814 910 814 885 q 797 952 814 935 q 754 969 779 969 l 197 969 q 153 951 171 969 q 135 906 135 932 l 135 63 q 153 18 135 36 q 197 0 171 0 m 283 1032 q 315 1057 307 1032 q 369 1101 333 1101 q 415 1093 393 1101 q 469 1069 438 1085 q 531 1044 506 1053 q 583 1035 556 1035 q 667 1076 633 1035 q 700 1167 700 1118 q 690 1188 699 1179 q 668 1197 682 1197 q 633 1168 644 1197 q 615 1140 626 1150 q 582 1131 603 1131 q 534 1139 557 1131 q 479 1163 511 1147 q 420 1188 444 1179 q 368 1196 396 1196 q 307 1175 333 1196 q 266 1124 281 1154 q 251 1064 251 1093 q 261 1041 251 1050 q 283 1032 271 1032 "},"F":{"ha":844,"x_min":135,"x_max":797,"o":"m 197 -7 q 242 11 224 -7 q 261 56 261 29 l 261 426 l 689 426 q 731 443 714 426 q 749 485 749 460 q 731 527 749 510 q 689 544 714 544 l 261 544 l 261 851 l 738 851 q 780 868 763 851 q 797 910 797 885 q 780 952 797 935 q 738 969 763 969 l 197 969 q 153 951 171 969 q 135 906 135 932 l 135 56 q 153 11 135 29 q 197 -7 171 -7 "},"G":{"ha":1051,"x_min":76,"x_max":935,"o":"m 564 -14 q 882 64 726 -14 q 920 98 906 75 q 935 150 935 121 l 935 465 q 915 513 935 493 q 868 532 896 532 l 594 532 q 554 515 571 532 q 538 475 538 499 q 554 435 538 451 q 594 418 571 418 l 824 418 l 824 167 q 581 106 711 106 q 378 155 464 106 q 248 290 293 204 q 203 483 203 375 q 251 687 203 601 q 383 817 299 772 q 574 861 468 861 q 715 842 650 861 q 846 783 781 822 q 875 776 860 776 q 917 793 901 776 q 933 833 933 810 q 925 864 933 850 q 906 883 917 878 q 749 957 831 931 q 560 983 668 983 q 315 921 425 983 q 140 744 204 858 q 76 483 76 631 q 138 226 76 339 q 310 49 199 113 q 564 -14 421 -14 "},"Ğ":{"ha":1051,"x_min":76,"x_max":935,"o":"m 564 -14 q 882 64 726 -14 q 920 98 906 75 q 935 150 935 121 l 935 465 q 915 513 935 493 q 868 532 896 532 l 594 532 q 554 515 571 532 q 538 475 538 499 q 554 435 538 451 q 594 418 571 418 l 824 418 l 824 167 q 581 106 711 106 q 378 155 464 106 q 248 290 293 204 q 203 483 203 375 q 251 687 203 601 q 383 817 299 772 q 574 861 468 861 q 715 842 650 861 q 846 783 781 822 q 875 776 860 776 q 917 793 901 776 q 933 833 933 810 q 925 864 933 850 q 906 883 917 878 q 749 957 831 931 q 560 983 668 983 q 315 921 425 983 q 140 744 204 858 q 76 483 76 631 q 138 226 76 339 q 310 49 199 113 q 564 -14 421 -14 m 564 1039 q 681 1069 629 1039 q 758 1151 732 1100 q 763 1171 763 1160 q 751 1201 763 1189 q 719 1214 739 1214 q 681 1188 693 1214 q 635 1138 665 1156 q 564 1119 604 1119 q 493 1138 524 1119 q 447 1188 463 1156 q 408 1214 435 1214 q 377 1201 389 1214 q 365 1171 365 1189 q 369 1151 365 1160 q 447 1069 396 1100 q 564 1039 499 1039 "},"Ǧ":{"ha":1051,"x_min":76,"x_max":935,"o":"m 564 -14 q 882 64 726 -14 q 920 98 906 75 q 935 150 935 121 l 935 465 q 915 513 935 493 q 868 532 896 532 l 594 532 q 554 515 571 532 q 538 475 538 499 q 554 435 538 451 q 594 418 571 418 l 824 418 l 824 167 q 581 106 711 106 q 378 155 464 106 q 248 290 293 204 q 203 483 203 375 q 251 687 203 601 q 383 817 299 772 q 574 861 468 861 q 715 842 650 861 q 846 783 781 822 q 875 776 860 776 q 917 793 901 776 q 933 833 933 810 q 925 864 933 850 q 906 883 917 878 q 749 957 831 931 q 560 983 668 983 q 315 921 425 983 q 140 744 204 858 q 76 483 76 631 q 138 226 76 339 q 310 49 199 113 q 564 -14 421 -14 m 538 1026 l 590 1026 q 621 1033 608 1026 q 646 1054 633 1040 l 740 1151 q 751 1178 751 1163 q 740 1206 753 1193 q 710 1219 728 1219 q 685 1210 694 1219 l 564 1107 l 443 1210 q 418 1219 433 1219 q 388 1206 400 1219 q 376 1178 375 1193 q 388 1151 376 1163 l 482 1054 q 507 1033 494 1040 q 538 1026 519 1026 "},"Ĝ":{"ha":1051,"x_min":76,"x_max":935,"o":"m 564 -14 q 882 64 726 -14 q 920 98 906 75 q 935 150 935 121 l 935 465 q 915 513 935 493 q 868 532 896 532 l 594 532 q 554 515 571 532 q 538 475 538 499 q 554 435 538 451 q 594 418 571 418 l 824 418 l 824 167 q 581 106 711 106 q 378 155 464 106 q 248 290 293 204 q 203 483 203 375 q 251 687 203 601 q 383 817 299 772 q 574 861 468 861 q 715 842 650 861 q 846 783 781 822 q 875 776 860 776 q 917 793 901 776 q 933 833 933 810 q 925 864 933 850 q 906 883 917 878 q 749 957 831 931 q 560 983 668 983 q 315 921 425 983 q 140 744 204 858 q 76 483 76 631 q 138 226 76 339 q 310 49 199 113 q 564 -14 421 -14 m 418 1025 q 443 1035 433 1025 l 564 1138 l 685 1035 q 710 1025 694 1025 q 740 1038 728 1025 q 751 1067 753 1051 q 740 1093 751 1082 l 646 1190 q 621 1211 633 1204 q 590 1218 608 1218 l 538 1218 q 507 1211 519 1218 q 482 1190 494 1204 l 388 1093 q 376 1067 376 1082 q 388 1038 375 1051 q 418 1025 400 1025 "},"Ģ":{"ha":1051,"x_min":76,"x_max":935,"o":"m 564 -14 q 882 64 726 -14 q 920 98 906 75 q 935 150 935 121 l 935 465 q 915 513 935 493 q 868 532 896 532 l 594 532 q 554 515 571 532 q 538 475 538 499 q 554 435 538 451 q 594 418 571 418 l 824 418 l 824 167 q 581 106 711 106 q 378 155 464 106 q 248 290 293 204 q 203 483 203 375 q 251 687 203 601 q 383 817 299 772 q 574 861 468 861 q 715 842 650 861 q 846 783 781 822 q 875 776 860 776 q 917 793 901 776 q 933 833 933 810 q 925 864 933 850 q 906 883 917 878 q 749 957 831 931 q 560 983 668 983 q 315 921 425 983 q 140 744 204 858 q 76 483 76 631 q 138 226 76 339 q 310 49 199 113 q 564 -14 421 -14 m 522 -365 q 544 -358 533 -365 q 613 -298 586 -333 q 639 -208 639 -262 l 639 -162 q 619 -110 639 -131 q 569 -89 600 -89 q 520 -110 540 -89 q 500 -160 500 -131 q 519 -208 500 -189 q 568 -226 538 -226 q 553 -269 568 -251 q 508 -304 538 -286 q 492 -333 492 -315 q 501 -356 492 -347 q 522 -365 510 -365 "},"Ġ":{"ha":1051,"x_min":76,"x_max":935,"o":"m 564 -14 q 882 64 726 -14 q 920 98 906 75 q 935 150 935 121 l 935 465 q 915 513 935 493 q 868 532 896 532 l 594 532 q 554 515 571 532 q 538 475 538 499 q 554 435 538 451 q 594 418 571 418 l 824 418 l 824 167 q 581 106 711 106 q 378 155 464 106 q 248 290 293 204 q 203 483 203 375 q 251 687 203 601 q 383 817 299 772 q 574 861 468 861 q 715 842 650 861 q 846 783 781 822 q 875 776 860 776 q 917 793 901 776 q 933 833 933 810 q 925 864 933 850 q 906 883 917 878 q 749 957 831 931 q 560 983 668 983 q 315 921 425 983 q 140 744 204 858 q 76 483 76 631 q 138 226 76 339 q 310 49 199 113 q 564 -14 421 -14 m 564 1038 q 614 1058 593 1038 q 635 1108 635 1079 q 614 1158 635 1138 q 564 1179 593 1179 q 514 1158 535 1179 q 493 1108 493 1138 q 514 1058 493 1079 q 564 1038 535 1038 "},"Ḡ":{"ha":1051,"x_min":76,"x_max":935,"o":"m 564 -14 q 882 64 726 -14 q 920 98 906 75 q 935 150 935 121 l 935 465 q 915 513 935 493 q 868 532 896 532 l 594 532 q 554 515 571 532 q 538 475 538 499 q 554 435 538 451 q 594 418 571 418 l 824 418 l 824 167 q 581 106 711 106 q 378 155 464 106 q 248 290 293 204 q 203 483 203 375 q 251 687 203 601 q 383 817 299 772 q 574 861 468 861 q 715 842 650 861 q 846 783 781 822 q 875 776 860 776 q 917 793 901 776 q 933 833 933 810 q 925 864 933 850 q 906 883 917 878 q 749 957 831 931 q 560 983 668 983 q 315 921 425 983 q 140 744 204 858 q 76 483 76 631 q 138 226 76 339 q 310 49 199 113 q 564 -14 421 -14 m 401 1056 l 726 1056 q 756 1067 744 1056 q 768 1097 768 1079 q 756 1127 768 1115 q 726 1139 744 1139 l 401 1139 q 372 1127 383 1139 q 360 1097 360 1115 q 372 1067 360 1079 q 401 1056 383 1056 "},"H":{"ha":1049,"x_min":135,"x_max":914,"o":"m 197 -7 q 242 11 224 -7 q 261 56 261 29 l 261 425 l 788 425 l 788 56 q 806 11 788 29 q 850 -7 824 -7 q 895 11 876 -7 q 914 56 914 29 l 914 913 q 895 958 914 939 q 850 976 876 976 q 806 958 824 976 q 788 913 788 939 l 788 543 l 261 543 l 261 913 q 242 958 261 939 q 197 976 224 976 q 153 958 171 976 q 135 913 135 939 l 135 56 q 153 11 135 29 q 197 -7 171 -7 "},"Ħ":{"ha":1063,"x_min":31,"x_max":1032,"o":"m 204 -7 q 249 11 231 -7 q 268 56 268 29 l 268 425 l 794 425 l 794 56 q 813 11 794 29 q 857 -7 831 -7 q 902 11 883 -7 q 921 56 921 29 l 921 710 l 982 710 q 1017 724 1003 710 q 1032 758 1032 738 q 1017 794 1032 779 q 982 808 1003 808 l 921 808 l 921 913 q 902 958 921 939 q 857 976 883 976 q 813 958 831 976 q 794 913 794 939 l 794 808 l 268 808 l 268 913 q 249 958 268 939 q 204 976 231 976 q 160 958 178 976 q 142 913 142 939 l 142 808 l 79 808 q 45 794 60 808 q 31 758 31 781 q 44 724 31 738 q 79 710 58 710 l 142 710 l 142 56 q 160 11 142 29 q 204 -7 178 -7 m 268 543 l 268 710 l 794 710 l 794 543 l 268 543 "},"Ḫ":{"ha":1049,"x_min":135,"x_max":914,"o":"m 197 -7 q 242 11 224 -7 q 261 56 261 29 l 261 425 l 788 425 l 788 56 q 806 11 788 29 q 850 -7 824 -7 q 895 11 876 -7 q 914 56 914 29 l 914 913 q 895 958 914 939 q 850 976 876 976 q 806 958 824 976 q 788 913 788 939 l 788 543 l 261 543 l 261 913 q 242 958 261 939 q 197 976 224 976 q 153 958 171 976 q 135 913 135 939 l 135 56 q 153 11 135 29 q 197 -7 171 -7 m 525 -253 q 642 -222 590 -253 q 719 -140 693 -192 q 724 -121 724 -132 q 712 -90 724 -103 q 681 -78 700 -78 q 642 -104 654 -78 q 596 -154 626 -136 q 525 -172 565 -172 q 454 -154 485 -172 q 408 -104 424 -136 q 369 -78 396 -78 q 338 -90 350 -78 q 326 -121 326 -103 q 331 -140 326 -132 q 408 -222 357 -192 q 525 -253 460 -253 "},"Ĥ":{"ha":1049,"x_min":135,"x_max":914,"o":"m 197 -7 q 242 11 224 -7 q 261 56 261 29 l 261 425 l 788 425 l 788 56 q 806 11 788 29 q 850 -7 824 -7 q 895 11 876 -7 q 914 56 914 29 l 914 913 q 895 958 914 939 q 850 976 876 976 q 806 958 824 976 q 788 913 788 939 l 788 543 l 261 543 l 261 913 q 242 958 261 939 q 197 976 224 976 q 153 958 171 976 q 135 913 135 939 l 135 56 q 153 11 135 29 q 197 -7 171 -7 m 379 1025 q 404 1035 394 1025 l 525 1138 l 646 1035 q 671 1025 656 1025 q 701 1038 689 1025 q 713 1067 714 1051 q 701 1093 713 1082 l 607 1190 q 582 1211 594 1204 q 551 1218 569 1218 l 499 1218 q 468 1211 481 1218 q 443 1190 456 1204 l 349 1093 q 338 1067 338 1082 q 349 1038 336 1051 q 379 1025 361 1025 "},"Ḥ":{"ha":1049,"x_min":135,"x_max":914,"o":"m 197 -7 q 242 11 224 -7 q 261 56 261 29 l 261 425 l 788 425 l 788 56 q 806 11 788 29 q 850 -7 824 -7 q 895 11 876 -7 q 914 56 914 29 l 914 913 q 895 958 914 939 q 850 976 876 976 q 806 958 824 976 q 788 913 788 939 l 788 543 l 261 543 l 261 913 q 242 958 261 939 q 197 976 224 976 q 153 958 171 976 q 135 913 135 939 l 135 56 q 153 11 135 29 q 197 -7 171 -7 m 525 -231 q 575 -210 554 -231 q 596 -160 596 -189 q 575 -110 596 -131 q 525 -89 554 -89 q 475 -110 496 -89 q 454 -160 454 -131 q 475 -210 454 -189 q 525 -231 496 -231 "},"I":{"ha":396,"x_min":135,"x_max":261,"o":"m 197 -7 q 242 11 224 -7 q 261 56 261 29 l 261 913 q 242 958 261 939 q 197 976 224 976 q 153 958 171 976 q 135 913 135 939 l 135 56 q 153 11 135 29 q 197 -7 171 -7 "},"Í":{"ha":396,"x_min":135,"x_max":339,"o":"m 197 -7 q 242 11 224 -7 q 261 56 261 29 l 261 913 q 242 958 261 939 q 197 976 224 976 q 153 958 171 976 q 135 913 135 939 l 135 56 q 153 11 135 29 q 197 -7 171 -7 m 199 1026 q 229 1042 217 1026 l 325 1156 q 339 1190 339 1171 q 324 1228 339 1214 q 288 1242 310 1242 q 242 1215 256 1242 l 171 1090 q 161 1064 161 1076 q 172 1037 161 1047 q 199 1026 182 1026 "},"Ĭ":{"ha":396,"x_min":0,"x_max":397,"o":"m 197 -7 q 242 11 224 -7 q 261 56 261 29 l 261 913 q 242 958 261 939 q 197 976 224 976 q 153 958 171 976 q 135 913 135 939 l 135 56 q 153 11 135 29 q 197 -7 171 -7 m 199 1039 q 315 1069 264 1039 q 393 1151 367 1100 q 397 1171 397 1160 q 385 1201 397 1189 q 354 1214 374 1214 q 315 1188 328 1214 q 269 1138 300 1156 q 199 1119 239 1119 q 128 1138 158 1119 q 82 1188 97 1156 q 43 1214 69 1214 q 12 1201 24 1214 q 0 1171 0 1189 q 4 1151 0 1160 q 82 1069 31 1100 q 199 1039 133 1039 "},"Î":{"ha":396,"x_min":11,"x_max":386,"o":"m 197 -7 q 242 11 224 -7 q 261 56 261 29 l 261 913 q 242 958 261 939 q 197 976 224 976 q 153 958 171 976 q 135 913 135 939 l 135 56 q 153 11 135 29 q 197 -7 171 -7 m 53 1025 q 78 1035 68 1025 l 199 1138 l 319 1035 q 344 1025 329 1025 q 375 1038 363 1025 q 386 1067 388 1051 q 375 1093 386 1082 l 281 1190 q 256 1211 268 1204 q 225 1218 243 1218 l 172 1218 q 142 1211 154 1218 q 117 1190 129 1204 l 22 1093 q 11 1067 11 1082 q 22 1038 10 1051 q 53 1025 35 1025 "},"Ȉ":{"ha":396,"x_min":54,"x_max":446,"o":"m 197 -7 q 242 11 224 -7 q 261 56 261 29 l 261 913 q 242 958 261 939 q 197 976 224 976 q 153 958 171 976 q 135 913 135 939 l 135 56 q 153 11 135 29 q 197 -7 171 -7 m 92 1026 q 122 1042 110 1026 l 218 1156 q 232 1190 232 1171 q 217 1228 232 1214 q 181 1242 203 1242 q 135 1215 149 1242 l 64 1090 q 54 1064 54 1076 q 65 1037 54 1047 q 92 1026 75 1026 m 306 1026 q 336 1042 324 1026 l 432 1156 q 446 1190 446 1171 q 431 1228 446 1214 q 394 1242 417 1242 q 349 1215 363 1242 l 278 1090 q 268 1064 268 1076 q 278 1037 268 1047 q 306 1026 289 1026 "},"Ï":{"ha":396,"x_min":11,"x_max":386,"o":"m 197 -7 q 242 11 224 -7 q 261 56 261 29 l 261 913 q 242 958 261 939 q 197 976 224 976 q 153 958 171 976 q 135 913 135 939 l 135 56 q 153 11 135 29 q 197 -7 171 -7 m 82 1038 q 132 1058 111 1038 q 153 1108 153 1079 q 132 1158 153 1138 q 82 1179 111 1179 q 32 1158 53 1179 q 11 1108 11 1138 q 32 1058 11 1079 q 82 1038 53 1038 m 315 1038 q 365 1058 344 1038 q 386 1108 386 1079 q 365 1158 386 1138 q 315 1179 344 1179 q 265 1158 286 1179 q 244 1108 244 1138 q 265 1058 244 1079 q 315 1038 286 1038 "},"Ḯ":{"ha":396,"x_min":11,"x_max":386,"o":"m 197 -7 q 242 11 224 -7 q 261 56 261 29 l 261 913 q 242 958 261 939 q 197 976 224 976 q 153 958 171 976 q 135 913 135 939 l 135 56 q 153 11 135 29 q 197 -7 171 -7 m 82 1038 q 132 1058 111 1038 q 153 1108 153 1079 q 132 1158 153 1138 q 82 1179 111 1179 q 32 1158 53 1179 q 11 1108 11 1138 q 32 1058 11 1079 q 82 1038 53 1038 m 315 1038 q 365 1058 344 1038 q 386 1108 386 1079 q 365 1158 386 1138 q 315 1179 344 1179 q 265 1158 286 1179 q 244 1108 244 1138 q 265 1058 244 1079 q 315 1038 286 1038 m 199 1208 q 229 1224 217 1208 l 325 1338 q 339 1372 339 1353 q 324 1410 339 1396 q 288 1424 310 1424 q 242 1397 256 1424 l 171 1272 q 161 1246 161 1258 q 172 1219 161 1229 q 199 1208 182 1208 "},"İ":{"ha":396,"x_min":128,"x_max":269,"o":"m 197 -7 q 242 11 224 -7 q 261 56 261 29 l 261 913 q 242 958 261 939 q 197 976 224 976 q 153 958 171 976 q 135 913 135 939 l 135 56 q 153 11 135 29 q 197 -7 171 -7 m 199 1038 q 249 1058 228 1038 q 269 1108 269 1079 q 249 1158 269 1138 q 199 1179 228 1179 q 149 1158 169 1179 q 128 1108 128 1138 q 149 1058 128 1079 q 199 1038 169 1038 "},"Ị":{"ha":396,"x_min":128,"x_max":269,"o":"m 197 -7 q 242 11 224 -7 q 261 56 261 29 l 261 913 q 242 958 261 939 q 197 976 224 976 q 153 958 171 976 q 135 913 135 939 l 135 56 q 153 11 135 29 q 197 -7 171 -7 m 199 -231 q 249 -210 228 -231 q 269 -160 269 -189 q 249 -110 269 -131 q 199 -89 228 -89 q 149 -110 169 -89 q 128 -160 128 -131 q 149 -210 128 -189 q 199 -231 169 -231 "},"Ì":{"ha":396,"x_min":58,"x_max":261,"o":"m 197 -7 q 242 11 224 -7 q 261 56 261 29 l 261 913 q 242 958 261 939 q 197 976 224 976 q 153 958 171 976 q 135 913 135 939 l 135 56 q 153 11 135 29 q 197 -7 171 -7 m 199 1026 q 226 1037 215 1026 q 236 1064 236 1047 q 226 1090 236 1076 l 156 1215 q 110 1242 142 1242 q 72 1228 86 1242 q 58 1190 58 1214 q 72 1156 58 1171 l 168 1042 q 199 1026 181 1026 "},"Ỉ":{"ha":396,"x_min":83,"x_max":319,"o":"m 197 -7 q 242 11 224 -7 q 261 56 261 29 l 261 913 q 242 958 261 939 q 197 976 224 976 q 153 958 171 976 q 135 913 135 939 l 135 56 q 153 11 135 29 q 197 -7 171 -7 m 189 1025 q 221 1046 213 1025 q 237 1070 226 1060 q 264 1092 247 1081 q 306 1131 292 1113 q 319 1179 319 1149 q 289 1245 319 1221 q 206 1269 258 1269 q 149 1263 178 1269 q 99 1242 121 1256 q 83 1215 83 1232 q 92 1195 83 1204 q 113 1186 100 1186 q 144 1199 118 1186 q 206 1211 171 1211 q 241 1203 228 1211 q 254 1178 254 1194 q 243 1151 254 1163 q 211 1126 232 1140 q 170 1093 183 1108 q 157 1054 157 1078 q 167 1033 157 1040 q 189 1025 176 1025 "},"Ȋ":{"ha":396,"x_min":0,"x_max":397,"o":"m 197 -7 q 242 11 224 -7 q 261 56 261 29 l 261 913 q 242 958 261 939 q 197 976 224 976 q 153 958 171 976 q 135 913 135 939 l 135 56 q 153 11 135 29 q 197 -7 171 -7 m 43 1026 q 82 1053 69 1026 q 128 1103 97 1085 q 199 1121 158 1121 q 269 1103 239 1121 q 315 1053 300 1085 q 354 1026 328 1026 q 385 1039 374 1026 q 397 1069 397 1051 q 393 1089 397 1081 q 315 1171 367 1140 q 199 1201 264 1201 q 82 1171 133 1201 q 4 1089 31 1140 q 0 1069 0 1081 q 12 1039 0 1051 q 43 1026 24 1026 "},"Ī":{"ha":396,"x_min":-6,"x_max":403,"o":"m 197 -7 q 242 11 224 -7 q 261 56 261 29 l 261 913 q 242 958 261 939 q 197 976 224 976 q 153 958 171 976 q 135 913 135 939 l 135 56 q 153 11 135 29 q 197 -7 171 -7 m 36 1056 l 361 1056 q 391 1067 379 1056 q 403 1097 403 1079 q 391 1127 403 1115 q 361 1139 379 1139 l 36 1139 q 6 1127 18 1139 q -6 1097 -6 1115 q 6 1067 -6 1079 q 36 1056 18 1056 "},"Į":{"ha":396,"x_min":64,"x_max":328,"o":"m 207 -282 q 313 -249 265 -282 q 328 -224 328 -237 q 319 -201 328 -210 q 297 -193 311 -193 q 285 -196 293 -193 q 236 -204 257 -204 q 183 -185 201 -204 q 165 -135 165 -167 q 182 -67 165 -94 q 226 -7 199 -39 q 244 14 240 7 q 258 40 254 28 q 261 69 261 51 l 261 913 q 242 958 261 939 q 197 976 224 976 q 153 958 171 976 q 135 913 135 939 l 135 56 q 161 6 135 24 q 90 -64 117 -24 q 64 -151 64 -104 q 104 -247 64 -211 q 207 -282 144 -282 "},"Ĩ":{"ha":396,"x_min":-25,"x_max":424,"o":"m 197 -7 q 242 11 224 -7 q 261 56 261 29 l 261 913 q 242 958 261 939 q 197 976 224 976 q 153 958 171 976 q 135 913 135 939 l 135 56 q 153 11 135 29 q 197 -7 171 -7 m 7 1032 q 39 1057 31 1032 q 93 1101 57 1101 q 139 1093 117 1101 q 193 1069 161 1085 q 254 1044 229 1053 q 307 1035 279 1035 q 390 1076 357 1035 q 424 1167 424 1118 q 414 1188 422 1179 q 392 1197 406 1197 q 357 1168 368 1197 q 338 1140 350 1150 q 306 1131 326 1131 q 258 1139 281 1131 q 203 1163 235 1147 q 144 1188 168 1179 q 92 1196 119 1196 q 31 1175 57 1196 q -10 1124 4 1154 q -25 1064 -25 1093 q -15 1041 -25 1050 q 7 1032 -6 1032 "},"J":{"ha":647,"x_min":18,"x_max":519,"o":"m 233 -14 q 438 62 357 -14 q 519 319 519 138 l 519 913 q 501 958 519 939 q 456 976 482 976 q 411 958 429 976 q 393 913 393 939 l 393 311 q 347 149 393 192 q 225 106 300 106 q 96 136 160 106 q 71 142 85 142 q 33 124 47 142 q 18 85 18 107 q 49 33 18 51 q 233 -14 132 -14 "},"Ĵ":{"ha":647,"x_min":18,"x_max":643,"o":"m 233 -14 q 438 62 357 -14 q 519 319 519 138 l 519 913 q 501 958 519 939 q 456 976 482 976 q 411 958 429 976 q 393 913 393 939 l 393 311 q 347 149 393 192 q 225 106 300 106 q 96 136 160 106 q 71 142 85 142 q 33 124 47 142 q 18 85 18 107 q 49 33 18 51 q 233 -14 132 -14 m 310 1025 q 335 1035 325 1025 l 456 1138 l 576 1035 q 601 1025 586 1025 q 632 1038 619 1025 q 643 1067 644 1051 q 632 1093 643 1082 l 538 1190 q 513 1211 525 1204 q 482 1218 500 1218 l 429 1218 q 399 1211 411 1218 q 374 1190 386 1204 l 279 1093 q 268 1067 268 1082 q 279 1038 267 1051 q 310 1025 292 1025 "},"K":{"ha":931,"x_min":135,"x_max":890,"o":"m 197 -7 q 242 11 224 -7 q 261 56 261 29 l 261 315 l 419 475 l 778 18 q 828 -7 796 -7 q 872 11 854 -7 q 889 54 890 29 q 874 94 889 75 l 506 558 l 826 878 q 842 921 842 893 q 824 960 842 944 q 783 976 807 976 q 736 954 756 976 l 261 471 l 261 913 q 242 958 261 939 q 197 976 224 976 q 153 958 171 976 q 135 913 135 939 l 135 56 q 153 11 135 29 q 197 -7 171 -7 "},"Ķ":{"ha":931,"x_min":135,"x_max":889,"o":"m 197 -7 q 242 11 224 -7 q 261 56 261 29 l 261 315 l 419 475 l 778 18 q 828 -7 796 -7 q 872 11 854 -7 q 889 54 890 29 q 874 94 889 75 l 506 558 l 826 878 q 842 921 842 893 q 824 960 842 944 q 783 976 807 976 q 736 954 756 976 l 261 471 l 261 913 q 242 958 261 939 q 197 976 224 976 q 153 958 171 976 q 135 913 135 939 l 135 56 q 153 11 135 29 q 197 -7 171 -7 m 424 -365 q 446 -358 435 -365 q 514 -298 488 -333 q 540 -208 540 -262 l 540 -162 q 521 -110 540 -131 q 471 -89 501 -89 q 422 -110 442 -89 q 401 -160 401 -131 q 420 -208 401 -189 q 469 -226 439 -226 q 454 -269 469 -251 q 410 -304 439 -286 q 393 -333 393 -315 q 402 -356 393 -347 q 424 -365 411 -365 "},"L":{"ha":800,"x_min":135,"x_max":779,"o":"m 222 0 l 715 0 q 760 18 742 0 q 779 63 779 36 q 760 108 779 89 q 715 126 742 126 l 261 126 l 261 913 q 242 958 261 939 q 197 976 224 976 q 153 958 171 976 q 135 913 135 939 l 135 88 q 160 26 135 51 q 222 0 186 0 "},"Ǉ":{"ha":1447,"x_min":135,"x_max":1319,"o":"m 222 0 l 715 0 q 760 18 742 0 q 779 63 779 36 q 760 108 779 89 q 715 126 742 126 l 261 126 l 261 913 q 242 958 261 939 q 197 976 224 976 q 153 958 171 976 q 135 913 135 939 l 135 88 q 160 26 135 51 q 222 0 186 0 m 1033 -14 q 1238 62 1157 -14 q 1319 319 1319 138 l 1319 913 q 1301 958 1319 939 q 1256 976 1282 976 q 1211 958 1229 976 q 1193 913 1193 939 l 1193 311 q 1147 149 1193 192 q 1025 106 1100 106 q 896 136 960 106 q 871 142 885 142 q 833 124 847 142 q 818 85 818 107 q 849 33 818 51 q 1033 -14 932 -14 "},"Ĺ":{"ha":800,"x_min":135,"x_max":779,"o":"m 222 0 l 715 0 q 760 18 742 0 q 779 63 779 36 q 760 108 779 89 q 715 126 742 126 l 261 126 l 261 913 q 242 958 261 939 q 197 976 224 976 q 153 958 171 976 q 135 913 135 939 l 135 88 q 160 26 135 51 q 222 0 186 0 m 197 1026 q 228 1042 215 1026 l 324 1156 q 338 1190 338 1171 q 323 1228 338 1214 q 286 1242 308 1242 q 240 1215 254 1242 l 169 1090 q 160 1064 160 1076 q 170 1037 160 1047 q 197 1026 181 1026 "},"Ľ":{"ha":800,"x_min":135,"x_max":779,"o":"m 222 0 l 715 0 q 760 18 742 0 q 779 63 779 36 q 760 108 779 89 q 715 126 742 126 l 261 126 l 261 913 q 242 958 261 939 q 197 976 224 976 q 153 958 171 976 q 135 913 135 939 l 135 88 q 160 26 135 51 q 222 0 186 0 m 450 675 q 476 685 467 675 q 510 718 485 693 q 554 771 536 743 q 572 842 572 799 l 572 893 q 551 951 572 928 q 496 974 529 974 q 440 951 463 974 q 418 894 418 928 q 440 842 418 863 q 494 822 461 822 q 481 779 494 796 q 439 743 467 763 q 424 728 429 735 q 418 711 418 721 q 428 685 418 694 q 450 675 438 675 "},"Ļ":{"ha":800,"x_min":135,"x_max":779,"o":"m 222 0 l 715 0 q 760 18 742 0 q 779 63 779 36 q 760 108 779 89 q 715 126 742 126 l 261 126 l 261 913 q 242 958 261 939 q 197 976 224 976 q 153 958 171 976 q 135 913 135 939 l 135 88 q 160 26 135 51 q 222 0 186 0 m 415 -365 q 438 -358 426 -365 q 506 -298 479 -333 q 532 -208 532 -262 l 532 -162 q 513 -110 532 -131 q 463 -89 493 -89 q 413 -110 433 -89 q 393 -160 393 -131 q 412 -208 393 -189 q 461 -226 431 -226 q 446 -269 461 -251 q 401 -304 431 -286 q 385 -333 385 -315 q 394 -356 385 -347 q 415 -365 403 -365 "},"Ŀ":{"ha":800,"x_min":135,"x_max":779,"o":"m 222 0 l 715 0 q 760 18 742 0 q 779 63 779 36 q 760 108 779 89 q 715 126 742 126 l 261 126 l 261 913 q 242 958 261 939 q 197 976 224 976 q 153 958 171 976 q 135 913 135 939 l 135 88 q 160 26 135 51 q 222 0 186 0 m 579 467 l 593 467 q 648 490 625 467 q 671 544 671 513 l 671 553 q 648 608 671 585 q 593 631 625 631 l 579 631 q 524 608 547 631 q 501 553 501 585 l 501 544 q 524 490 501 513 q 579 467 547 467 "},"Ḷ":{"ha":800,"x_min":135,"x_max":779,"o":"m 222 0 l 715 0 q 760 18 742 0 q 779 63 779 36 q 760 108 779 89 q 715 126 742 126 l 261 126 l 261 913 q 242 958 261 939 q 197 976 224 976 q 153 958 171 976 q 135 913 135 939 l 135 88 q 160 26 135 51 q 222 0 186 0 m 457 -231 q 507 -210 486 -231 q 528 -160 528 -189 q 507 -110 528 -131 q 457 -89 486 -89 q 407 -110 428 -89 q 386 -160 386 -131 q 407 -210 386 -189 q 457 -231 428 -231 "},"ǈ":{"ha":1153,"x_min":135,"x_max":1056,"o":"m 222 0 l 715 0 q 760 18 742 0 q 779 63 779 36 q 760 108 779 89 q 715 126 742 126 l 261 126 l 261 913 q 242 958 261 939 q 197 976 224 976 q 153 958 171 976 q 135 913 135 939 l 135 88 q 160 26 135 51 q 222 0 186 0 m 976 853 l 985 853 q 1035 874 1014 853 q 1056 924 1056 894 l 1056 929 q 1035 979 1056 958 q 985 1000 1014 1000 l 976 1000 q 926 979 947 1000 q 906 929 906 958 l 906 924 q 926 874 906 894 q 976 853 947 853 m 861 -333 q 999 -281 956 -333 q 1043 -143 1043 -229 l 1043 650 q 1025 696 1043 678 q 979 714 1007 714 q 935 695 953 714 q 917 650 917 676 l 917 -140 q 896 -207 917 -192 q 832 -222 875 -222 q 811 -220 824 -222 q 790 -218 799 -218 q 753 -234 768 -218 q 738 -271 738 -250 q 747 -302 738 -289 q 774 -321 757 -315 q 861 -333 811 -333 "},"Ḻ":{"ha":800,"x_min":135,"x_max":779,"o":"m 222 0 l 715 0 q 760 18 742 0 q 779 63 779 36 q 760 108 779 89 q 715 126 742 126 l 261 126 l 261 913 q 242 958 261 939 q 197 976 224 976 q 153 958 171 976 q 135 913 135 939 l 135 88 q 160 26 135 51 q 222 0 186 0 m 294 -190 l 619 -190 q 649 -178 638 -190 q 661 -149 661 -167 q 649 -119 661 -131 q 619 -107 638 -107 l 294 -107 q 265 -119 276 -107 q 253 -149 253 -131 q 265 -178 253 -167 q 294 -190 276 -190 "},"Ł":{"ha":807,"x_min":29,"x_max":786,"o":"m 229 0 l 722 0 q 767 18 749 0 q 786 63 786 36 q 767 108 786 89 q 722 126 749 126 l 268 126 l 268 546 l 418 696 q 438 736 438 715 q 423 770 438 756 q 389 785 408 785 q 351 768 368 785 l 268 685 l 268 913 q 249 958 268 939 q 204 976 231 976 q 160 958 178 976 q 142 913 142 939 l 142 557 l 49 464 q 29 422 29 444 q 43 390 29 403 q 76 376 57 376 q 118 396 99 376 l 142 419 l 142 88 q 167 26 142 51 q 229 0 193 0 "},"M":{"ha":1342,"x_min":135,"x_max":1207,"o":"m 197 -7 q 242 11 224 -7 q 261 56 261 29 l 261 844 l 582 51 q 617 9 593 25 q 671 -7 642 -7 q 724 9 700 -7 q 760 51 749 25 l 1081 844 l 1081 56 q 1099 11 1081 29 q 1144 -7 1118 -7 q 1189 11 1171 -7 q 1207 56 1207 29 l 1207 885 q 1181 949 1207 922 q 1117 976 1154 976 l 1071 976 q 1020 960 1043 976 q 986 918 997 943 l 671 132 l 356 918 q 322 960 344 943 q 271 976 299 976 l 225 976 q 161 949 188 976 q 135 885 135 922 l 135 56 q 153 11 135 29 q 197 -7 171 -7 "},"Ṃ":{"ha":1342,"x_min":135,"x_max":1207,"o":"m 197 -7 q 242 11 224 -7 q 261 56 261 29 l 261 844 l 582 51 q 617 9 593 25 q 671 -7 642 -7 q 724 9 700 -7 q 760 51 749 25 l 1081 844 l 1081 56 q 1099 11 1081 29 q 1144 -7 1118 -7 q 1189 11 1171 -7 q 1207 56 1207 29 l 1207 885 q 1181 949 1207 922 q 1117 976 1154 976 l 1071 976 q 1020 960 1043 976 q 986 918 997 943 l 671 132 l 356 918 q 322 960 344 943 q 271 976 299 976 l 225 976 q 161 949 188 976 q 135 885 135 922 l 135 56 q 153 11 135 29 q 197 -7 171 -7 m 671 -231 q 721 -210 700 -231 q 742 -160 742 -189 q 721 -110 742 -131 q 671 -89 700 -89 q 621 -110 642 -89 q 600 -160 600 -131 q 621 -210 600 -189 q 671 -231 642 -231 "},"N":{"ha":1115,"x_min":135,"x_max":981,"o":"m 197 -7 q 242 11 224 -7 q 261 56 261 29 l 261 807 l 799 31 q 831 3 811 14 q 872 -7 850 -7 l 889 -7 q 953 19 926 -7 q 981 83 981 46 l 981 913 q 962 958 981 939 q 917 976 943 976 q 872 958 890 976 q 854 913 854 939 l 854 163 l 319 935 q 243 976 288 976 l 225 976 q 161 949 188 976 q 135 885 135 922 l 135 56 q 153 11 135 29 q 197 -7 171 -7 "},"Ǌ":{"ha":1763,"x_min":135,"x_max":1635,"o":"m 197 -7 q 242 11 224 -7 q 261 56 261 29 l 261 807 l 799 31 q 831 3 811 14 q 872 -7 850 -7 l 889 -7 q 953 19 926 -7 q 981 83 981 46 l 981 913 q 962 958 981 939 q 917 976 943 976 q 872 958 890 976 q 854 913 854 939 l 854 163 l 319 935 q 243 976 288 976 l 225 976 q 161 949 188 976 q 135 885 135 922 l 135 56 q 153 11 135 29 q 197 -7 171 -7 m 1349 -14 q 1553 62 1472 -14 q 1635 319 1635 138 l 1635 913 q 1616 958 1635 939 q 1571 976 1597 976 q 1526 958 1544 976 q 1508 913 1508 939 l 1508 311 q 1462 149 1508 192 q 1340 106 1415 106 q 1211 136 1275 106 q 1186 142 1200 142 q 1148 124 1163 142 q 1133 85 1133 107 q 1164 33 1133 51 q 1349 -14 1247 -14 "},"Ń":{"ha":1115,"x_min":135,"x_max":981,"o":"m 197 -7 q 242 11 224 -7 q 261 56 261 29 l 261 807 l 799 31 q 831 3 811 14 q 872 -7 850 -7 l 889 -7 q 953 19 926 -7 q 981 83 981 46 l 981 913 q 962 958 981 939 q 917 976 943 976 q 872 958 890 976 q 854 913 854 939 l 854 163 l 319 935 q 243 976 288 976 l 225 976 q 161 949 188 976 q 135 885 135 922 l 135 56 q 153 11 135 29 q 197 -7 171 -7 m 558 1026 q 589 1042 576 1026 l 685 1156 q 699 1190 699 1171 q 684 1228 699 1214 q 647 1242 669 1242 q 601 1215 615 1242 l 531 1090 q 521 1064 521 1076 q 531 1037 521 1047 q 558 1026 542 1026 "},"Ň":{"ha":1115,"x_min":135,"x_max":981,"o":"m 197 -7 q 242 11 224 -7 q 261 56 261 29 l 261 807 l 799 31 q 831 3 811 14 q 872 -7 850 -7 l 889 -7 q 953 19 926 -7 q 981 83 981 46 l 981 913 q 962 958 981 939 q 917 976 943 976 q 872 958 890 976 q 854 913 854 939 l 854 163 l 319 935 q 243 976 288 976 l 225 976 q 161 949 188 976 q 135 885 135 922 l 135 56 q 153 11 135 29 q 197 -7 171 -7 m 532 1026 l 585 1026 q 615 1033 603 1026 q 640 1054 628 1040 l 735 1151 q 746 1178 746 1163 q 735 1206 747 1193 q 704 1219 722 1219 q 679 1210 689 1219 l 558 1107 l 438 1210 q 413 1219 428 1219 q 382 1206 394 1219 q 371 1178 369 1193 q 382 1151 371 1163 l 476 1054 q 501 1033 489 1040 q 532 1026 514 1026 "},"Ņ":{"ha":1115,"x_min":135,"x_max":981,"o":"m 197 -7 q 242 11 224 -7 q 261 56 261 29 l 261 807 l 799 31 q 831 3 811 14 q 872 -7 850 -7 l 889 -7 q 953 19 926 -7 q 981 83 981 46 l 981 913 q 962 958 981 939 q 917 976 943 976 q 872 958 890 976 q 854 913 854 939 l 854 163 l 319 935 q 243 976 288 976 l 225 976 q 161 949 188 976 q 135 885 135 922 l 135 56 q 153 11 135 29 q 197 -7 171 -7 m 517 -365 q 539 -358 528 -365 q 607 -298 581 -333 q 633 -208 633 -262 l 633 -162 q 614 -110 633 -131 q 564 -89 594 -89 q 515 -110 535 -89 q 494 -160 494 -131 q 513 -208 494 -189 q 563 -226 532 -226 q 547 -269 563 -251 q 503 -304 532 -286 q 486 -333 486 -315 q 495 -356 486 -347 q 517 -365 504 -365 "},"Ṅ":{"ha":1115,"x_min":135,"x_max":981,"o":"m 197 -7 q 242 11 224 -7 q 261 56 261 29 l 261 807 l 799 31 q 831 3 811 14 q 872 -7 850 -7 l 889 -7 q 953 19 926 -7 q 981 83 981 46 l 981 913 q 962 958 981 939 q 917 976 943 976 q 872 958 890 976 q 854 913 854 939 l 854 163 l 319 935 q 243 976 288 976 l 225 976 q 161 949 188 976 q 135 885 135 922 l 135 56 q 153 11 135 29 q 197 -7 171 -7 m 558 1038 q 608 1058 588 1038 q 629 1108 629 1079 q 608 1158 629 1138 q 558 1179 588 1179 q 508 1158 529 1179 q 488 1108 488 1138 q 508 1058 488 1079 q 558 1038 529 1038 "},"Ṇ":{"ha":1115,"x_min":135,"x_max":981,"o":"m 197 -7 q 242 11 224 -7 q 261 56 261 29 l 261 807 l 799 31 q 831 3 811 14 q 872 -7 850 -7 l 889 -7 q 953 19 926 -7 q 981 83 981 46 l 981 913 q 962 958 981 939 q 917 976 943 976 q 872 958 890 976 q 854 913 854 939 l 854 163 l 319 935 q 243 976 288 976 l 225 976 q 161 949 188 976 q 135 885 135 922 l 135 56 q 153 11 135 29 q 197 -7 171 -7 m 558 -231 q 608 -210 588 -231 q 629 -160 629 -189 q 608 -110 629 -131 q 558 -89 588 -89 q 508 -110 529 -89 q 488 -160 488 -131 q 508 -210 488 -189 q 558 -231 529 -231 "},"Ŋ":{"ha":1115,"x_min":135,"x_max":981,"o":"m 799 -333 q 937 -274 893 -333 q 981 -115 981 -214 l 981 913 q 962 958 981 939 q 917 976 943 976 q 872 958 890 976 q 854 913 854 939 l 854 190 l 319 935 q 243 976 288 976 l 225 976 q 161 949 188 976 q 135 885 135 922 l 135 56 q 153 11 135 29 q 197 -7 171 -7 q 242 11 224 -7 q 261 56 261 29 l 261 807 l 854 -22 l 854 -112 q 832 -199 854 -175 q 769 -222 810 -222 q 749 -220 761 -222 q 728 -218 736 -218 q 690 -234 706 -218 q 675 -271 675 -250 q 685 -302 675 -289 q 711 -321 694 -315 q 799 -333 749 -333 "},"ǋ":{"ha":1454,"x_min":135,"x_max":1357,"o":"m 197 -7 q 242 11 224 -7 q 261 56 261 29 l 261 807 l 799 31 q 831 3 811 14 q 872 -7 850 -7 l 889 -7 q 953 19 926 -7 q 981 83 981 46 l 981 913 q 962 958 981 939 q 917 976 943 976 q 872 958 890 976 q 854 913 854 939 l 854 163 l 319 935 q 243 976 288 976 l 225 976 q 161 949 188 976 q 135 885 135 922 l 135 56 q 153 11 135 29 q 197 -7 171 -7 m 1278 853 l 1286 853 q 1336 874 1315 853 q 1357 924 1357 894 l 1357 929 q 1336 979 1357 958 q 1286 1000 1315 1000 l 1278 1000 q 1228 979 1249 1000 q 1207 929 1207 958 l 1207 924 q 1228 874 1207 894 q 1278 853 1249 853 m 1163 -333 q 1301 -281 1257 -333 q 1344 -143 1344 -229 l 1344 650 q 1326 696 1344 678 q 1281 714 1308 714 q 1236 695 1254 714 q 1218 650 1218 676 l 1218 -140 q 1197 -207 1218 -192 q 1133 -222 1176 -222 q 1113 -220 1125 -222 q 1092 -218 1100 -218 q 1054 -234 1069 -218 q 1039 -271 1039 -250 q 1049 -302 1039 -289 q 1075 -321 1058 -315 q 1163 -333 1113 -333 "},"Ṉ":{"ha":1115,"x_min":135,"x_max":981,"o":"m 197 -7 q 242 11 224 -7 q 261 56 261 29 l 261 807 l 799 31 q 831 3 811 14 q 872 -7 850 -7 l 889 -7 q 953 19 926 -7 q 981 83 981 46 l 981 913 q 962 958 981 939 q 917 976 943 976 q 872 958 890 976 q 854 913 854 939 l 854 163 l 319 935 q 243 976 288 976 l 225 976 q 161 949 188 976 q 135 885 135 922 l 135 56 q 153 11 135 29 q 197 -7 171 -7 m 396 -190 l 721 -190 q 751 -178 739 -190 q 763 -149 763 -167 q 751 -119 763 -131 q 721 -107 739 -107 l 396 -107 q 366 -119 378 -107 q 354 -149 354 -131 q 366 -178 354 -167 q 396 -190 378 -190 "},"Ñ":{"ha":1115,"x_min":135,"x_max":981,"o":"m 197 -7 q 242 11 224 -7 q 261 56 261 29 l 261 807 l 799 31 q 831 3 811 14 q 872 -7 850 -7 l 889 -7 q 953 19 926 -7 q 981 83 981 46 l 981 913 q 962 958 981 939 q 917 976 943 976 q 872 958 890 976 q 854 913 854 939 l 854 163 l 319 935 q 243 976 288 976 l 225 976 q 161 949 188 976 q 135 885 135 922 l 135 56 q 153 11 135 29 q 197 -7 171 -7 m 367 1032 q 399 1057 390 1032 q 453 1101 417 1101 q 499 1093 476 1101 q 553 1069 521 1085 q 614 1044 589 1053 q 667 1035 639 1035 q 750 1076 717 1035 q 783 1167 783 1118 q 774 1188 782 1179 q 751 1197 765 1197 q 717 1168 728 1197 q 698 1140 710 1150 q 665 1131 686 1131 q 617 1139 640 1131 q 563 1163 594 1147 q 503 1188 528 1179 q 451 1196 479 1196 q 390 1175 417 1196 q 349 1124 364 1154 q 335 1064 335 1093 q 344 1041 335 1050 q 367 1032 354 1032 "},"O":{"ha":1128,"x_min":76,"x_max":1051,"o":"m 564 -14 q 819 50 710 -14 q 988 227 928 114 q 1051 485 1049 340 q 988 742 1049 629 q 819 919 928 856 q 564 983 710 983 q 308 919 418 983 q 139 743 199 856 q 76 485 79 631 q 139 226 79 339 q 308 50 199 114 q 564 -14 418 -14 m 564 104 q 370 154 451 104 q 246 290 289 204 q 203 485 203 376 q 246 679 203 593 q 370 815 289 765 q 564 865 451 865 q 757 815 675 865 q 882 679 839 765 q 925 485 925 593 q 882 290 925 376 q 757 154 839 204 q 564 104 675 104 "},"Ó":{"ha":1128,"x_min":76,"x_max":1051,"o":"m 564 -14 q 819 50 710 -14 q 988 227 928 114 q 1051 485 1049 340 q 988 742 1049 629 q 819 919 928 856 q 564 983 710 983 q 308 919 418 983 q 139 743 199 856 q 76 485 79 631 q 139 226 79 339 q 308 50 199 114 q 564 -14 418 -14 m 564 104 q 370 154 451 104 q 246 290 289 204 q 203 485 203 376 q 246 679 203 593 q 370 815 289 765 q 564 865 451 865 q 757 815 675 865 q 882 679 839 765 q 925 485 925 593 q 882 290 925 376 q 757 154 839 204 q 564 104 675 104 m 564 1026 q 594 1042 582 1026 l 690 1156 q 704 1190 704 1171 q 690 1228 704 1214 q 653 1242 675 1242 q 607 1215 621 1242 l 536 1090 q 526 1064 526 1076 q 537 1037 526 1047 q 564 1026 547 1026 "},"Ŏ":{"ha":1128,"x_min":76,"x_max":1051,"o":"m 564 -14 q 819 50 710 -14 q 988 227 928 114 q 1051 485 1049 340 q 988 742 1049 629 q 819 919 928 856 q 564 983 710 983 q 308 919 418 983 q 139 743 199 856 q 76 485 79 631 q 139 226 79 339 q 308 50 199 114 q 564 -14 418 -14 m 564 104 q 370 154 451 104 q 246 290 289 204 q 203 485 203 376 q 246 679 203 593 q 370 815 289 765 q 564 865 451 865 q 757 815 675 865 q 882 679 839 765 q 925 485 925 593 q 882 290 925 376 q 757 154 839 204 q 564 104 675 104 m 564 1039 q 681 1069 629 1039 q 758 1151 732 1100 q 763 1171 763 1160 q 751 1201 763 1189 q 719 1214 739 1214 q 681 1188 693 1214 q 635 1138 665 1156 q 564 1119 604 1119 q 493 1138 524 1119 q 447 1188 463 1156 q 408 1214 435 1214 q 377 1201 389 1214 q 365 1171 365 1189 q 369 1151 365 1160 q 447 1069 396 1100 q 564 1039 499 1039 "},"Ô":{"ha":1128,"x_min":76,"x_max":1051,"o":"m 564 -14 q 819 50 710 -14 q 988 227 928 114 q 1051 485 1049 340 q 988 742 1049 629 q 819 919 928 856 q 564 983 710 983 q 308 919 418 983 q 139 743 199 856 q 76 485 79 631 q 139 226 79 339 q 308 50 199 114 q 564 -14 418 -14 m 564 104 q 370 154 451 104 q 246 290 289 204 q 203 485 203 376 q 246 679 203 593 q 370 815 289 765 q 564 865 451 865 q 757 815 675 865 q 882 679 839 765 q 925 485 925 593 q 882 290 925 376 q 757 154 839 204 q 564 104 675 104 m 418 1025 q 443 1035 433 1025 l 564 1138 l 685 1035 q 710 1025 694 1025 q 740 1038 728 1025 q 751 1067 753 1051 q 740 1093 751 1082 l 646 1190 q 621 1211 633 1204 q 590 1218 608 1218 l 538 1218 q 507 1211 519 1218 q 482 1190 494 1204 l 388 1093 q 376 1067 376 1082 q 388 1038 375 1051 q 418 1025 400 1025 "},"Ố":{"ha":1128,"x_min":76,"x_max":1051,"o":"m 564 -14 q 819 50 710 -14 q 988 227 928 114 q 1051 485 1049 340 q 988 742 1049 629 q 819 919 928 856 q 564 983 710 983 q 308 919 418 983 q 139 743 199 856 q 76 485 79 631 q 139 226 79 339 q 308 50 199 114 q 564 -14 418 -14 m 564 104 q 370 154 451 104 q 246 290 289 204 q 203 485 203 376 q 246 679 203 593 q 370 815 289 765 q 564 865 451 865 q 757 815 675 865 q 882 679 839 765 q 925 485 925 593 q 882 290 925 376 q 757 154 839 204 q 564 104 675 104 m 708 1161 q 739 1175 725 1161 l 810 1251 q 828 1290 828 1269 q 814 1322 828 1310 q 781 1335 800 1335 q 736 1301 756 1335 l 686 1217 q 679 1189 679 1203 q 688 1169 679 1178 q 708 1161 696 1161 m 418 1025 q 443 1033 432 1025 l 564 1129 l 685 1033 q 710 1025 696 1025 q 740 1037 726 1025 q 751 1063 753 1049 q 740 1088 751 1076 l 646 1168 q 619 1187 631 1181 q 590 1193 608 1193 l 538 1193 q 508 1187 519 1193 q 482 1168 497 1181 l 388 1088 q 376 1063 376 1076 q 388 1037 375 1049 q 418 1025 401 1025 "},"Ộ":{"ha":1128,"x_min":76,"x_max":1051,"o":"m 564 -14 q 819 50 710 -14 q 988 227 928 114 q 1051 485 1049 340 q 988 742 1049 629 q 819 919 928 856 q 564 983 710 983 q 308 919 418 983 q 139 743 199 856 q 76 485 79 631 q 139 226 79 339 q 308 50 199 114 q 564 -14 418 -14 m 564 104 q 370 154 451 104 q 246 290 289 204 q 203 485 203 376 q 246 679 203 593 q 370 815 289 765 q 564 865 451 865 q 757 815 675 865 q 882 679 839 765 q 925 485 925 593 q 882 290 925 376 q 757 154 839 204 q 564 104 675 104 m 564 -231 q 614 -210 593 -231 q 635 -160 635 -189 q 614 -110 635 -131 q 564 -89 593 -89 q 514 -110 535 -89 q 493 -160 493 -131 q 514 -210 493 -189 q 564 -231 535 -231 m 418 1025 q 443 1035 433 1025 l 564 1138 l 685 1035 q 710 1025 694 1025 q 740 1038 728 1025 q 751 1067 753 1051 q 740 1093 751 1082 l 646 1190 q 621 1211 633 1204 q 590 1218 608 1218 l 538 1218 q 507 1211 519 1218 q 482 1190 494 1204 l 388 1093 q 376 1067 376 1082 q 388 1038 375 1051 q 418 1025 400 1025 "},"Ồ":{"ha":1128,"x_min":76,"x_max":1051,"o":"m 564 -14 q 819 50 710 -14 q 988 227 928 114 q 1051 485 1049 340 q 988 742 1049 629 q 819 919 928 856 q 564 983 710 983 q 308 919 418 983 q 139 743 199 856 q 76 485 79 631 q 139 226 79 339 q 308 50 199 114 q 564 -14 418 -14 m 564 104 q 370 154 451 104 q 246 290 289 204 q 203 485 203 376 q 246 679 203 593 q 370 815 289 765 q 564 865 451 865 q 757 815 675 865 q 882 679 839 765 q 925 485 925 593 q 882 290 925 376 q 757 154 839 204 q 564 104 675 104 m 715 1161 q 736 1169 728 1161 q 744 1189 744 1178 q 738 1217 744 1203 l 688 1301 q 643 1335 668 1335 q 610 1322 624 1335 q 596 1290 596 1310 q 614 1251 596 1269 l 685 1175 q 715 1161 699 1161 m 418 1025 q 443 1033 432 1025 l 564 1129 l 685 1033 q 710 1025 696 1025 q 740 1037 726 1025 q 751 1063 753 1049 q 740 1088 751 1076 l 646 1168 q 619 1187 631 1181 q 590 1193 608 1193 l 538 1193 q 508 1187 519 1193 q 482 1168 497 1181 l 388 1088 q 376 1063 376 1076 q 388 1037 375 1049 q 418 1025 401 1025 "},"Ổ":{"ha":1128,"x_min":76,"x_max":1051,"o":"m 564 -14 q 819 50 710 -14 q 988 227 928 114 q 1051 485 1049 340 q 988 742 1049 629 q 819 919 928 856 q 564 983 710 983 q 308 919 418 983 q 139 743 199 856 q 76 485 79 631 q 139 226 79 339 q 308 50 199 114 q 564 -14 418 -14 m 564 104 q 370 154 451 104 q 246 290 289 204 q 203 485 203 376 q 246 679 203 593 q 370 815 289 765 q 564 865 451 865 q 757 815 675 865 q 882 679 839 765 q 925 485 925 593 q 882 290 925 376 q 757 154 839 204 q 564 104 675 104 m 708 1165 q 743 1185 735 1165 q 757 1204 747 1196 q 783 1224 767 1213 q 824 1256 810 1240 q 838 1300 838 1272 q 726 1383 838 1383 q 675 1378 697 1383 q 632 1360 653 1374 q 617 1332 617 1350 q 625 1313 617 1321 q 646 1304 633 1304 q 676 1314 653 1304 q 725 1324 700 1324 q 768 1299 768 1324 q 763 1287 768 1293 q 747 1274 758 1281 q 733 1264 736 1267 q 691 1233 706 1247 q 676 1197 676 1218 q 686 1174 676 1182 q 708 1165 696 1165 m 418 1025 q 443 1033 432 1025 l 564 1129 l 685 1033 q 710 1025 696 1025 q 740 1037 726 1025 q 751 1063 753 1049 q 740 1088 751 1076 l 646 1168 q 619 1187 631 1181 q 590 1193 608 1193 l 538 1193 q 508 1187 519 1193 q 482 1168 497 1181 l 388 1088 q 376 1063 376 1076 q 388 1037 375 1049 q 418 1025 401 1025 "},"Ỗ":{"ha":1128,"x_min":76,"x_max":1051,"o":"m 564 -14 q 819 50 710 -14 q 988 227 928 114 q 1051 485 1049 340 q 988 742 1049 629 q 819 919 928 856 q 564 983 710 983 q 308 919 418 983 q 139 743 199 856 q 76 485 79 631 q 139 226 79 339 q 308 50 199 114 q 564 -14 418 -14 m 564 104 q 370 154 451 104 q 246 290 289 204 q 203 485 203 376 q 246 679 203 593 q 370 815 289 765 q 564 865 451 865 q 757 815 675 865 q 882 679 839 765 q 925 485 925 593 q 882 290 925 376 q 757 154 839 204 q 564 104 675 104 m 397 1218 q 413 1223 406 1218 q 422 1235 421 1228 q 441 1256 428 1249 q 479 1263 454 1263 q 519 1256 497 1263 q 560 1243 540 1250 q 609 1227 590 1232 q 650 1222 628 1222 q 726 1253 694 1222 q 758 1322 758 1285 q 732 1344 756 1344 q 716 1340 721 1344 q 707 1329 711 1336 q 684 1309 697 1315 q 650 1303 671 1303 q 597 1311 622 1303 q 567 1321 571 1319 q 519 1335 539 1331 q 478 1340 500 1340 q 399 1309 428 1340 q 371 1240 371 1278 q 378 1224 371 1231 q 397 1218 386 1218 m 418 1025 q 443 1033 432 1025 l 564 1129 l 685 1033 q 710 1025 696 1025 q 740 1037 726 1025 q 751 1063 753 1049 q 740 1088 751 1076 l 646 1168 q 619 1187 631 1181 q 590 1193 608 1193 l 538 1193 q 508 1187 519 1193 q 482 1168 497 1181 l 388 1088 q 376 1063 376 1076 q 388 1037 375 1049 q 418 1025 401 1025 "},"Ȍ":{"ha":1128,"x_min":76,"x_max":1051,"o":"m 564 -14 q 819 50 710 -14 q 988 227 928 114 q 1051 485 1049 340 q 988 742 1049 629 q 819 919 928 856 q 564 983 710 983 q 308 919 418 983 q 139 743 199 856 q 76 485 79 631 q 139 226 79 339 q 308 50 199 114 q 564 -14 418 -14 m 564 104 q 370 154 451 104 q 246 290 289 204 q 203 485 203 376 q 246 679 203 593 q 370 815 289 765 q 564 865 451 865 q 757 815 675 865 q 882 679 839 765 q 925 485 925 593 q 882 290 925 376 q 757 154 839 204 q 564 104 675 104 m 457 1026 q 488 1042 475 1026 l 583 1156 q 597 1190 597 1171 q 583 1228 597 1214 q 546 1242 568 1242 q 500 1215 514 1242 l 429 1090 q 419 1064 419 1076 q 430 1037 419 1047 q 457 1026 440 1026 m 671 1026 q 701 1042 689 1026 l 797 1156 q 811 1190 811 1171 q 797 1228 811 1214 q 760 1242 782 1242 q 714 1215 728 1242 l 643 1090 q 633 1064 633 1076 q 644 1037 633 1047 q 671 1026 654 1026 "},"Ö":{"ha":1128,"x_min":76,"x_max":1051,"o":"m 564 -14 q 819 50 710 -14 q 988 227 928 114 q 1051 485 1049 340 q 988 742 1049 629 q 819 919 928 856 q 564 983 710 983 q 308 919 418 983 q 139 743 199 856 q 76 485 79 631 q 139 226 79 339 q 308 50 199 114 q 564 -14 418 -14 m 564 104 q 370 154 451 104 q 246 290 289 204 q 203 485 203 376 q 246 679 203 593 q 370 815 289 765 q 564 865 451 865 q 757 815 675 865 q 882 679 839 765 q 925 485 925 593 q 882 290 925 376 q 757 154 839 204 q 564 104 675 104 m 447 1038 q 497 1058 476 1038 q 518 1108 518 1079 q 497 1158 518 1138 q 447 1179 476 1179 q 397 1158 418 1179 q 376 1108 376 1138 q 397 1058 376 1079 q 447 1038 418 1038 m 681 1038 q 731 1058 710 1038 q 751 1108 751 1079 q 731 1158 751 1138 q 681 1179 710 1179 q 631 1158 651 1179 q 610 1108 610 1138 q 631 1058 610 1079 q 681 1038 651 1038 "},"Ȫ":{"ha":1128,"x_min":76,"x_max":1051,"o":"m 564 -14 q 819 50 710 -14 q 988 227 928 114 q 1051 485 1049 340 q 988 742 1049 629 q 819 919 928 856 q 564 983 710 983 q 308 919 418 983 q 139 743 199 856 q 76 485 79 631 q 139 226 79 339 q 308 50 199 114 q 564 -14 418 -14 m 564 104 q 370 154 451 104 q 246 290 289 204 q 203 485 203 376 q 246 679 203 593 q 370 815 289 765 q 564 865 451 865 q 757 815 675 865 q 882 679 839 765 q 925 485 925 593 q 882 290 925 376 q 757 154 839 204 q 564 104 675 104 m 447 1038 q 497 1058 476 1038 q 518 1108 518 1079 q 497 1158 518 1138 q 447 1179 476 1179 q 397 1158 418 1179 q 376 1108 376 1138 q 397 1058 376 1079 q 447 1038 418 1038 m 681 1038 q 731 1058 710 1038 q 751 1108 751 1079 q 731 1158 751 1138 q 681 1179 710 1179 q 631 1158 651 1179 q 610 1108 610 1138 q 631 1058 610 1079 q 681 1038 651 1038 m 401 1238 l 726 1238 q 756 1249 744 1238 q 768 1279 768 1261 q 756 1309 768 1297 q 726 1321 744 1321 l 401 1321 q 372 1309 383 1321 q 360 1279 360 1297 q 372 1249 360 1261 q 401 1238 383 1238 "},"Ȱ":{"ha":1128,"x_min":76,"x_max":1051,"o":"m 564 -14 q 819 50 710 -14 q 988 227 928 114 q 1051 485 1049 340 q 988 742 1049 629 q 819 919 928 856 q 564 983 710 983 q 308 919 418 983 q 139 743 199 856 q 76 485 79 631 q 139 226 79 339 q 308 50 199 114 q 564 -14 418 -14 m 564 104 q 370 154 451 104 q 246 290 289 204 q 203 485 203 376 q 246 679 203 593 q 370 815 289 765 q 564 865 451 865 q 757 815 675 865 q 882 679 839 765 q 925 485 925 593 q 882 290 925 376 q 757 154 839 204 q 564 104 675 104 m 564 1038 q 614 1058 593 1038 q 635 1108 635 1079 q 614 1158 635 1138 q 564 1179 593 1179 q 514 1158 535 1179 q 493 1108 493 1138 q 514 1058 493 1079 q 564 1038 535 1038 m 401 1238 l 726 1238 q 756 1249 744 1238 q 768 1279 768 1261 q 756 1309 768 1297 q 726 1321 744 1321 l 401 1321 q 372 1309 383 1321 q 360 1279 360 1297 q 372 1249 360 1261 q 401 1238 383 1238 "},"Ọ":{"ha":1128,"x_min":76,"x_max":1051,"o":"m 564 -14 q 819 50 710 -14 q 988 227 928 114 q 1051 485 1049 340 q 988 742 1049 629 q 819 919 928 856 q 564 983 710 983 q 308 919 418 983 q 139 743 199 856 q 76 485 79 631 q 139 226 79 339 q 308 50 199 114 q 564 -14 418 -14 m 564 104 q 370 154 451 104 q 246 290 289 204 q 203 485 203 376 q 246 679 203 593 q 370 815 289 765 q 564 865 451 865 q 757 815 675 865 q 882 679 839 765 q 925 485 925 593 q 882 290 925 376 q 757 154 839 204 q 564 104 675 104 m 564 -231 q 614 -210 593 -231 q 635 -160 635 -189 q 614 -110 635 -131 q 564 -89 593 -89 q 514 -110 535 -89 q 493 -160 493 -131 q 514 -210 493 -189 q 564 -231 535 -231 "},"Ò":{"ha":1128,"x_min":76,"x_max":1051,"o":"m 564 -14 q 819 50 710 -14 q 988 227 928 114 q 1051 485 1049 340 q 988 742 1049 629 q 819 919 928 856 q 564 983 710 983 q 308 919 418 983 q 139 743 199 856 q 76 485 79 631 q 139 226 79 339 q 308 50 199 114 q 564 -14 418 -14 m 564 104 q 370 154 451 104 q 246 290 289 204 q 203 485 203 376 q 246 679 203 593 q 370 815 289 765 q 564 865 451 865 q 757 815 675 865 q 882 679 839 765 q 925 485 925 593 q 882 290 925 376 q 757 154 839 204 q 564 104 675 104 m 564 1026 q 591 1037 581 1026 q 601 1064 601 1047 q 592 1090 601 1076 l 521 1215 q 475 1242 507 1242 q 438 1228 451 1242 q 424 1190 424 1214 q 438 1156 424 1171 l 533 1042 q 564 1026 546 1026 "},"Ỏ":{"ha":1128,"x_min":76,"x_max":1051,"o":"m 564 -14 q 819 50 710 -14 q 988 227 928 114 q 1051 485 1049 340 q 988 742 1049 629 q 819 919 928 856 q 564 983 710 983 q 308 919 418 983 q 139 743 199 856 q 76 485 79 631 q 139 226 79 339 q 308 50 199 114 q 564 -14 418 -14 m 564 104 q 370 154 451 104 q 246 290 289 204 q 203 485 203 376 q 246 679 203 593 q 370 815 289 765 q 564 865 451 865 q 757 815 675 865 q 882 679 839 765 q 925 485 925 593 q 882 290 925 376 q 757 154 839 204 q 564 104 675 104 m 554 1025 q 586 1046 578 1025 q 602 1070 592 1060 q 629 1092 613 1081 q 671 1131 657 1113 q 685 1179 685 1149 q 654 1245 685 1221 q 571 1269 624 1269 q 515 1263 543 1269 q 464 1242 486 1256 q 449 1215 449 1232 q 457 1195 449 1204 q 478 1186 465 1186 q 510 1199 483 1186 q 571 1211 536 1211 q 606 1203 593 1211 q 619 1178 619 1194 q 608 1151 619 1163 q 576 1126 597 1140 q 535 1093 549 1108 q 522 1054 522 1078 q 532 1033 522 1040 q 554 1025 542 1025 "},"Ơ":{"ha":1126,"x_min":76,"x_max":1051,"o":"m 564 -14 q 819 50 710 -14 q 988 227 928 114 q 1051 485 1049 340 q 1006 709 1050 608 q 881 876 961 810 q 1011 935 971 889 q 1051 1046 1051 981 q 1033 1148 1051 1111 q 982 1185 1014 1185 q 949 1172 963 1185 q 936 1139 936 1158 q 940 1110 936 1126 q 946 1068 946 1088 q 915 993 946 1019 q 815 967 885 967 q 678 976 743 967 q 636 981 667 978 q 575 983 606 983 q 311 920 422 983 q 140 744 200 857 q 76 485 79 631 q 139 226 79 339 q 308 50 199 114 q 564 -14 418 -14 m 564 104 q 370 154 451 104 q 246 290 289 204 q 203 485 203 376 q 246 679 203 593 q 370 815 289 765 q 564 865 451 865 q 757 815 675 865 q 882 679 839 765 q 925 485 925 593 q 882 290 925 376 q 757 154 839 204 q 564 104 675 104 "},"Ớ":{"ha":1126,"x_min":76,"x_max":1051,"o":"m 564 -14 q 819 50 710 -14 q 988 227 928 114 q 1051 485 1049 340 q 1006 709 1050 608 q 881 876 961 810 q 1011 935 971 889 q 1051 1046 1051 981 q 1033 1148 1051 1111 q 982 1185 1014 1185 q 949 1172 963 1185 q 936 1139 936 1158 q 940 1110 936 1126 q 946 1068 946 1088 q 915 993 946 1019 q 815 967 885 967 q 678 976 743 967 q 636 981 667 978 q 575 983 606 983 q 311 920 422 983 q 140 744 200 857 q 76 485 79 631 q 139 226 79 339 q 308 50 199 114 q 564 -14 418 -14 m 564 104 q 370 154 451 104 q 246 290 289 204 q 203 485 203 376 q 246 679 203 593 q 370 815 289 765 q 564 865 451 865 q 757 815 675 865 q 882 679 839 765 q 925 485 925 593 q 882 290 925 376 q 757 154 839 204 q 564 104 675 104 m 564 1026 q 594 1042 582 1026 l 690 1156 q 704 1190 704 1171 q 690 1228 704 1214 q 653 1242 675 1242 q 607 1215 621 1242 l 536 1090 q 526 1064 526 1076 q 537 1037 526 1047 q 564 1026 547 1026 "},"Ợ":{"ha":1126,"x_min":76,"x_max":1051,"o":"m 564 -14 q 819 50 710 -14 q 988 227 928 114 q 1051 485 1049 340 q 1006 709 1050 608 q 881 876 961 810 q 1011 935 971 889 q 1051 1046 1051 981 q 1033 1148 1051 1111 q 982 1185 1014 1185 q 949 1172 963 1185 q 936 1139 936 1158 q 940 1110 936 1126 q 946 1068 946 1088 q 915 993 946 1019 q 815 967 885 967 q 678 976 743 967 q 636 981 667 978 q 575 983 606 983 q 311 920 422 983 q 140 744 200 857 q 76 485 79 631 q 139 226 79 339 q 308 50 199 114 q 564 -14 418 -14 m 564 104 q 370 154 451 104 q 246 290 289 204 q 203 485 203 376 q 246 679 203 593 q 370 815 289 765 q 564 865 451 865 q 757 815 675 865 q 882 679 839 765 q 925 485 925 593 q 882 290 925 376 q 757 154 839 204 q 564 104 675 104 m 564 -231 q 614 -210 593 -231 q 635 -160 635 -189 q 614 -110 635 -131 q 564 -89 593 -89 q 514 -110 535 -89 q 493 -160 493 -131 q 514 -210 493 -189 q 564 -231 535 -231 "},"Ờ":{"ha":1126,"x_min":76,"x_max":1051,"o":"m 564 -14 q 819 50 710 -14 q 988 227 928 114 q 1051 485 1049 340 q 1006 709 1050 608 q 881 876 961 810 q 1011 935 971 889 q 1051 1046 1051 981 q 1033 1148 1051 1111 q 982 1185 1014 1185 q 949 1172 963 1185 q 936 1139 936 1158 q 940 1110 936 1126 q 946 1068 946 1088 q 915 993 946 1019 q 815 967 885 967 q 678 976 743 967 q 636 981 667 978 q 575 983 606 983 q 311 920 422 983 q 140 744 200 857 q 76 485 79 631 q 139 226 79 339 q 308 50 199 114 q 564 -14 418 -14 m 564 104 q 370 154 451 104 q 246 290 289 204 q 203 485 203 376 q 246 679 203 593 q 370 815 289 765 q 564 865 451 865 q 757 815 675 865 q 882 679 839 765 q 925 485 925 593 q 882 290 925 376 q 757 154 839 204 q 564 104 675 104 m 564 1026 q 591 1037 581 1026 q 601 1064 601 1047 q 592 1090 601 1076 l 521 1215 q 475 1242 507 1242 q 438 1228 451 1242 q 424 1190 424 1214 q 438 1156 424 1171 l 533 1042 q 564 1026 546 1026 "},"Ở":{"ha":1126,"x_min":76,"x_max":1051,"o":"m 564 -14 q 819 50 710 -14 q 988 227 928 114 q 1051 485 1049 340 q 1006 709 1050 608 q 881 876 961 810 q 1011 935 971 889 q 1051 1046 1051 981 q 1033 1148 1051 1111 q 982 1185 1014 1185 q 949 1172 963 1185 q 936 1139 936 1158 q 940 1110 936 1126 q 946 1068 946 1088 q 915 993 946 1019 q 815 967 885 967 q 678 976 743 967 q 636 981 667 978 q 575 983 606 983 q 311 920 422 983 q 140 744 200 857 q 76 485 79 631 q 139 226 79 339 q 308 50 199 114 q 564 -14 418 -14 m 564 104 q 370 154 451 104 q 246 290 289 204 q 203 485 203 376 q 246 679 203 593 q 370 815 289 765 q 564 865 451 865 q 757 815 675 865 q 882 679 839 765 q 925 485 925 593 q 882 290 925 376 q 757 154 839 204 q 564 104 675 104 m 554 1025 q 586 1046 578 1025 q 602 1070 592 1060 q 629 1092 613 1081 q 671 1131 657 1113 q 685 1179 685 1149 q 654 1245 685 1221 q 571 1269 624 1269 q 515 1263 543 1269 q 464 1242 486 1256 q 449 1215 449 1232 q 457 1195 449 1204 q 478 1186 465 1186 q 510 1199 483 1186 q 571 1211 536 1211 q 606 1203 593 1211 q 619 1178 619 1194 q 608 1151 619 1163 q 576 1126 597 1140 q 535 1093 549 1108 q 522 1054 522 1078 q 532 1033 522 1040 q 554 1025 542 1025 "},"Ỡ":{"ha":1126,"x_min":76,"x_max":1051,"o":"m 564 -14 q 819 50 710 -14 q 988 227 928 114 q 1051 485 1049 340 q 1006 709 1050 608 q 881 876 961 810 q 1011 935 971 889 q 1051 1046 1051 981 q 1033 1148 1051 1111 q 982 1185 1014 1185 q 949 1172 963 1185 q 936 1139 936 1158 q 940 1110 936 1126 q 946 1068 946 1088 q 915 993 946 1019 q 815 967 885 967 q 678 976 743 967 q 636 981 667 978 q 575 983 606 983 q 311 920 422 983 q 140 744 200 857 q 76 485 79 631 q 139 226 79 339 q 308 50 199 114 q 564 -14 418 -14 m 564 104 q 370 154 451 104 q 246 290 289 204 q 203 485 203 376 q 246 679 203 593 q 370 815 289 765 q 564 865 451 865 q 757 815 675 865 q 882 679 839 765 q 925 485 925 593 q 882 290 925 376 q 757 154 839 204 q 564 104 675 104 m 372 1032 q 404 1057 396 1032 q 458 1101 422 1101 q 504 1093 482 1101 q 558 1069 526 1085 q 619 1044 594 1053 q 672 1035 644 1035 q 756 1076 722 1035 q 789 1167 789 1118 q 779 1188 788 1179 q 757 1197 771 1197 q 722 1168 733 1197 q 703 1140 715 1150 q 671 1131 692 1131 q 623 1139 646 1131 q 568 1163 600 1147 q 509 1188 533 1179 q 457 1196 485 1196 q 396 1175 422 1196 q 355 1124 369 1154 q 340 1064 340 1093 q 350 1041 340 1050 q 372 1032 360 1032 "},"Ő":{"ha":1128,"x_min":76,"x_max":1051,"o":"m 564 -14 q 819 50 710 -14 q 988 227 928 114 q 1051 485 1049 340 q 988 742 1049 629 q 819 919 928 856 q 564 983 710 983 q 308 919 418 983 q 139 743 199 856 q 76 485 79 631 q 139 226 79 339 q 308 50 199 114 q 564 -14 418 -14 m 564 104 q 370 154 451 104 q 246 290 289 204 q 203 485 203 376 q 246 679 203 593 q 370 815 289 765 q 564 865 451 865 q 757 815 675 865 q 882 679 839 765 q 925 485 925 593 q 882 290 925 376 q 757 154 839 204 q 564 104 675 104 m 482 1026 q 518 1050 506 1026 l 575 1160 q 585 1194 585 1178 q 570 1228 585 1215 q 536 1240 556 1240 q 504 1229 519 1240 q 483 1197 489 1218 l 446 1072 q 444 1061 444 1068 q 456 1036 444 1046 q 482 1026 467 1026 m 643 1026 q 679 1050 667 1026 l 736 1160 q 746 1194 746 1178 q 731 1228 746 1215 q 697 1240 717 1240 q 665 1229 681 1240 q 644 1197 650 1218 l 607 1072 q 606 1061 606 1068 q 617 1036 606 1046 q 643 1026 628 1026 "},"Ȏ":{"ha":1128,"x_min":76,"x_max":1051,"o":"m 564 -14 q 819 50 710 -14 q 988 227 928 114 q 1051 485 1049 340 q 988 742 1049 629 q 819 919 928 856 q 564 983 710 983 q 308 919 418 983 q 139 743 199 856 q 76 485 79 631 q 139 226 79 339 q 308 50 199 114 q 564 -14 418 -14 m 564 104 q 370 154 451 104 q 246 290 289 204 q 203 485 203 376 q 246 679 203 593 q 370 815 289 765 q 564 865 451 865 q 757 815 675 865 q 882 679 839 765 q 925 485 925 593 q 882 290 925 376 q 757 154 839 204 q 564 104 675 104 m 408 1026 q 447 1053 435 1026 q 493 1103 463 1085 q 564 1121 524 1121 q 635 1103 604 1121 q 681 1053 665 1085 q 719 1026 693 1026 q 751 1039 739 1026 q 763 1069 763 1051 q 758 1089 763 1081 q 681 1171 732 1140 q 564 1201 629 1201 q 447 1171 499 1201 q 369 1089 396 1140 q 365 1069 365 1081 q 377 1039 365 1051 q 408 1026 389 1026 "},"Ō":{"ha":1128,"x_min":76,"x_max":1051,"o":"m 564 -14 q 819 50 710 -14 q 988 227 928 114 q 1051 485 1049 340 q 988 742 1049 629 q 819 919 928 856 q 564 983 710 983 q 308 919 418 983 q 139 743 199 856 q 76 485 79 631 q 139 226 79 339 q 308 50 199 114 q 564 -14 418 -14 m 564 104 q 370 154 451 104 q 246 290 289 204 q 203 485 203 376 q 246 679 203 593 q 370 815 289 765 q 564 865 451 865 q 757 815 675 865 q 882 679 839 765 q 925 485 925 593 q 882 290 925 376 q 757 154 839 204 q 564 104 675 104 m 401 1056 l 726 1056 q 756 1067 744 1056 q 768 1097 768 1079 q 756 1127 768 1115 q 726 1139 744 1139 l 401 1139 q 372 1127 383 1139 q 360 1097 360 1115 q 372 1067 360 1079 q 401 1056 383 1056 "},"Ṓ":{"ha":1128,"x_min":76,"x_max":1051,"o":"m 564 -14 q 819 50 710 -14 q 988 227 928 114 q 1051 485 1049 340 q 988 742 1049 629 q 819 919 928 856 q 564 983 710 983 q 308 919 418 983 q 139 743 199 856 q 76 485 79 631 q 139 226 79 339 q 308 50 199 114 q 564 -14 418 -14 m 564 104 q 370 154 451 104 q 246 290 289 204 q 203 485 203 376 q 246 679 203 593 q 370 815 289 765 q 564 865 451 865 q 757 815 675 865 q 882 679 839 765 q 925 485 925 593 q 882 290 925 376 q 757 154 839 204 q 564 104 675 104 m 401 1056 l 726 1056 q 756 1067 744 1056 q 768 1097 768 1079 q 756 1127 768 1115 q 726 1139 744 1139 l 401 1139 q 372 1127 383 1139 q 360 1097 360 1115 q 372 1067 360 1079 q 401 1056 383 1056 m 564 1194 q 594 1210 582 1194 l 690 1324 q 704 1358 704 1339 q 690 1396 704 1382 q 653 1410 675 1410 q 607 1383 621 1410 l 536 1258 q 526 1232 526 1244 q 537 1205 526 1215 q 564 1194 547 1194 "},"Ṑ":{"ha":1128,"x_min":76,"x_max":1051,"o":"m 564 -14 q 819 50 710 -14 q 988 227 928 114 q 1051 485 1049 340 q 988 742 1049 629 q 819 919 928 856 q 564 983 710 983 q 308 919 418 983 q 139 743 199 856 q 76 485 79 631 q 139 226 79 339 q 308 50 199 114 q 564 -14 418 -14 m 564 104 q 370 154 451 104 q 246 290 289 204 q 203 485 203 376 q 246 679 203 593 q 370 815 289 765 q 564 865 451 865 q 757 815 675 865 q 882 679 839 765 q 925 485 925 593 q 882 290 925 376 q 757 154 839 204 q 564 104 675 104 m 401 1056 l 726 1056 q 756 1067 744 1056 q 768 1097 768 1079 q 756 1127 768 1115 q 726 1139 744 1139 l 401 1139 q 372 1127 383 1139 q 360 1097 360 1115 q 372 1067 360 1079 q 401 1056 383 1056 m 564 1194 q 591 1205 581 1194 q 601 1232 601 1215 q 592 1258 601 1244 l 521 1383 q 475 1410 507 1410 q 438 1396 451 1410 q 424 1358 424 1382 q 438 1324 424 1339 l 533 1210 q 564 1194 546 1194 "},"Ǫ":{"ha":1126,"x_min":76,"x_max":1051,"o":"m 610 -282 q 729 -249 682 -282 q 744 -224 744 -237 q 736 -201 744 -210 q 714 -193 728 -193 q 701 -196 710 -193 q 653 -204 674 -204 q 582 -139 582 -204 q 630 -53 582 -94 q 739 13 678 -11 q 968 192 888 71 q 1051 485 1049 313 q 988 742 1049 629 q 819 919 928 856 q 564 983 710 983 q 308 919 418 983 q 139 743 199 856 q 76 485 79 631 q 139 226 79 339 q 308 50 199 114 q 564 -14 418 -14 l 576 -14 q 481 -165 481 -76 q 519 -250 481 -218 q 610 -282 557 -282 m 564 104 q 370 154 451 104 q 246 290 289 204 q 203 485 203 376 q 246 679 203 593 q 370 815 289 765 q 564 865 451 865 q 757 815 675 865 q 882 679 839 765 q 925 485 925 593 q 882 290 925 376 q 757 154 839 204 q 564 104 675 104 "},"Ø":{"ha":1128,"x_min":76,"x_max":1051,"o":"m 219 -42 q 249 -28 239 -42 l 304 51 q 564 -14 417 -14 q 819 50 710 -14 q 988 227 928 114 q 1051 485 1049 340 q 1005 708 1049 607 q 882 875 961 808 l 936 953 q 944 976 944 965 q 935 1000 944 990 q 910 1010 925 1010 q 881 996 890 1010 l 825 915 q 564 983 711 983 q 308 919 418 983 q 139 743 199 856 q 76 485 79 631 q 122 260 78 361 q 247 92 167 158 l 193 15 q 185 -8 185 3 q 194 -32 185 -22 q 219 -42 204 -42 m 754 817 l 318 193 q 233 319 263 244 q 203 485 203 394 q 246 679 203 593 q 370 815 289 765 q 564 865 451 865 q 754 817 671 865 m 564 104 q 374 151 456 104 l 811 775 q 896 648 867 724 q 925 485 925 572 q 882 290 925 376 q 757 154 839 204 q 564 104 675 104 "},"Ǿ":{"ha":1128,"x_min":76,"x_max":1051,"o":"m 219 -42 q 249 -28 239 -42 l 304 51 q 564 -14 417 -14 q 819 50 710 -14 q 988 227 928 114 q 1051 485 1049 340 q 1005 708 1049 607 q 882 875 961 808 l 936 953 q 944 976 944 965 q 935 1000 944 990 q 910 1010 925 1010 q 881 996 890 1010 l 825 915 q 564 983 711 983 q 308 919 418 983 q 139 743 199 856 q 76 485 79 631 q 122 260 78 361 q 247 92 167 158 l 193 15 q 185 -8 185 3 q 194 -32 185 -22 q 219 -42 204 -42 m 754 817 l 318 193 q 233 319 263 244 q 203 485 203 394 q 246 679 203 593 q 370 815 289 765 q 564 865 451 865 q 754 817 671 865 m 564 104 q 374 151 456 104 l 811 775 q 896 648 867 724 q 925 485 925 572 q 882 290 925 376 q 757 154 839 204 q 564 104 675 104 m 564 1026 q 594 1042 582 1026 l 690 1156 q 704 1190 704 1171 q 690 1228 704 1214 q 653 1242 675 1242 q 607 1215 621 1242 l 536 1090 q 526 1064 526 1076 q 537 1037 526 1047 q 564 1026 547 1026 "},"Õ":{"ha":1128,"x_min":76,"x_max":1051,"o":"m 564 -14 q 819 50 710 -14 q 988 227 928 114 q 1051 485 1049 340 q 988 742 1049 629 q 819 919 928 856 q 564 983 710 983 q 308 919 418 983 q 139 743 199 856 q 76 485 79 631 q 139 226 79 339 q 308 50 199 114 q 564 -14 418 -14 m 564 104 q 370 154 451 104 q 246 290 289 204 q 203 485 203 376 q 246 679 203 593 q 370 815 289 765 q 564 865 451 865 q 757 815 675 865 q 882 679 839 765 q 925 485 925 593 q 882 290 925 376 q 757 154 839 204 q 564 104 675 104 m 372 1032 q 404 1057 396 1032 q 458 1101 422 1101 q 504 1093 482 1101 q 558 1069 526 1085 q 619 1044 594 1053 q 672 1035 644 1035 q 756 1076 722 1035 q 789 1167 789 1118 q 779 1188 788 1179 q 757 1197 771 1197 q 722 1168 733 1197 q 703 1140 715 1150 q 671 1131 692 1131 q 623 1139 646 1131 q 568 1163 600 1147 q 509 1188 533 1179 q 457 1196 485 1196 q 396 1175 422 1196 q 355 1124 369 1154 q 340 1064 340 1093 q 350 1041 340 1050 q 372 1032 360 1032 "},"Ṍ":{"ha":1128,"x_min":76,"x_max":1051,"o":"m 564 -14 q 819 50 710 -14 q 988 227 928 114 q 1051 485 1049 340 q 988 742 1049 629 q 819 919 928 856 q 564 983 710 983 q 308 919 418 983 q 139 743 199 856 q 76 485 79 631 q 139 226 79 339 q 308 50 199 114 q 564 -14 418 -14 m 564 104 q 370 154 451 104 q 246 290 289 204 q 203 485 203 376 q 246 679 203 593 q 370 815 289 765 q 564 865 451 865 q 757 815 675 865 q 882 679 839 765 q 925 485 925 593 q 882 290 925 376 q 757 154 839 204 q 564 104 675 104 m 372 1032 q 404 1057 396 1032 q 458 1101 422 1101 q 504 1093 482 1101 q 558 1069 526 1085 q 619 1044 594 1053 q 672 1035 644 1035 q 756 1076 722 1035 q 789 1167 789 1118 q 779 1188 788 1179 q 757 1197 771 1197 q 722 1168 733 1197 q 703 1140 715 1150 q 671 1131 692 1131 q 623 1139 646 1131 q 568 1163 600 1147 q 509 1188 533 1179 q 457 1196 485 1196 q 396 1175 422 1196 q 355 1124 369 1154 q 340 1064 340 1093 q 350 1041 340 1050 q 372 1032 360 1032 m 564 1208 q 594 1224 582 1208 l 690 1338 q 704 1372 704 1353 q 690 1410 704 1396 q 653 1424 675 1424 q 607 1397 621 1424 l 536 1272 q 526 1246 526 1258 q 537 1219 526 1229 q 564 1208 547 1208 "},"Ṏ":{"ha":1128,"x_min":76,"x_max":1051,"o":"m 564 -14 q 819 50 710 -14 q 988 227 928 114 q 1051 485 1049 340 q 988 742 1049 629 q 819 919 928 856 q 564 983 710 983 q 308 919 418 983 q 139 743 199 856 q 76 485 79 631 q 139 226 79 339 q 308 50 199 114 q 564 -14 418 -14 m 564 104 q 370 154 451 104 q 246 290 289 204 q 203 485 203 376 q 246 679 203 593 q 370 815 289 765 q 564 865 451 865 q 757 815 675 865 q 882 679 839 765 q 925 485 925 593 q 882 290 925 376 q 757 154 839 204 q 564 104 675 104 m 372 1032 q 404 1057 396 1032 q 458 1101 422 1101 q 504 1093 482 1101 q 558 1069 526 1085 q 619 1044 594 1053 q 672 1035 644 1035 q 756 1076 722 1035 q 789 1167 789 1118 q 779 1188 788 1179 q 757 1197 771 1197 q 722 1168 733 1197 q 703 1140 715 1150 q 671 1131 692 1131 q 623 1139 646 1131 q 568 1163 600 1147 q 509 1188 533 1179 q 457 1196 485 1196 q 396 1175 422 1196 q 355 1124 369 1154 q 340 1064 340 1093 q 350 1041 340 1050 q 372 1032 360 1032 m 447 1219 q 497 1240 476 1219 q 518 1290 518 1261 q 497 1340 518 1319 q 447 1361 476 1361 q 397 1340 418 1361 q 376 1290 376 1319 q 397 1240 376 1261 q 447 1219 418 1219 m 681 1219 q 731 1240 710 1219 q 751 1290 751 1261 q 731 1340 751 1319 q 681 1361 710 1361 q 631 1340 651 1361 q 610 1290 610 1319 q 631 1240 610 1261 q 681 1219 651 1219 "},"Ȭ":{"ha":1128,"x_min":76,"x_max":1051,"o":"m 564 -14 q 819 50 710 -14 q 988 227 928 114 q 1051 485 1049 340 q 988 742 1049 629 q 819 919 928 856 q 564 983 710 983 q 308 919 418 983 q 139 743 199 856 q 76 485 79 631 q 139 226 79 339 q 308 50 199 114 q 564 -14 418 -14 m 564 104 q 370 154 451 104 q 246 290 289 204 q 203 485 203 376 q 246 679 203 593 q 370 815 289 765 q 564 865 451 865 q 757 815 675 865 q 882 679 839 765 q 925 485 925 593 q 882 290 925 376 q 757 154 839 204 q 564 104 675 104 m 372 1032 q 404 1057 396 1032 q 458 1101 422 1101 q 504 1093 482 1101 q 558 1069 526 1085 q 619 1044 594 1053 q 672 1035 644 1035 q 756 1076 722 1035 q 789 1167 789 1118 q 779 1188 788 1179 q 757 1197 771 1197 q 722 1168 733 1197 q 703 1140 715 1150 q 671 1131 692 1131 q 623 1139 646 1131 q 568 1163 600 1147 q 509 1188 533 1179 q 457 1196 485 1196 q 396 1175 422 1196 q 355 1124 369 1154 q 340 1064 340 1093 q 350 1041 340 1050 q 372 1032 360 1032 m 401 1238 l 726 1238 q 756 1249 744 1238 q 768 1279 768 1261 q 756 1309 768 1297 q 726 1321 744 1321 l 401 1321 q 372 1309 383 1321 q 360 1279 360 1297 q 372 1249 360 1261 q 401 1238 383 1238 "},"Œ":{"ha":1676,"x_min":76,"x_max":1604,"o":"m 564 -14 q 774 33 682 -14 q 925 165 865 79 l 925 63 q 943 18 925 36 q 988 0 961 0 l 1544 0 q 1587 17 1569 0 q 1604 58 1604 33 q 1587 101 1604 83 q 1544 118 1569 118 l 1051 118 l 1051 426 l 1494 426 q 1537 443 1519 426 q 1554 485 1554 460 q 1537 527 1554 510 q 1494 544 1519 544 l 1051 544 l 1051 851 l 1544 851 q 1587 868 1569 851 q 1604 910 1604 885 q 1587 952 1604 935 q 1544 969 1569 969 l 988 969 q 943 951 961 969 q 925 906 925 932 l 925 804 q 774 937 865 890 q 564 983 682 983 q 308 919 418 983 q 139 743 199 856 q 76 485 79 631 q 139 226 79 339 q 308 50 199 114 q 564 -14 418 -14 m 564 104 q 370 154 451 104 q 246 290 289 204 q 203 485 203 376 q 246 679 203 593 q 370 815 289 765 q 564 865 451 865 q 757 815 675 865 q 882 679 839 765 q 925 485 925 593 q 882 290 925 376 q 757 154 839 204 q 564 104 675 104 "},"P":{"ha":933,"x_min":135,"x_max":885,"o":"m 197 -7 q 242 11 224 -7 q 261 56 261 29 l 261 353 l 514 353 q 729 397 646 353 q 849 511 813 442 q 885 661 885 581 q 849 811 885 742 q 729 925 813 881 q 514 969 646 969 l 197 969 q 153 951 171 969 q 135 906 135 932 l 135 56 q 153 11 135 29 q 197 -7 171 -7 m 501 472 l 261 472 l 261 850 l 501 850 q 701 796 643 850 q 758 661 758 742 q 701 526 758 581 q 501 472 643 472 "},"Þ":{"ha":933,"x_min":135,"x_max":885,"o":"m 197 -7 q 242 11 224 -7 q 261 56 261 29 l 261 197 l 514 197 q 729 242 646 197 q 849 356 813 286 q 885 506 885 425 q 849 656 885 586 q 729 769 813 725 q 514 814 646 814 l 261 814 l 261 913 q 242 958 261 939 q 197 976 224 976 q 153 958 171 976 q 135 913 135 939 l 135 56 q 153 11 135 29 q 197 -7 171 -7 m 501 317 l 261 317 l 261 694 l 501 694 q 701 640 643 694 q 758 506 758 586 q 701 371 758 425 q 501 317 643 317 "},"Q":{"ha":1128,"x_min":76,"x_max":1051,"o":"m 843 -211 q 886 -193 868 -211 q 903 -151 904 -175 q 886 -111 903 -128 l 764 24 q 973 201 897 79 q 1051 485 1049 322 q 988 742 1049 629 q 819 919 928 856 q 564 983 710 983 q 308 919 418 983 q 139 743 199 856 q 76 485 79 631 q 139 226 79 339 q 308 50 199 114 q 564 -14 418 -14 q 647 -8 613 -14 l 799 -189 q 843 -211 817 -211 m 564 104 q 370 154 451 104 q 246 290 289 204 q 203 485 203 376 q 246 679 203 593 q 370 815 289 765 q 564 865 451 865 q 757 815 675 865 q 882 679 839 765 q 925 485 925 593 q 882 290 925 376 q 757 154 839 204 q 564 104 675 104 "},"R":{"ha":989,"x_min":135,"x_max":899,"o":"m 197 -7 q 242 11 224 -7 q 261 56 261 29 l 261 378 l 549 378 q 692 331 644 378 q 751 226 739 285 q 764 97 764 167 l 764 56 q 781 10 764 28 q 828 -7 799 -7 q 872 11 854 -7 q 890 56 890 29 l 890 119 q 853 312 890 214 q 717 436 817 410 q 852 535 806 467 q 899 688 899 604 q 804 892 899 814 q 521 969 710 969 l 197 969 q 153 951 171 969 q 135 906 135 932 l 135 56 q 153 11 135 29 q 197 -7 171 -7 m 513 497 l 261 497 l 261 850 l 506 850 q 712 806 651 850 q 772 678 772 761 q 702 544 772 592 q 513 497 632 497 "},"Ŕ":{"ha":989,"x_min":135,"x_max":899,"o":"m 197 -7 q 242 11 224 -7 q 261 56 261 29 l 261 378 l 549 378 q 692 331 644 378 q 751 226 739 285 q 764 97 764 167 l 764 56 q 781 10 764 28 q 828 -7 799 -7 q 872 11 854 -7 q 890 56 890 29 l 890 119 q 853 312 890 214 q 717 436 817 410 q 852 535 806 467 q 899 688 899 604 q 804 892 899 814 q 521 969 710 969 l 197 969 q 153 951 171 969 q 135 906 135 932 l 135 56 q 153 11 135 29 q 197 -7 171 -7 m 513 497 l 261 497 l 261 850 l 506 850 q 712 806 651 850 q 772 678 772 761 q 702 544 772 592 q 513 497 632 497 m 494 1026 q 525 1042 513 1026 l 621 1156 q 635 1190 635 1171 q 620 1228 635 1214 q 583 1242 606 1242 q 538 1215 551 1242 l 467 1090 q 457 1064 457 1076 q 467 1037 457 1047 q 494 1026 478 1026 "},"Ř":{"ha":989,"x_min":135,"x_max":899,"o":"m 197 -7 q 242 11 224 -7 q 261 56 261 29 l 261 378 l 549 378 q 692 331 644 378 q 751 226 739 285 q 764 97 764 167 l 764 56 q 781 10 764 28 q 828 -7 799 -7 q 872 11 854 -7 q 890 56 890 29 l 890 119 q 853 312 890 214 q 717 436 817 410 q 852 535 806 467 q 899 688 899 604 q 804 892 899 814 q 521 969 710 969 l 197 969 q 153 951 171 969 q 135 906 135 932 l 135 56 q 153 11 135 29 q 197 -7 171 -7 m 513 497 l 261 497 l 261 850 l 506 850 q 712 806 651 850 q 772 678 772 761 q 702 544 772 592 q 513 497 632 497 m 468 1026 l 521 1026 q 551 1033 539 1026 q 576 1054 564 1040 l 671 1151 q 682 1178 682 1163 q 671 1206 683 1193 q 640 1219 658 1219 q 615 1210 625 1219 l 494 1107 l 374 1210 q 349 1219 364 1219 q 318 1206 331 1219 q 307 1178 306 1193 q 318 1151 307 1163 l 413 1054 q 438 1033 425 1040 q 468 1026 450 1026 "},"Ŗ":{"ha":989,"x_min":135,"x_max":899,"o":"m 197 -7 q 242 11 224 -7 q 261 56 261 29 l 261 378 l 549 378 q 692 331 644 378 q 751 226 739 285 q 764 97 764 167 l 764 56 q 781 10 764 28 q 828 -7 799 -7 q 872 11 854 -7 q 890 56 890 29 l 890 119 q 853 312 890 214 q 717 436 817 410 q 852 535 806 467 q 899 688 899 604 q 804 892 899 814 q 521 969 710 969 l 197 969 q 153 951 171 969 q 135 906 135 932 l 135 56 q 153 11 135 29 q 197 -7 171 -7 m 513 497 l 261 497 l 261 850 l 506 850 q 712 806 651 850 q 772 678 772 761 q 702 544 772 592 q 513 497 632 497 m 453 -365 q 475 -358 464 -365 q 543 -298 517 -333 q 569 -208 569 -262 l 569 -162 q 550 -110 569 -131 q 500 -89 531 -89 q 451 -110 471 -89 q 431 -160 431 -131 q 449 -208 431 -189 q 499 -226 468 -226 q 483 -269 499 -251 q 439 -304 468 -286 q 422 -333 422 -315 q 431 -356 422 -347 q 453 -365 440 -365 "},"Ȑ":{"ha":989,"x_min":135,"x_max":899,"o":"m 197 -7 q 242 11 224 -7 q 261 56 261 29 l 261 378 l 549 378 q 692 331 644 378 q 751 226 739 285 q 764 97 764 167 l 764 56 q 781 10 764 28 q 828 -7 799 -7 q 872 11 854 -7 q 890 56 890 29 l 890 119 q 853 312 890 214 q 717 436 817 410 q 852 535 806 467 q 899 688 899 604 q 804 892 899 814 q 521 969 710 969 l 197 969 q 153 951 171 969 q 135 906 135 932 l 135 56 q 153 11 135 29 q 197 -7 171 -7 m 513 497 l 261 497 l 261 850 l 506 850 q 712 806 651 850 q 772 678 772 761 q 702 544 772 592 q 513 497 632 497 m 388 1026 q 418 1042 406 1026 l 514 1156 q 528 1190 528 1171 q 513 1228 528 1214 q 476 1242 499 1242 q 431 1215 444 1242 l 360 1090 q 350 1064 350 1076 q 360 1037 350 1047 q 388 1026 371 1026 m 601 1026 q 632 1042 619 1026 l 728 1156 q 742 1190 742 1171 q 727 1228 742 1214 q 690 1242 713 1242 q 644 1215 658 1242 l 574 1090 q 564 1064 564 1076 q 574 1037 564 1047 q 601 1026 585 1026 "},"Ṛ":{"ha":989,"x_min":135,"x_max":899,"o":"m 197 -7 q 242 11 224 -7 q 261 56 261 29 l 261 378 l 549 378 q 692 331 644 378 q 751 226 739 285 q 764 97 764 167 l 764 56 q 781 10 764 28 q 828 -7 799 -7 q 872 11 854 -7 q 890 56 890 29 l 890 119 q 853 312 890 214 q 717 436 817 410 q 852 535 806 467 q 899 688 899 604 q 804 892 899 814 q 521 969 710 969 l 197 969 q 153 951 171 969 q 135 906 135 932 l 135 56 q 153 11 135 29 q 197 -7 171 -7 m 513 497 l 261 497 l 261 850 l 506 850 q 712 806 651 850 q 772 678 772 761 q 702 544 772 592 q 513 497 632 497 m 494 -231 q 544 -210 524 -231 q 565 -160 565 -189 q 544 -110 565 -131 q 494 -89 524 -89 q 444 -110 465 -89 q 424 -160 424 -131 q 444 -210 424 -189 q 494 -231 465 -231 "},"Ȓ":{"ha":989,"x_min":135,"x_max":899,"o":"m 197 -7 q 242 11 224 -7 q 261 56 261 29 l 261 378 l 549 378 q 692 331 644 378 q 751 226 739 285 q 764 97 764 167 l 764 56 q 781 10 764 28 q 828 -7 799 -7 q 872 11 854 -7 q 890 56 890 29 l 890 119 q 853 312 890 214 q 717 436 817 410 q 852 535 806 467 q 899 688 899 604 q 804 892 899 814 q 521 969 710 969 l 197 969 q 153 951 171 969 q 135 906 135 932 l 135 56 q 153 11 135 29 q 197 -7 171 -7 m 513 497 l 261 497 l 261 850 l 506 850 q 712 806 651 850 q 772 678 772 761 q 702 544 772 592 q 513 497 632 497 m 339 1026 q 378 1053 365 1026 q 424 1103 393 1085 q 494 1121 454 1121 q 565 1103 535 1121 q 611 1053 596 1085 q 650 1026 624 1026 q 681 1039 669 1026 q 693 1069 693 1051 q 689 1089 693 1081 q 611 1171 663 1140 q 494 1201 560 1201 q 378 1171 429 1201 q 300 1089 326 1140 q 296 1069 296 1081 q 308 1039 296 1051 q 339 1026 319 1026 "},"Ṟ":{"ha":989,"x_min":135,"x_max":899,"o":"m 197 -7 q 242 11 224 -7 q 261 56 261 29 l 261 378 l 549 378 q 692 331 644 378 q 751 226 739 285 q 764 97 764 167 l 764 56 q 781 10 764 28 q 828 -7 799 -7 q 872 11 854 -7 q 890 56 890 29 l 890 119 q 853 312 890 214 q 717 436 817 410 q 852 535 806 467 q 899 688 899 604 q 804 892 899 814 q 521 969 710 969 l 197 969 q 153 951 171 969 q 135 906 135 932 l 135 56 q 153 11 135 29 q 197 -7 171 -7 m 513 497 l 261 497 l 261 850 l 506 850 q 712 806 651 850 q 772 678 772 761 q 702 544 772 592 q 513 497 632 497 m 332 -190 l 657 -190 q 687 -178 675 -190 q 699 -149 699 -167 q 687 -119 699 -131 q 657 -107 675 -107 l 332 -107 q 302 -119 314 -107 q 290 -149 290 -131 q 302 -178 290 -167 q 332 -190 314 -190 "},"S":{"ha":856,"x_min":71,"x_max":796,"o":"m 440 -14 q 626 21 546 -14 q 751 117 707 56 q 796 257 796 179 q 748 407 796 351 q 633 489 700 463 q 456 542 565 515 q 322 578 371 561 q 240 627 272 596 q 207 708 207 658 q 276 825 207 783 q 454 867 344 867 q 678 829 569 867 q 700 824 692 824 q 740 842 725 824 q 756 882 756 860 q 717 938 756 924 q 440 983 593 983 q 245 945 326 983 q 122 842 164 907 q 81 699 81 778 q 131 554 81 608 q 250 473 181 500 q 432 417 319 446 q 563 378 517 394 q 640 335 608 363 q 671 265 671 307 q 428 106 671 106 q 154 163 282 106 q 128 168 142 168 q 87 151 103 168 q 71 110 71 133 q 82 76 71 92 q 110 53 93 60 q 440 -14 264 -14 "},"Ś":{"ha":856,"x_min":71,"x_max":796,"o":"m 440 -14 q 626 21 546 -14 q 751 117 707 56 q 796 257 796 179 q 748 407 796 351 q 633 489 700 463 q 456 542 565 515 q 322 578 371 561 q 240 627 272 596 q 207 708 207 658 q 276 825 207 783 q 454 867 344 867 q 678 829 569 867 q 700 824 692 824 q 740 842 725 824 q 756 882 756 860 q 717 938 756 924 q 440 983 593 983 q 245 945 326 983 q 122 842 164 907 q 81 699 81 778 q 131 554 81 608 q 250 473 181 500 q 432 417 319 446 q 563 378 517 394 q 640 335 608 363 q 671 265 671 307 q 428 106 671 106 q 154 163 282 106 q 128 168 142 168 q 87 151 103 168 q 71 110 71 133 q 82 76 71 92 q 110 53 93 60 q 440 -14 264 -14 m 428 1026 q 458 1042 446 1026 l 554 1156 q 568 1190 568 1171 q 553 1228 568 1214 q 517 1242 539 1242 q 471 1215 485 1242 l 400 1090 q 390 1064 390 1076 q 401 1037 390 1047 q 428 1026 411 1026 "},"Ṥ":{"ha":856,"x_min":71,"x_max":796,"o":"m 440 -14 q 626 21 546 -14 q 751 117 707 56 q 796 257 796 179 q 748 407 796 351 q 633 489 700 463 q 456 542 565 515 q 322 578 371 561 q 240 627 272 596 q 207 708 207 658 q 276 825 207 783 q 454 867 344 867 q 678 829 569 867 q 700 824 692 824 q 740 842 725 824 q 756 882 756 860 q 717 938 756 924 q 440 983 593 983 q 245 945 326 983 q 122 842 164 907 q 81 699 81 778 q 131 554 81 608 q 250 473 181 500 q 432 417 319 446 q 563 378 517 394 q 640 335 608 363 q 671 265 671 307 q 428 106 671 106 q 154 163 282 106 q 128 168 142 168 q 87 151 103 168 q 71 110 71 133 q 82 76 71 92 q 110 53 93 60 q 440 -14 264 -14 m 428 1026 q 458 1042 446 1026 l 554 1156 q 568 1190 568 1171 q 553 1228 568 1214 q 517 1242 539 1242 q 471 1215 485 1242 l 400 1090 q 390 1064 390 1076 q 401 1037 390 1047 q 428 1026 411 1026 m 428 1247 q 478 1268 457 1247 q 499 1318 499 1289 q 478 1368 499 1347 q 428 1389 457 1389 q 378 1368 399 1389 q 357 1318 357 1347 q 378 1268 357 1289 q 428 1247 399 1247 "},"Š":{"ha":856,"x_min":71,"x_max":796,"o":"m 440 -14 q 626 21 546 -14 q 751 117 707 56 q 796 257 796 179 q 748 407 796 351 q 633 489 700 463 q 456 542 565 515 q 322 578 371 561 q 240 627 272 596 q 207 708 207 658 q 276 825 207 783 q 454 867 344 867 q 678 829 569 867 q 700 824 692 824 q 740 842 725 824 q 756 882 756 860 q 717 938 756 924 q 440 983 593 983 q 245 945 326 983 q 122 842 164 907 q 81 699 81 778 q 131 554 81 608 q 250 473 181 500 q 432 417 319 446 q 563 378 517 394 q 640 335 608 363 q 671 265 671 307 q 428 106 671 106 q 154 163 282 106 q 128 168 142 168 q 87 151 103 168 q 71 110 71 133 q 82 76 71 92 q 110 53 93 60 q 440 -14 264 -14 m 401 1026 l 454 1026 q 485 1033 472 1026 q 510 1054 497 1040 l 604 1151 q 615 1178 615 1163 q 604 1206 617 1193 q 574 1219 592 1219 q 549 1210 558 1219 l 428 1107 l 307 1210 q 282 1219 297 1219 q 251 1206 264 1219 q 240 1178 239 1193 q 251 1151 240 1163 l 346 1054 q 371 1033 358 1040 q 401 1026 383 1026 "},"Ṧ":{"ha":856,"x_min":71,"x_max":796,"o":"m 440 -14 q 626 21 546 -14 q 751 117 707 56 q 796 257 796 179 q 748 407 796 351 q 633 489 700 463 q 456 542 565 515 q 322 578 371 561 q 240 627 272 596 q 207 708 207 658 q 276 825 207 783 q 454 867 344 867 q 678 829 569 867 q 700 824 692 824 q 740 842 725 824 q 756 882 756 860 q 717 938 756 924 q 440 983 593 983 q 245 945 326 983 q 122 842 164 907 q 81 699 81 778 q 131 554 81 608 q 250 473 181 500 q 432 417 319 446 q 563 378 517 394 q 640 335 608 363 q 671 265 671 307 q 428 106 671 106 q 154 163 282 106 q 128 168 142 168 q 87 151 103 168 q 71 110 71 133 q 82 76 71 92 q 110 53 93 60 q 440 -14 264 -14 m 401 1026 l 454 1026 q 485 1033 472 1026 q 510 1054 497 1040 l 604 1151 q 615 1178 615 1163 q 604 1206 617 1193 q 574 1219 592 1219 q 549 1210 558 1219 l 428 1107 l 307 1210 q 282 1219 297 1219 q 251 1206 264 1219 q 240 1178 239 1193 q 251 1151 240 1163 l 346 1054 q 371 1033 358 1040 q 401 1026 383 1026 m 428 1233 q 478 1254 457 1233 q 499 1304 499 1275 q 478 1354 499 1333 q 428 1375 457 1375 q 378 1354 399 1375 q 357 1304 357 1333 q 378 1254 357 1275 q 428 1233 399 1233 "},"Ş":{"ha":856,"x_min":71,"x_max":796,"o":"m 796 257 q 748 407 796 351 q 633 489 700 463 q 456 542 565 515 q 322 578 371 561 q 240 627 272 596 q 207 708 207 658 q 276 825 207 783 q 454 867 344 867 q 678 829 569 867 q 700 824 692 824 q 740 842 725 824 q 756 882 756 860 q 717 938 756 924 q 440 983 593 983 q 245 945 326 983 q 122 842 164 907 q 81 699 81 778 q 131 554 81 608 q 250 473 181 500 q 432 417 319 446 q 563 378 517 394 q 640 335 608 363 q 671 265 671 307 q 428 106 671 106 q 154 163 282 106 q 128 168 142 168 q 87 151 103 168 q 71 110 71 133 q 82 76 71 92 q 110 53 93 60 q 393 -12 244 -6 l 326 -118 q 321 -137 321 -126 q 328 -153 321 -147 q 346 -160 336 -160 q 360 -156 351 -160 q 421 -140 390 -140 q 457 -151 443 -140 q 471 -183 471 -162 q 392 -247 471 -247 q 310 -224 353 -247 q 296 -219 301 -219 q 276 -228 283 -219 q 269 -247 269 -236 q 274 -260 269 -254 q 285 -271 279 -267 q 410 -307 343 -307 q 524 -275 485 -307 q 564 -179 564 -243 q 534 -109 564 -136 q 457 -82 504 -82 q 410 -87 432 -82 l 453 -14 q 633 23 556 -12 q 753 119 711 58 q 796 257 796 181 "},"Ŝ":{"ha":856,"x_min":71,"x_max":796,"o":"m 440 -14 q 626 21 546 -14 q 751 117 707 56 q 796 257 796 179 q 748 407 796 351 q 633 489 700 463 q 456 542 565 515 q 322 578 371 561 q 240 627 272 596 q 207 708 207 658 q 276 825 207 783 q 454 867 344 867 q 678 829 569 867 q 700 824 692 824 q 740 842 725 824 q 756 882 756 860 q 717 938 756 924 q 440 983 593 983 q 245 945 326 983 q 122 842 164 907 q 81 699 81 778 q 131 554 81 608 q 250 473 181 500 q 432 417 319 446 q 563 378 517 394 q 640 335 608 363 q 671 265 671 307 q 428 106 671 106 q 154 163 282 106 q 128 168 142 168 q 87 151 103 168 q 71 110 71 133 q 82 76 71 92 q 110 53 93 60 q 440 -14 264 -14 m 282 1025 q 307 1035 297 1025 l 428 1138 l 549 1035 q 574 1025 558 1025 q 604 1038 592 1025 q 615 1067 617 1051 q 604 1093 615 1082 l 510 1190 q 485 1211 497 1204 q 454 1218 472 1218 l 401 1218 q 371 1211 383 1218 q 346 1190 358 1204 l 251 1093 q 240 1067 240 1082 q 251 1038 239 1051 q 282 1025 264 1025 "},"Ș":{"ha":856,"x_min":71,"x_max":796,"o":"m 440 -14 q 626 21 546 -14 q 751 117 707 56 q 796 257 796 179 q 748 407 796 351 q 633 489 700 463 q 456 542 565 515 q 322 578 371 561 q 240 627 272 596 q 207 708 207 658 q 276 825 207 783 q 454 867 344 867 q 678 829 569 867 q 700 824 692 824 q 740 842 725 824 q 756 882 756 860 q 717 938 756 924 q 440 983 593 983 q 245 945 326 983 q 122 842 164 907 q 81 699 81 778 q 131 554 81 608 q 250 473 181 500 q 432 417 319 446 q 563 378 517 394 q 640 335 608 363 q 671 265 671 307 q 428 106 671 106 q 154 163 282 106 q 128 168 142 168 q 87 151 103 168 q 71 110 71 133 q 82 76 71 92 q 110 53 93 60 q 440 -14 264 -14 m 386 -365 q 408 -358 397 -365 q 476 -298 450 -333 q 503 -208 503 -262 l 503 -162 q 483 -110 503 -131 q 433 -89 464 -89 q 384 -110 404 -89 q 364 -160 364 -131 q 383 -208 364 -189 q 432 -226 401 -226 q 417 -269 432 -251 q 372 -304 401 -286 q 356 -333 356 -315 q 365 -356 356 -347 q 386 -365 374 -365 "},"Ṡ":{"ha":856,"x_min":71,"x_max":796,"o":"m 440 -14 q 626 21 546 -14 q 751 117 707 56 q 796 257 796 179 q 748 407 796 351 q 633 489 700 463 q 456 542 565 515 q 322 578 371 561 q 240 627 272 596 q 207 708 207 658 q 276 825 207 783 q 454 867 344 867 q 678 829 569 867 q 700 824 692 824 q 740 842 725 824 q 756 882 756 860 q 717 938 756 924 q 440 983 593 983 q 245 945 326 983 q 122 842 164 907 q 81 699 81 778 q 131 554 81 608 q 250 473 181 500 q 432 417 319 446 q 563 378 517 394 q 640 335 608 363 q 671 265 671 307 q 428 106 671 106 q 154 163 282 106 q 128 168 142 168 q 87 151 103 168 q 71 110 71 133 q 82 76 71 92 q 110 53 93 60 q 440 -14 264 -14 m 428 1038 q 478 1058 457 1038 q 499 1108 499 1079 q 478 1158 499 1138 q 428 1179 457 1179 q 378 1158 399 1179 q 357 1108 357 1138 q 378 1058 357 1079 q 428 1038 399 1038 "},"Ṣ":{"ha":856,"x_min":71,"x_max":796,"o":"m 440 -14 q 626 21 546 -14 q 751 117 707 56 q 796 257 796 179 q 748 407 796 351 q 633 489 700 463 q 456 542 565 515 q 322 578 371 561 q 240 627 272 596 q 207 708 207 658 q 276 825 207 783 q 454 867 344 867 q 678 829 569 867 q 700 824 692 824 q 740 842 725 824 q 756 882 756 860 q 717 938 756 924 q 440 983 593 983 q 245 945 326 983 q 122 842 164 907 q 81 699 81 778 q 131 554 81 608 q 250 473 181 500 q 432 417 319 446 q 563 378 517 394 q 640 335 608 363 q 671 265 671 307 q 428 106 671 106 q 154 163 282 106 q 128 168 142 168 q 87 151 103 168 q 71 110 71 133 q 82 76 71 92 q 110 53 93 60 q 440 -14 264 -14 m 428 -231 q 478 -210 457 -231 q 499 -160 499 -189 q 478 -110 499 -131 q 428 -89 457 -89 q 378 -110 399 -89 q 357 -160 357 -131 q 378 -210 357 -189 q 428 -231 399 -231 "},"Ṩ":{"ha":856,"x_min":71,"x_max":796,"o":"m 440 -14 q 626 21 546 -14 q 751 117 707 56 q 796 257 796 179 q 748 407 796 351 q 633 489 700 463 q 456 542 565 515 q 322 578 371 561 q 240 627 272 596 q 207 708 207 658 q 276 825 207 783 q 454 867 344 867 q 678 829 569 867 q 700 824 692 824 q 740 842 725 824 q 756 882 756 860 q 717 938 756 924 q 440 983 593 983 q 245 945 326 983 q 122 842 164 907 q 81 699 81 778 q 131 554 81 608 q 250 473 181 500 q 432 417 319 446 q 563 378 517 394 q 640 335 608 363 q 671 265 671 307 q 428 106 671 106 q 154 163 282 106 q 128 168 142 168 q 87 151 103 168 q 71 110 71 133 q 82 76 71 92 q 110 53 93 60 q 440 -14 264 -14 m 428 -231 q 478 -210 457 -231 q 499 -160 499 -189 q 478 -110 499 -131 q 428 -89 457 -89 q 378 -110 399 -89 q 357 -160 357 -131 q 378 -210 357 -189 q 428 -231 399 -231 m 428 1038 q 478 1058 457 1038 q 499 1108 499 1079 q 478 1158 499 1138 q 428 1179 457 1179 q 378 1158 399 1179 q 357 1108 357 1138 q 378 1058 357 1079 q 428 1038 399 1038 "},"ẞ":{"ha":956,"x_min":135,"x_max":883,"o":"m 638 567 l 767 708 q 813 824 813 758 q 768 927 813 885 q 643 969 724 969 l 308 969 q 178 922 222 969 q 135 794 135 875 l 135 56 q 153 11 135 29 q 197 -7 171 -7 q 242 11 224 -7 q 261 56 261 29 l 261 801 q 276 837 261 822 q 311 851 292 851 l 610 851 q 652 840 638 851 q 667 807 667 828 q 639 747 667 779 l 485 576 q 458 517 458 546 q 474 478 458 493 q 515 464 489 464 q 700 423 639 464 q 761 292 761 382 q 717 156 761 207 q 589 104 672 104 q 494 115 531 104 q 417 149 458 125 q 386 157 401 157 q 349 140 365 157 q 333 101 333 122 q 361 53 333 71 q 460 5 407 24 q 589 -14 514 -14 q 806 68 729 -14 q 883 286 883 150 q 820 480 883 406 q 638 567 757 554 "},"Ə":{"ha":1100,"x_min":76,"x_max":1024,"o":"m 533 983 q 193 897 344 983 q 163 844 163 881 q 178 808 163 824 q 218 792 194 792 q 243 797 232 792 q 369 846 303 829 q 522 863 436 863 q 781 775 685 863 q 894 543 878 688 l 142 543 q 96 523 115 543 q 76 471 76 503 q 135 218 76 328 q 302 47 194 108 q 550 -14 410 -14 q 795 50 689 -14 q 961 227 901 114 q 1024 485 1021 340 q 960 749 1024 636 q 785 923 897 863 q 533 983 674 983 m 550 104 q 381 145 454 104 q 267 260 308 186 q 219 429 225 333 l 894 429 q 839 262 883 336 q 720 146 794 188 q 550 104 646 104 "},"T":{"ha":846,"x_min":18,"x_max":828,"o":"m 422 -7 q 467 11 449 -7 q 486 56 486 29 l 486 851 l 768 851 q 810 868 793 851 q 828 910 828 885 q 810 952 828 935 q 768 969 793 969 l 76 969 q 35 952 51 969 q 18 910 18 935 q 35 868 18 885 q 76 851 51 851 l 360 851 l 360 56 q 378 11 360 29 q 422 -7 396 -7 "},"Ŧ":{"ha":846,"x_min":18,"x_max":828,"o":"m 422 -7 q 467 11 449 -7 q 486 56 486 29 l 486 435 l 644 435 q 680 449 665 435 q 694 483 694 463 q 680 519 694 504 q 644 533 665 533 l 486 533 l 486 851 l 768 851 q 810 868 793 851 q 828 910 828 885 q 810 952 828 935 q 768 969 793 969 l 76 969 q 35 952 51 969 q 18 910 18 935 q 35 868 18 885 q 76 851 51 851 l 360 851 l 360 533 l 200 533 q 166 519 181 533 q 151 483 151 506 q 165 449 151 463 q 200 435 179 435 l 360 435 l 360 56 q 378 11 360 29 q 422 -7 396 -7 "},"Ť":{"ha":846,"x_min":18,"x_max":828,"o":"m 422 -7 q 467 11 449 -7 q 486 56 486 29 l 486 851 l 768 851 q 810 868 793 851 q 828 910 828 885 q 810 952 828 935 q 768 969 793 969 l 76 969 q 35 952 51 969 q 18 910 18 935 q 35 868 18 885 q 76 851 51 851 l 360 851 l 360 56 q 378 11 360 29 q 422 -7 396 -7 m 397 1026 l 450 1026 q 481 1033 468 1026 q 506 1054 493 1040 l 600 1151 q 611 1178 611 1163 q 600 1206 613 1193 q 569 1219 588 1219 q 544 1210 554 1219 l 424 1107 l 303 1210 q 278 1219 293 1219 q 247 1206 260 1219 q 236 1178 235 1193 q 247 1151 236 1163 l 342 1054 q 367 1033 354 1040 q 397 1026 379 1026 "},"Ţ":{"ha":846,"x_min":18,"x_max":828,"o":"m 768 969 l 76 969 q 35 952 51 969 q 18 910 18 935 q 35 868 18 885 q 76 851 51 851 l 360 851 l 360 56 q 370 22 360 38 q 396 -1 381 6 l 322 -118 q 317 -137 317 -126 q 324 -153 317 -147 q 342 -160 332 -160 q 356 -156 347 -160 q 417 -140 386 -140 q 453 -151 439 -140 q 467 -183 467 -162 q 388 -247 467 -247 q 306 -224 349 -247 q 292 -219 297 -219 q 272 -228 279 -219 q 265 -247 265 -236 q 270 -260 265 -254 q 281 -271 275 -267 q 406 -307 339 -307 q 520 -275 481 -307 q 560 -179 560 -243 q 530 -109 560 -136 q 453 -82 500 -82 q 406 -87 428 -82 l 458 4 q 478 26 471 13 q 486 56 486 40 l 486 851 l 768 851 q 810 868 793 851 q 828 910 828 885 q 810 952 828 935 q 768 969 793 969 "},"Ț":{"ha":846,"x_min":18,"x_max":828,"o":"m 422 -7 q 467 11 449 -7 q 486 56 486 29 l 486 851 l 768 851 q 810 868 793 851 q 828 910 828 885 q 810 952 828 935 q 768 969 793 969 l 76 969 q 35 952 51 969 q 18 910 18 935 q 35 868 18 885 q 76 851 51 851 l 360 851 l 360 56 q 378 11 360 29 q 422 -7 396 -7 m 382 -365 q 404 -358 393 -365 q 472 -298 446 -333 q 499 -208 499 -262 l 499 -162 q 479 -110 499 -131 q 429 -89 460 -89 q 380 -110 400 -89 q 360 -160 360 -131 q 378 -208 360 -189 q 428 -226 397 -226 q 413 -269 428 -251 q 368 -304 397 -286 q 351 -333 351 -315 q 360 -356 351 -347 q 382 -365 369 -365 "},"Ṭ":{"ha":846,"x_min":18,"x_max":828,"o":"m 422 -7 q 467 11 449 -7 q 486 56 486 29 l 486 851 l 768 851 q 810 868 793 851 q 828 910 828 885 q 810 952 828 935 q 768 969 793 969 l 76 969 q 35 952 51 969 q 18 910 18 935 q 35 868 18 885 q 76 851 51 851 l 360 851 l 360 56 q 378 11 360 29 q 422 -7 396 -7 m 424 -231 q 474 -210 453 -231 q 494 -160 494 -189 q 474 -110 494 -131 q 424 -89 453 -89 q 374 -110 394 -89 q 353 -160 353 -131 q 374 -210 353 -189 q 424 -231 394 -231 "},"Ṯ":{"ha":846,"x_min":18,"x_max":828,"o":"m 422 -7 q 467 11 449 -7 q 486 56 486 29 l 486 851 l 768 851 q 810 868 793 851 q 828 910 828 885 q 810 952 828 935 q 768 969 793 969 l 76 969 q 35 952 51 969 q 18 910 18 935 q 35 868 18 885 q 76 851 51 851 l 360 851 l 360 56 q 378 11 360 29 q 422 -7 396 -7 m 261 -190 l 586 -190 q 616 -178 604 -190 q 628 -149 628 -167 q 616 -119 628 -131 q 586 -107 604 -107 l 261 -107 q 231 -119 243 -107 q 219 -149 219 -131 q 231 -178 219 -167 q 261 -190 243 -190 "},"U":{"ha":1053,"x_min":128,"x_max":925,"o":"m 526 -14 q 717 28 625 -14 q 867 155 808 69 q 925 364 925 240 l 925 913 q 906 958 925 939 q 861 976 888 976 q 817 958 835 976 q 799 913 799 939 l 799 360 q 760 218 799 276 q 660 131 722 160 q 526 101 597 101 q 393 131 456 101 q 292 218 331 160 q 254 360 254 276 l 254 913 q 235 958 254 939 q 190 976 217 976 q 146 958 164 976 q 128 913 128 939 l 128 364 q 186 155 128 240 q 336 28 244 69 q 526 -14 428 -14 "},"Ú":{"ha":1053,"x_min":128,"x_max":925,"o":"m 526 -14 q 717 28 625 -14 q 867 155 808 69 q 925 364 925 240 l 925 913 q 906 958 925 939 q 861 976 888 976 q 817 958 835 976 q 799 913 799 939 l 799 360 q 760 218 799 276 q 660 131 722 160 q 526 101 597 101 q 393 131 456 101 q 292 218 331 160 q 254 360 254 276 l 254 913 q 235 958 254 939 q 190 976 217 976 q 146 958 164 976 q 128 913 128 939 l 128 364 q 186 155 128 240 q 336 28 244 69 q 526 -14 428 -14 m 526 1026 q 557 1042 544 1026 l 653 1156 q 667 1190 667 1171 q 652 1228 667 1214 q 615 1242 638 1242 q 569 1215 583 1242 l 499 1090 q 489 1064 489 1076 q 499 1037 489 1047 q 526 1026 510 1026 "},"Ŭ":{"ha":1053,"x_min":128,"x_max":925,"o":"m 526 -14 q 717 28 625 -14 q 867 155 808 69 q 925 364 925 240 l 925 913 q 906 958 925 939 q 861 976 888 976 q 817 958 835 976 q 799 913 799 939 l 799 360 q 760 218 799 276 q 660 131 722 160 q 526 101 597 101 q 393 131 456 101 q 292 218 331 160 q 254 360 254 276 l 254 913 q 235 958 254 939 q 190 976 217 976 q 146 958 164 976 q 128 913 128 939 l 128 364 q 186 155 128 240 q 336 28 244 69 q 526 -14 428 -14 m 526 1039 q 643 1069 592 1039 q 721 1151 694 1100 q 725 1171 725 1160 q 713 1201 725 1189 q 682 1214 701 1214 q 643 1188 656 1214 q 597 1138 628 1156 q 526 1119 567 1119 q 456 1138 486 1119 q 410 1188 425 1156 q 371 1214 397 1214 q 340 1201 351 1214 q 328 1171 328 1189 q 332 1151 328 1160 q 410 1069 358 1100 q 526 1039 461 1039 "},"Û":{"ha":1053,"x_min":128,"x_max":925,"o":"m 526 -14 q 717 28 625 -14 q 867 155 808 69 q 925 364 925 240 l 925 913 q 906 958 925 939 q 861 976 888 976 q 817 958 835 976 q 799 913 799 939 l 799 360 q 760 218 799 276 q 660 131 722 160 q 526 101 597 101 q 393 131 456 101 q 292 218 331 160 q 254 360 254 276 l 254 913 q 235 958 254 939 q 190 976 217 976 q 146 958 164 976 q 128 913 128 939 l 128 364 q 186 155 128 240 q 336 28 244 69 q 526 -14 428 -14 m 381 1025 q 406 1035 396 1025 l 526 1138 l 647 1035 q 672 1025 657 1025 q 703 1038 690 1025 q 714 1067 715 1051 q 703 1093 714 1082 l 608 1190 q 583 1211 596 1204 q 553 1218 571 1218 l 500 1218 q 469 1211 482 1218 q 444 1190 457 1204 l 350 1093 q 339 1067 339 1082 q 350 1038 338 1051 q 381 1025 363 1025 "},"Ȕ":{"ha":1053,"x_min":128,"x_max":925,"o":"m 526 -14 q 717 28 625 -14 q 867 155 808 69 q 925 364 925 240 l 925 913 q 906 958 925 939 q 861 976 888 976 q 817 958 835 976 q 799 913 799 939 l 799 360 q 760 218 799 276 q 660 131 722 160 q 526 101 597 101 q 393 131 456 101 q 292 218 331 160 q 254 360 254 276 l 254 913 q 235 958 254 939 q 190 976 217 976 q 146 958 164 976 q 128 913 128 939 l 128 364 q 186 155 128 240 q 336 28 244 69 q 526 -14 428 -14 m 419 1026 q 450 1042 438 1026 l 546 1156 q 560 1190 560 1171 q 545 1228 560 1214 q 508 1242 531 1242 q 463 1215 476 1242 l 392 1090 q 382 1064 382 1076 q 392 1037 382 1047 q 419 1026 403 1026 m 633 1026 q 664 1042 651 1026 l 760 1156 q 774 1190 774 1171 q 759 1228 774 1214 q 722 1242 744 1242 q 676 1215 690 1242 l 606 1090 q 596 1064 596 1076 q 606 1037 596 1047 q 633 1026 617 1026 "},"Ü":{"ha":1053,"x_min":128,"x_max":925,"o":"m 526 -14 q 717 28 625 -14 q 867 155 808 69 q 925 364 925 240 l 925 913 q 906 958 925 939 q 861 976 888 976 q 817 958 835 976 q 799 913 799 939 l 799 360 q 760 218 799 276 q 660 131 722 160 q 526 101 597 101 q 393 131 456 101 q 292 218 331 160 q 254 360 254 276 l 254 913 q 235 958 254 939 q 190 976 217 976 q 146 958 164 976 q 128 913 128 939 l 128 364 q 186 155 128 240 q 336 28 244 69 q 526 -14 428 -14 m 410 1038 q 460 1058 439 1038 q 481 1108 481 1079 q 460 1158 481 1138 q 410 1179 439 1179 q 360 1158 381 1179 q 339 1108 339 1138 q 360 1058 339 1079 q 410 1038 381 1038 m 643 1038 q 693 1058 672 1038 q 714 1108 714 1079 q 693 1158 714 1138 q 643 1179 672 1179 q 593 1158 614 1179 q 572 1108 572 1138 q 593 1058 572 1079 q 643 1038 614 1038 "},"Ụ":{"ha":1053,"x_min":128,"x_max":925,"o":"m 526 -14 q 717 28 625 -14 q 867 155 808 69 q 925 364 925 240 l 925 913 q 906 958 925 939 q 861 976 888 976 q 817 958 835 976 q 799 913 799 939 l 799 360 q 760 218 799 276 q 660 131 722 160 q 526 101 597 101 q 393 131 456 101 q 292 218 331 160 q 254 360 254 276 l 254 913 q 235 958 254 939 q 190 976 217 976 q 146 958 164 976 q 128 913 128 939 l 128 364 q 186 155 128 240 q 336 28 244 69 q 526 -14 428 -14 m 526 -231 q 576 -210 556 -231 q 597 -160 597 -189 q 576 -110 597 -131 q 526 -89 556 -89 q 476 -110 497 -89 q 456 -160 456 -131 q 476 -210 456 -189 q 526 -231 497 -231 "},"Ù":{"ha":1053,"x_min":128,"x_max":925,"o":"m 526 -14 q 717 28 625 -14 q 867 155 808 69 q 925 364 925 240 l 925 913 q 906 958 925 939 q 861 976 888 976 q 817 958 835 976 q 799 913 799 939 l 799 360 q 760 218 799 276 q 660 131 722 160 q 526 101 597 101 q 393 131 456 101 q 292 218 331 160 q 254 360 254 276 l 254 913 q 235 958 254 939 q 190 976 217 976 q 146 958 164 976 q 128 913 128 939 l 128 364 q 186 155 128 240 q 336 28 244 69 q 526 -14 428 -14 m 526 1026 q 553 1037 543 1026 q 564 1064 564 1047 q 554 1090 564 1076 l 483 1215 q 438 1242 469 1242 q 400 1228 414 1242 q 386 1190 386 1214 q 400 1156 386 1171 l 496 1042 q 526 1026 508 1026 "},"Ủ":{"ha":1053,"x_min":128,"x_max":925,"o":"m 526 -14 q 717 28 625 -14 q 867 155 808 69 q 925 364 925 240 l 925 913 q 906 958 925 939 q 861 976 888 976 q 817 958 835 976 q 799 913 799 939 l 799 360 q 760 218 799 276 q 660 131 722 160 q 526 101 597 101 q 393 131 456 101 q 292 218 331 160 q 254 360 254 276 l 254 913 q 235 958 254 939 q 190 976 217 976 q 146 958 164 976 q 128 913 128 939 l 128 364 q 186 155 128 240 q 336 28 244 69 q 526 -14 428 -14 m 517 1025 q 549 1046 540 1025 q 565 1070 554 1060 q 592 1092 575 1081 q 633 1131 619 1113 q 647 1179 647 1149 q 617 1245 647 1221 q 533 1269 586 1269 q 477 1263 506 1269 q 426 1242 449 1256 q 411 1215 411 1232 q 419 1195 411 1204 q 440 1186 428 1186 q 472 1199 446 1186 q 533 1211 499 1211 q 569 1203 556 1211 q 582 1178 582 1194 q 571 1151 582 1163 q 539 1126 560 1140 q 498 1093 511 1108 q 485 1054 485 1078 q 494 1033 485 1040 q 517 1025 504 1025 "},"Ư":{"ha":1060,"x_min":128,"x_max":1138,"o":"m 526 -14 q 717 28 625 -14 q 867 155 808 69 q 925 364 925 240 l 925 869 l 942 869 q 1088 920 1038 869 q 1138 1046 1138 971 q 1119 1148 1138 1111 q 1068 1185 1100 1185 q 1035 1172 1049 1185 q 1022 1139 1022 1158 q 1026 1110 1022 1126 q 1032 1068 1032 1088 q 1008 995 1032 1021 q 939 969 983 969 q 896 974 914 969 q 861 976 874 976 q 817 958 835 976 q 799 913 799 939 l 799 360 q 760 218 799 276 q 660 131 722 160 q 526 101 597 101 q 393 131 456 101 q 292 218 331 160 q 254 360 254 276 l 254 913 q 235 958 254 939 q 190 976 217 976 q 146 958 164 976 q 128 913 128 939 l 128 364 q 186 155 128 240 q 336 28 244 69 q 526 -14 428 -14 "},"Ứ":{"ha":1060,"x_min":128,"x_max":1138,"o":"m 526 -14 q 717 28 625 -14 q 867 155 808 69 q 925 364 925 240 l 925 869 l 942 869 q 1088 920 1038 869 q 1138 1046 1138 971 q 1119 1148 1138 1111 q 1068 1185 1100 1185 q 1035 1172 1049 1185 q 1022 1139 1022 1158 q 1026 1110 1022 1126 q 1032 1068 1032 1088 q 1008 995 1032 1021 q 939 969 983 969 q 896 974 914 969 q 861 976 874 976 q 817 958 835 976 q 799 913 799 939 l 799 360 q 760 218 799 276 q 660 131 722 160 q 526 101 597 101 q 393 131 456 101 q 292 218 331 160 q 254 360 254 276 l 254 913 q 235 958 254 939 q 190 976 217 976 q 146 958 164 976 q 128 913 128 939 l 128 364 q 186 155 128 240 q 336 28 244 69 q 526 -14 428 -14 m 526 1026 q 557 1042 544 1026 l 653 1156 q 667 1190 667 1171 q 652 1228 667 1214 q 615 1242 638 1242 q 569 1215 583 1242 l 499 1090 q 489 1064 489 1076 q 499 1037 489 1047 q 526 1026 510 1026 "},"Ự":{"ha":1060,"x_min":128,"x_max":1138,"o":"m 526 -14 q 717 28 625 -14 q 867 155 808 69 q 925 364 925 240 l 925 869 l 942 869 q 1088 920 1038 869 q 1138 1046 1138 971 q 1119 1148 1138 1111 q 1068 1185 1100 1185 q 1035 1172 1049 1185 q 1022 1139 1022 1158 q 1026 1110 1022 1126 q 1032 1068 1032 1088 q 1008 995 1032 1021 q 939 969 983 969 q 896 974 914 969 q 861 976 874 976 q 817 958 835 976 q 799 913 799 939 l 799 360 q 760 218 799 276 q 660 131 722 160 q 526 101 597 101 q 393 131 456 101 q 292 218 331 160 q 254 360 254 276 l 254 913 q 235 958 254 939 q 190 976 217 976 q 146 958 164 976 q 128 913 128 939 l 128 364 q 186 155 128 240 q 336 28 244 69 q 526 -14 428 -14 m 526 -231 q 576 -210 556 -231 q 597 -160 597 -189 q 576 -110 597 -131 q 526 -89 556 -89 q 476 -110 497 -89 q 456 -160 456 -131 q 476 -210 456 -189 q 526 -231 497 -231 "},"Ừ":{"ha":1060,"x_min":128,"x_max":1138,"o":"m 526 -14 q 717 28 625 -14 q 867 155 808 69 q 925 364 925 240 l 925 869 l 942 869 q 1088 920 1038 869 q 1138 1046 1138 971 q 1119 1148 1138 1111 q 1068 1185 1100 1185 q 1035 1172 1049 1185 q 1022 1139 1022 1158 q 1026 1110 1022 1126 q 1032 1068 1032 1088 q 1008 995 1032 1021 q 939 969 983 969 q 896 974 914 969 q 861 976 874 976 q 817 958 835 976 q 799 913 799 939 l 799 360 q 760 218 799 276 q 660 131 722 160 q 526 101 597 101 q 393 131 456 101 q 292 218 331 160 q 254 360 254 276 l 254 913 q 235 958 254 939 q 190 976 217 976 q 146 958 164 976 q 128 913 128 939 l 128 364 q 186 155 128 240 q 336 28 244 69 q 526 -14 428 -14 m 526 1026 q 553 1037 543 1026 q 564 1064 564 1047 q 554 1090 564 1076 l 483 1215 q 438 1242 469 1242 q 400 1228 414 1242 q 386 1190 386 1214 q 400 1156 386 1171 l 496 1042 q 526 1026 508 1026 "},"Ử":{"ha":1060,"x_min":128,"x_max":1138,"o":"m 526 -14 q 717 28 625 -14 q 867 155 808 69 q 925 364 925 240 l 925 869 l 942 869 q 1088 920 1038 869 q 1138 1046 1138 971 q 1119 1148 1138 1111 q 1068 1185 1100 1185 q 1035 1172 1049 1185 q 1022 1139 1022 1158 q 1026 1110 1022 1126 q 1032 1068 1032 1088 q 1008 995 1032 1021 q 939 969 983 969 q 896 974 914 969 q 861 976 874 976 q 817 958 835 976 q 799 913 799 939 l 799 360 q 760 218 799 276 q 660 131 722 160 q 526 101 597 101 q 393 131 456 101 q 292 218 331 160 q 254 360 254 276 l 254 913 q 235 958 254 939 q 190 976 217 976 q 146 958 164 976 q 128 913 128 939 l 128 364 q 186 155 128 240 q 336 28 244 69 q 526 -14 428 -14 m 517 1025 q 549 1046 540 1025 q 565 1070 554 1060 q 592 1092 575 1081 q 633 1131 619 1113 q 647 1179 647 1149 q 617 1245 647 1221 q 533 1269 586 1269 q 477 1263 506 1269 q 426 1242 449 1256 q 411 1215 411 1232 q 419 1195 411 1204 q 440 1186 428 1186 q 472 1199 446 1186 q 533 1211 499 1211 q 569 1203 556 1211 q 582 1178 582 1194 q 571 1151 582 1163 q 539 1126 560 1140 q 498 1093 511 1108 q 485 1054 485 1078 q 494 1033 485 1040 q 517 1025 504 1025 "},"Ữ":{"ha":1060,"x_min":128,"x_max":1138,"o":"m 526 -14 q 717 28 625 -14 q 867 155 808 69 q 925 364 925 240 l 925 869 l 942 869 q 1088 920 1038 869 q 1138 1046 1138 971 q 1119 1148 1138 1111 q 1068 1185 1100 1185 q 1035 1172 1049 1185 q 1022 1139 1022 1158 q 1026 1110 1022 1126 q 1032 1068 1032 1088 q 1008 995 1032 1021 q 939 969 983 969 q 896 974 914 969 q 861 976 874 976 q 817 958 835 976 q 799 913 799 939 l 799 360 q 760 218 799 276 q 660 131 722 160 q 526 101 597 101 q 393 131 456 101 q 292 218 331 160 q 254 360 254 276 l 254 913 q 235 958 254 939 q 190 976 217 976 q 146 958 164 976 q 128 913 128 939 l 128 364 q 186 155 128 240 q 336 28 244 69 q 526 -14 428 -14 m 335 1032 q 367 1057 358 1032 q 421 1101 385 1101 q 467 1093 444 1101 q 521 1069 489 1085 q 582 1044 557 1053 q 635 1035 607 1035 q 718 1076 685 1035 q 751 1167 751 1118 q 742 1188 750 1179 q 719 1197 733 1197 q 685 1168 696 1197 q 666 1140 678 1150 q 633 1131 654 1131 q 585 1139 608 1131 q 531 1163 563 1147 q 472 1188 496 1179 q 419 1196 447 1196 q 358 1175 385 1196 q 317 1124 332 1154 q 303 1064 303 1093 q 313 1041 303 1050 q 335 1032 322 1032 "},"Ű":{"ha":1053,"x_min":128,"x_max":925,"o":"m 526 -14 q 717 28 625 -14 q 867 155 808 69 q 925 364 925 240 l 925 913 q 906 958 925 939 q 861 976 888 976 q 817 958 835 976 q 799 913 799 939 l 799 360 q 760 218 799 276 q 660 131 722 160 q 526 101 597 101 q 393 131 456 101 q 292 218 331 160 q 254 360 254 276 l 254 913 q 235 958 254 939 q 190 976 217 976 q 146 958 164 976 q 128 913 128 939 l 128 364 q 186 155 128 240 q 336 28 244 69 q 526 -14 428 -14 m 444 1026 q 481 1050 468 1026 l 538 1160 q 547 1194 547 1178 q 533 1228 547 1215 q 499 1240 518 1240 q 467 1229 482 1240 q 446 1197 451 1218 l 408 1072 q 407 1061 407 1068 q 418 1036 407 1046 q 444 1026 429 1026 m 606 1026 q 642 1050 629 1026 l 699 1160 q 708 1194 708 1178 q 694 1228 708 1215 q 660 1240 679 1240 q 628 1229 643 1240 q 607 1197 613 1218 l 569 1072 q 568 1061 568 1068 q 579 1036 568 1046 q 606 1026 590 1026 "},"Ȗ":{"ha":1053,"x_min":128,"x_max":925,"o":"m 526 -14 q 717 28 625 -14 q 867 155 808 69 q 925 364 925 240 l 925 913 q 906 958 925 939 q 861 976 888 976 q 817 958 835 976 q 799 913 799 939 l 799 360 q 760 218 799 276 q 660 131 722 160 q 526 101 597 101 q 393 131 456 101 q 292 218 331 160 q 254 360 254 276 l 254 913 q 235 958 254 939 q 190 976 217 976 q 146 958 164 976 q 128 913 128 939 l 128 364 q 186 155 128 240 q 336 28 244 69 q 526 -14 428 -14 m 371 1026 q 410 1053 397 1026 q 456 1103 425 1085 q 526 1121 486 1121 q 597 1103 567 1121 q 643 1053 628 1085 q 682 1026 656 1026 q 713 1039 701 1026 q 725 1069 725 1051 q 721 1089 725 1081 q 643 1171 694 1140 q 526 1201 592 1201 q 410 1171 461 1201 q 332 1089 358 1140 q 328 1069 328 1081 q 340 1039 328 1051 q 371 1026 351 1026 "},"Ū":{"ha":1053,"x_min":128,"x_max":925,"o":"m 526 -14 q 717 28 625 -14 q 867 155 808 69 q 925 364 925 240 l 925 913 q 906 958 925 939 q 861 976 888 976 q 817 958 835 976 q 799 913 799 939 l 799 360 q 760 218 799 276 q 660 131 722 160 q 526 101 597 101 q 393 131 456 101 q 292 218 331 160 q 254 360 254 276 l 254 913 q 235 958 254 939 q 190 976 217 976 q 146 958 164 976 q 128 913 128 939 l 128 364 q 186 155 128 240 q 336 28 244 69 q 526 -14 428 -14 m 364 1056 l 689 1056 q 719 1067 707 1056 q 731 1097 731 1079 q 719 1127 731 1115 q 689 1139 707 1139 l 364 1139 q 334 1127 346 1139 q 322 1097 322 1115 q 334 1067 322 1079 q 364 1056 346 1056 "},"Ṻ":{"ha":1053,"x_min":128,"x_max":925,"o":"m 526 -14 q 717 28 625 -14 q 867 155 808 69 q 925 364 925 240 l 925 913 q 906 958 925 939 q 861 976 888 976 q 817 958 835 976 q 799 913 799 939 l 799 360 q 760 218 799 276 q 660 131 722 160 q 526 101 597 101 q 393 131 456 101 q 292 218 331 160 q 254 360 254 276 l 254 913 q 235 958 254 939 q 190 976 217 976 q 146 958 164 976 q 128 913 128 939 l 128 364 q 186 155 128 240 q 336 28 244 69 q 526 -14 428 -14 m 364 1056 l 689 1056 q 719 1067 707 1056 q 731 1097 731 1079 q 719 1127 731 1115 q 689 1139 707 1139 l 364 1139 q 334 1127 346 1139 q 322 1097 322 1115 q 334 1067 322 1079 q 364 1056 346 1056 m 410 1206 q 460 1226 439 1206 q 481 1276 481 1247 q 460 1326 481 1306 q 410 1347 439 1347 q 360 1326 381 1347 q 339 1276 339 1306 q 360 1226 339 1247 q 410 1206 381 1206 m 643 1206 q 693 1226 672 1206 q 714 1276 714 1247 q 693 1326 714 1306 q 643 1347 672 1347 q 593 1326 614 1347 q 572 1276 572 1306 q 593 1226 572 1247 q 643 1206 614 1206 "},"Ų":{"ha":1053,"x_min":128,"x_max":925,"o":"m 553 -282 q 672 -249 625 -282 q 688 -224 688 -237 q 679 -201 688 -210 q 657 -193 671 -193 q 644 -196 653 -193 q 596 -204 617 -204 q 525 -137 525 -204 q 575 -50 525 -93 q 686 15 625 -7 q 858 143 792 54 q 925 364 925 232 l 925 913 q 906 958 925 939 q 861 976 888 976 q 817 958 835 976 q 799 913 799 939 l 799 360 q 760 218 799 276 q 660 131 722 160 q 526 101 597 101 q 393 131 456 101 q 292 218 331 160 q 254 360 254 276 l 254 913 q 235 958 254 939 q 190 976 217 976 q 146 958 164 976 q 128 913 128 939 l 128 364 q 185 157 128 242 q 332 30 242 72 q 519 -14 422 -12 q 424 -165 424 -76 q 462 -250 424 -218 q 553 -282 500 -282 "},"Ů":{"ha":1053,"x_min":128,"x_max":925,"o":"m 526 -14 q 717 28 625 -14 q 867 155 808 69 q 925 364 925 240 l 925 913 q 906 958 925 939 q 861 976 888 976 q 817 958 835 976 q 799 913 799 939 l 799 360 q 760 218 799 276 q 660 131 722 160 q 526 101 597 101 q 393 131 456 101 q 292 218 331 160 q 254 360 254 276 l 254 913 q 235 958 254 939 q 190 976 217 976 q 146 958 164 976 q 128 913 128 939 l 128 364 q 186 155 128 240 q 336 28 244 69 q 526 -14 428 -14 m 526 1004 q 619 1042 581 1004 q 657 1135 657 1081 q 619 1227 657 1189 q 526 1265 581 1265 q 434 1227 472 1265 q 396 1135 396 1189 q 434 1042 396 1081 q 526 1004 472 1004 m 526 1067 q 478 1087 499 1067 q 458 1135 458 1107 q 478 1183 458 1163 q 526 1203 499 1203 q 574 1183 554 1203 q 594 1135 594 1163 q 574 1087 594 1107 q 526 1067 554 1067 "},"Ũ":{"ha":1053,"x_min":128,"x_max":925,"o":"m 526 -14 q 717 28 625 -14 q 867 155 808 69 q 925 364 925 240 l 925 913 q 906 958 925 939 q 861 976 888 976 q 817 958 835 976 q 799 913 799 939 l 799 360 q 760 218 799 276 q 660 131 722 160 q 526 101 597 101 q 393 131 456 101 q 292 218 331 160 q 254 360 254 276 l 254 913 q 235 958 254 939 q 190 976 217 976 q 146 958 164 976 q 128 913 128 939 l 128 364 q 186 155 128 240 q 336 28 244 69 q 526 -14 428 -14 m 335 1032 q 367 1057 358 1032 q 421 1101 385 1101 q 467 1093 444 1101 q 521 1069 489 1085 q 582 1044 557 1053 q 635 1035 607 1035 q 718 1076 685 1035 q 751 1167 751 1118 q 742 1188 750 1179 q 719 1197 733 1197 q 685 1168 696 1197 q 666 1140 678 1150 q 633 1131 654 1131 q 585 1139 608 1131 q 531 1163 563 1147 q 472 1188 496 1179 q 419 1196 447 1196 q 358 1175 385 1196 q 317 1124 332 1154 q 303 1064 303 1093 q 313 1041 303 1050 q 335 1032 322 1032 "},"Ṹ":{"ha":1053,"x_min":128,"x_max":925,"o":"m 526 -14 q 717 28 625 -14 q 867 155 808 69 q 925 364 925 240 l 925 913 q 906 958 925 939 q 861 976 888 976 q 817 958 835 976 q 799 913 799 939 l 799 360 q 760 218 799 276 q 660 131 722 160 q 526 101 597 101 q 393 131 456 101 q 292 218 331 160 q 254 360 254 276 l 254 913 q 235 958 254 939 q 190 976 217 976 q 146 958 164 976 q 128 913 128 939 l 128 364 q 186 155 128 240 q 336 28 244 69 q 526 -14 428 -14 m 335 1032 q 367 1057 358 1032 q 421 1101 385 1101 q 467 1093 444 1101 q 521 1069 489 1085 q 582 1044 557 1053 q 635 1035 607 1035 q 718 1076 685 1035 q 751 1167 751 1118 q 742 1188 750 1179 q 719 1197 733 1197 q 685 1168 696 1197 q 666 1140 678 1150 q 633 1131 654 1131 q 585 1139 608 1131 q 531 1163 563 1147 q 472 1188 496 1179 q 419 1196 447 1196 q 358 1175 385 1196 q 317 1124 332 1154 q 303 1064 303 1093 q 313 1041 303 1050 q 335 1032 322 1032 m 526 1208 q 557 1224 544 1208 l 653 1338 q 667 1372 667 1353 q 652 1410 667 1396 q 615 1424 638 1424 q 569 1397 583 1424 l 499 1272 q 489 1246 489 1258 q 499 1219 489 1229 q 526 1208 510 1208 "},"V":{"ha":964,"x_min":33,"x_max":931,"o":"m 467 -7 l 497 -7 q 583 57 554 -7 l 926 889 q 931 913 931 900 q 914 959 931 942 q 868 976 897 976 q 833 965 849 976 q 808 933 817 953 l 482 119 l 156 933 q 131 965 147 953 q 96 976 115 976 q 50 959 67 976 q 33 913 33 942 q 38 889 33 900 l 381 57 q 467 -7 410 -7 "},"W":{"ha":1404,"x_min":38,"x_max":1368,"o":"m 397 -7 q 448 10 425 -7 q 479 56 471 28 l 703 764 l 926 56 q 958 10 935 28 q 1008 -7 981 -7 q 1058 9 1036 -7 q 1090 56 1079 25 l 1363 892 q 1367 915 1367 907 q 1351 959 1368 942 q 1306 976 1333 976 q 1267 963 1283 976 q 1243 926 1250 949 l 1010 160 l 775 924 q 748 962 768 947 q 703 976 728 976 q 658 962 678 976 q 631 924 638 947 l 396 160 l 163 926 q 139 963 156 949 q 100 976 122 976 q 55 959 72 976 q 39 915 38 942 q 43 892 39 907 l 315 56 q 348 9 326 25 q 397 -7 369 -7 "},"Ẃ":{"ha":1404,"x_min":39,"x_max":1367,"o":"m 397 -7 q 448 10 425 -7 q 479 56 471 28 l 703 764 l 926 56 q 958 10 935 28 q 1008 -7 981 -7 q 1058 9 1036 -7 q 1090 56 1079 25 l 1363 892 q 1367 915 1367 907 q 1351 959 1368 942 q 1306 976 1333 976 q 1267 963 1283 976 q 1243 926 1250 949 l 1010 160 l 775 924 q 748 962 768 947 q 703 976 728 976 q 658 962 678 976 q 631 924 638 947 l 396 160 l 163 926 q 139 963 156 949 q 100 976 122 976 q 55 959 72 976 q 39 915 38 942 q 43 892 39 907 l 315 56 q 348 9 326 25 q 397 -7 369 -7 m 703 1026 q 733 1042 721 1026 l 829 1156 q 843 1190 843 1171 q 828 1228 843 1214 q 792 1242 814 1242 q 746 1215 760 1242 l 675 1090 q 665 1064 665 1076 q 676 1037 665 1047 q 703 1026 686 1026 "},"Ŵ":{"ha":1404,"x_min":39,"x_max":1367,"o":"m 397 -7 q 448 10 425 -7 q 479 56 471 28 l 703 764 l 926 56 q 958 10 935 28 q 1008 -7 981 -7 q 1058 9 1036 -7 q 1090 56 1079 25 l 1363 892 q 1367 915 1367 907 q 1351 959 1368 942 q 1306 976 1333 976 q 1267 963 1283 976 q 1243 926 1250 949 l 1010 160 l 775 924 q 748 962 768 947 q 703 976 728 976 q 658 962 678 976 q 631 924 638 947 l 396 160 l 163 926 q 139 963 156 949 q 100 976 122 976 q 55 959 72 976 q 39 915 38 942 q 43 892 39 907 l 315 56 q 348 9 326 25 q 397 -7 369 -7 m 557 1025 q 582 1035 572 1025 l 703 1138 l 824 1035 q 849 1025 833 1025 q 879 1038 867 1025 q 890 1067 892 1051 q 879 1093 890 1082 l 785 1190 q 760 1211 772 1204 q 729 1218 747 1218 l 676 1218 q 646 1211 658 1218 q 621 1190 633 1204 l 526 1093 q 515 1067 515 1082 q 526 1038 514 1051 q 557 1025 539 1025 "},"Ẅ":{"ha":1404,"x_min":39,"x_max":1367,"o":"m 397 -7 q 448 10 425 -7 q 479 56 471 28 l 703 764 l 926 56 q 958 10 935 28 q 1008 -7 981 -7 q 1058 9 1036 -7 q 1090 56 1079 25 l 1363 892 q 1367 915 1367 907 q 1351 959 1368 942 q 1306 976 1333 976 q 1267 963 1283 976 q 1243 926 1250 949 l 1010 160 l 775 924 q 748 962 768 947 q 703 976 728 976 q 658 962 678 976 q 631 924 638 947 l 396 160 l 163 926 q 139 963 156 949 q 100 976 122 976 q 55 959 72 976 q 39 915 38 942 q 43 892 39 907 l 315 56 q 348 9 326 25 q 397 -7 369 -7 m 586 1038 q 636 1058 615 1038 q 657 1108 657 1079 q 636 1158 657 1138 q 586 1179 615 1179 q 536 1158 557 1179 q 515 1108 515 1138 q 536 1058 515 1079 q 586 1038 557 1038 m 819 1038 q 869 1058 849 1038 q 890 1108 890 1079 q 869 1158 890 1138 q 819 1179 849 1179 q 769 1158 790 1179 q 749 1108 749 1138 q 769 1058 749 1079 q 819 1038 790 1038 "},"Ẁ":{"ha":1404,"x_min":39,"x_max":1367,"o":"m 397 -7 q 448 10 425 -7 q 479 56 471 28 l 703 764 l 926 56 q 958 10 935 28 q 1008 -7 981 -7 q 1058 9 1036 -7 q 1090 56 1079 25 l 1363 892 q 1367 915 1367 907 q 1351 959 1368 942 q 1306 976 1333 976 q 1267 963 1283 976 q 1243 926 1250 949 l 1010 160 l 775 924 q 748 962 768 947 q 703 976 728 976 q 658 962 678 976 q 631 924 638 947 l 396 160 l 163 926 q 139 963 156 949 q 100 976 122 976 q 55 959 72 976 q 39 915 38 942 q 43 892 39 907 l 315 56 q 348 9 326 25 q 397 -7 369 -7 m 703 1026 q 730 1037 719 1026 q 740 1064 740 1047 q 731 1090 740 1076 l 660 1215 q 614 1242 646 1242 q 576 1228 590 1242 q 563 1190 563 1214 q 576 1156 563 1171 l 672 1042 q 703 1026 685 1026 "},"X":{"ha":932,"x_min":61,"x_max":871,"o":"m 119 -7 q 168 18 147 -7 l 461 393 l 758 19 q 808 -7 778 -7 q 853 11 836 -7 q 871 56 871 29 q 858 92 871 78 l 538 486 l 858 882 q 869 917 869 897 q 851 959 869 942 q 808 976 833 976 q 763 954 778 976 l 469 579 l 176 951 q 154 969 168 963 q 125 976 140 976 q 81 959 99 976 q 64 915 64 942 q 76 876 64 893 l 394 485 l 74 90 q 61 51 61 74 q 78 10 61 28 q 119 -7 96 -7 "},"Y":{"ha":888,"x_min":38,"x_max":853,"o":"m 444 -7 q 489 11 471 -7 q 507 56 507 29 l 507 410 l 840 875 q 851 913 851 893 q 835 958 853 939 q 790 976 817 976 q 735 944 756 976 l 444 522 l 154 944 q 99 976 133 976 q 55 958 72 976 q 38 913 38 939 q 49 875 38 893 l 381 410 l 381 56 q 399 11 381 29 q 444 -7 418 -7 "},"Ý":{"ha":888,"x_min":38,"x_max":851,"o":"m 444 -7 q 489 11 471 -7 q 507 56 507 29 l 507 410 l 840 875 q 851 913 851 893 q 835 958 853 939 q 790 976 817 976 q 735 944 756 976 l 444 522 l 154 944 q 99 976 133 976 q 55 958 72 976 q 38 913 38 939 q 49 875 38 893 l 381 410 l 381 56 q 399 11 381 29 q 444 -7 418 -7 m 444 1026 q 475 1042 463 1026 l 571 1156 q 585 1190 585 1171 q 570 1228 585 1214 q 533 1242 556 1242 q 488 1215 501 1242 l 417 1090 q 407 1064 407 1076 q 417 1037 407 1047 q 444 1026 428 1026 "},"Ŷ":{"ha":888,"x_min":38,"x_max":851,"o":"m 444 -7 q 489 11 471 -7 q 507 56 507 29 l 507 410 l 840 875 q 851 913 851 893 q 835 958 853 939 q 790 976 817 976 q 735 944 756 976 l 444 522 l 154 944 q 99 976 133 976 q 55 958 72 976 q 38 913 38 939 q 49 875 38 893 l 381 410 l 381 56 q 399 11 381 29 q 444 -7 418 -7 m 299 1025 q 324 1035 314 1025 l 444 1138 l 565 1035 q 590 1025 575 1025 q 621 1038 608 1025 q 632 1067 633 1051 q 621 1093 632 1082 l 526 1190 q 501 1211 514 1204 q 471 1218 489 1218 l 418 1218 q 388 1211 400 1218 q 363 1190 375 1204 l 268 1093 q 257 1067 257 1082 q 268 1038 256 1051 q 299 1025 281 1025 "},"Ÿ":{"ha":888,"x_min":38,"x_max":851,"o":"m 444 -7 q 489 11 471 -7 q 507 56 507 29 l 507 410 l 840 875 q 851 913 851 893 q 835 958 853 939 q 790 976 817 976 q 735 944 756 976 l 444 522 l 154 944 q 99 976 133 976 q 55 958 72 976 q 38 913 38 939 q 49 875 38 893 l 381 410 l 381 56 q 399 11 381 29 q 444 -7 418 -7 m 328 1038 q 378 1058 357 1038 q 399 1108 399 1079 q 378 1158 399 1138 q 328 1179 357 1179 q 278 1158 299 1179 q 257 1108 257 1138 q 278 1058 257 1079 q 328 1038 299 1038 m 561 1038 q 611 1058 590 1038 q 632 1108 632 1079 q 611 1158 632 1138 q 561 1179 590 1179 q 511 1158 532 1179 q 490 1108 490 1138 q 511 1058 490 1079 q 561 1038 532 1038 "},"Ẏ":{"ha":888,"x_min":38,"x_max":851,"o":"m 444 -7 q 489 11 471 -7 q 507 56 507 29 l 507 410 l 840 875 q 851 913 851 893 q 835 958 853 939 q 790 976 817 976 q 735 944 756 976 l 444 522 l 154 944 q 99 976 133 976 q 55 958 72 976 q 38 913 38 939 q 49 875 38 893 l 381 410 l 381 56 q 399 11 381 29 q 444 -7 418 -7 m 444 1038 q 494 1058 474 1038 q 515 1108 515 1079 q 494 1158 515 1138 q 444 1179 474 1179 q 394 1158 415 1179 q 374 1108 374 1138 q 394 1058 374 1079 q 444 1038 415 1038 "},"Ỵ":{"ha":888,"x_min":38,"x_max":851,"o":"m 444 -7 q 489 11 471 -7 q 507 56 507 29 l 507 410 l 840 875 q 851 913 851 893 q 835 958 853 939 q 790 976 817 976 q 735 944 756 976 l 444 522 l 154 944 q 99 976 133 976 q 55 958 72 976 q 38 913 38 939 q 49 875 38 893 l 381 410 l 381 56 q 399 11 381 29 q 444 -7 418 -7 m 444 -231 q 494 -210 474 -231 q 515 -160 515 -189 q 494 -110 515 -131 q 444 -89 474 -89 q 394 -110 415 -89 q 374 -160 374 -131 q 394 -210 374 -189 q 444 -231 415 -231 "},"Ỳ":{"ha":888,"x_min":38,"x_max":851,"o":"m 444 -7 q 489 11 471 -7 q 507 56 507 29 l 507 410 l 840 875 q 851 913 851 893 q 835 958 853 939 q 790 976 817 976 q 735 944 756 976 l 444 522 l 154 944 q 99 976 133 976 q 55 958 72 976 q 38 913 38 939 q 49 875 38 893 l 381 410 l 381 56 q 399 11 381 29 q 444 -7 418 -7 m 444 1026 q 472 1037 461 1026 q 482 1064 482 1047 q 472 1090 482 1076 l 401 1215 q 356 1242 388 1242 q 318 1228 332 1242 q 304 1190 304 1214 q 318 1156 304 1171 l 414 1042 q 444 1026 426 1026 "},"Ỷ":{"ha":888,"x_min":38,"x_max":851,"o":"m 444 -7 q 489 11 471 -7 q 507 56 507 29 l 507 410 l 840 875 q 851 913 851 893 q 835 958 853 939 q 790 976 817 976 q 735 944 756 976 l 444 522 l 154 944 q 99 976 133 976 q 55 958 72 976 q 38 913 38 939 q 49 875 38 893 l 381 410 l 381 56 q 399 11 381 29 q 444 -7 418 -7 m 435 1025 q 467 1046 458 1025 q 483 1070 472 1060 q 510 1092 493 1081 q 551 1131 538 1113 q 565 1179 565 1149 q 535 1245 565 1221 q 451 1269 504 1269 q 395 1263 424 1269 q 344 1242 367 1256 q 329 1215 329 1232 q 338 1195 329 1204 q 358 1186 346 1186 q 390 1199 364 1186 q 451 1211 417 1211 q 487 1203 474 1211 q 500 1178 500 1194 q 489 1151 500 1163 q 457 1126 478 1140 q 416 1093 429 1108 q 403 1054 403 1078 q 413 1033 403 1040 q 435 1025 422 1025 "},"Ȳ":{"ha":888,"x_min":38,"x_max":851,"o":"m 444 -7 q 489 11 471 -7 q 507 56 507 29 l 507 410 l 840 875 q 851 913 851 893 q 835 958 853 939 q 790 976 817 976 q 735 944 756 976 l 444 522 l 154 944 q 99 976 133 976 q 55 958 72 976 q 38 913 38 939 q 49 875 38 893 l 381 410 l 381 56 q 399 11 381 29 q 444 -7 418 -7 m 282 1056 l 607 1056 q 637 1067 625 1056 q 649 1097 649 1079 q 637 1127 649 1115 q 607 1139 625 1139 l 282 1139 q 252 1127 264 1139 q 240 1097 240 1115 q 252 1067 240 1079 q 282 1056 264 1056 "},"Ỹ":{"ha":888,"x_min":38,"x_max":851,"o":"m 444 -7 q 489 11 471 -7 q 507 56 507 29 l 507 410 l 840 875 q 851 913 851 893 q 835 958 853 939 q 790 976 817 976 q 735 944 756 976 l 444 522 l 154 944 q 99 976 133 976 q 55 958 72 976 q 38 913 38 939 q 49 875 38 893 l 381 410 l 381 56 q 399 11 381 29 q 444 -7 418 -7 m 253 1032 q 285 1057 276 1032 q 339 1101 303 1101 q 385 1093 363 1101 q 439 1069 407 1085 q 500 1044 475 1053 q 553 1035 525 1035 q 636 1076 603 1035 q 669 1167 669 1118 q 660 1188 668 1179 q 638 1197 651 1197 q 603 1168 614 1197 q 584 1140 596 1150 q 551 1131 572 1131 q 503 1139 526 1131 q 449 1163 481 1147 q 390 1188 414 1179 q 338 1196 365 1196 q 276 1175 303 1196 q 235 1124 250 1154 q 221 1064 221 1093 q 231 1041 221 1050 q 253 1032 240 1032 "},"Z":{"ha":886,"x_min":65,"x_max":824,"o":"m 146 0 l 764 0 q 806 17 789 0 q 824 58 824 33 q 806 101 824 83 q 764 118 789 118 l 219 118 l 793 828 q 809 854 803 839 q 815 883 815 869 q 792 944 815 919 q 731 969 769 969 l 128 969 q 85 951 103 969 q 68 908 68 933 q 85 866 68 883 q 128 849 103 849 l 663 849 l 82 132 q 65 81 65 111 q 89 24 65 47 q 146 0 113 0 "},"Ź":{"ha":886,"x_min":65,"x_max":824,"o":"m 146 0 l 764 0 q 806 17 789 0 q 824 58 824 33 q 806 101 824 83 q 764 118 789 118 l 219 118 l 793 828 q 809 854 803 839 q 815 883 815 869 q 792 944 815 919 q 731 969 769 969 l 128 969 q 85 951 103 969 q 68 908 68 933 q 85 866 68 883 q 128 849 103 849 l 663 849 l 82 132 q 65 81 65 111 q 89 24 65 47 q 146 0 113 0 m 443 1026 q 474 1042 461 1026 l 569 1156 q 583 1190 583 1171 q 569 1228 583 1214 q 532 1242 554 1242 q 486 1215 500 1242 l 415 1090 q 406 1064 406 1076 q 416 1037 406 1047 q 443 1026 426 1026 "},"Ž":{"ha":886,"x_min":65,"x_max":824,"o":"m 146 0 l 764 0 q 806 17 789 0 q 824 58 824 33 q 806 101 824 83 q 764 118 789 118 l 219 118 l 793 828 q 809 854 803 839 q 815 883 815 869 q 792 944 815 919 q 731 969 769 969 l 128 969 q 85 951 103 969 q 68 908 68 933 q 85 866 68 883 q 128 849 103 849 l 663 849 l 82 132 q 65 81 65 111 q 89 24 65 47 q 146 0 113 0 m 417 1026 l 469 1026 q 500 1033 488 1026 q 525 1054 513 1040 l 619 1151 q 631 1178 631 1163 q 619 1206 632 1193 q 589 1219 607 1219 q 564 1210 574 1219 l 443 1107 l 322 1210 q 297 1219 313 1219 q 267 1206 279 1219 q 256 1178 254 1193 q 267 1151 256 1163 l 361 1054 q 386 1033 374 1040 q 417 1026 399 1026 "},"Ż":{"ha":886,"x_min":65,"x_max":824,"o":"m 146 0 l 764 0 q 806 17 789 0 q 824 58 824 33 q 806 101 824 83 q 764 118 789 118 l 219 118 l 793 828 q 809 854 803 839 q 815 883 815 869 q 792 944 815 919 q 731 969 769 969 l 128 969 q 85 951 103 969 q 68 908 68 933 q 85 866 68 883 q 128 849 103 849 l 663 849 l 82 132 q 65 81 65 111 q 89 24 65 47 q 146 0 113 0 m 443 1038 q 493 1058 472 1038 q 514 1108 514 1079 q 493 1158 514 1138 q 443 1179 472 1179 q 393 1158 414 1179 q 372 1108 372 1138 q 393 1058 372 1079 q 443 1038 414 1038 "},"Ẓ":{"ha":886,"x_min":65,"x_max":824,"o":"m 146 0 l 764 0 q 806 17 789 0 q 824 58 824 33 q 806 101 824 83 q 764 118 789 118 l 219 118 l 793 828 q 809 854 803 839 q 815 883 815 869 q 792 944 815 919 q 731 969 769 969 l 128 969 q 85 951 103 969 q 68 908 68 933 q 85 866 68 883 q 128 849 103 849 l 663 849 l 82 132 q 65 81 65 111 q 89 24 65 47 q 146 0 113 0 m 443 -231 q 493 -210 472 -231 q 514 -160 514 -189 q 493 -110 514 -131 q 443 -89 472 -89 q 393 -110 414 -89 q 372 -160 372 -131 q 393 -210 372 -189 q 443 -231 414 -231 "},"a":{"ha":781,"x_min":64,"x_max":678,"o":"m 290 -14 q 551 92 449 -14 l 551 56 q 569 11 551 29 q 614 -7 588 -7 q 659 11 640 -7 q 678 56 678 29 l 678 449 q 647 583 678 521 q 549 683 615 644 q 388 722 483 722 q 147 672 265 722 q 111 619 111 657 q 126 582 111 597 q 163 567 142 567 q 181 569 169 567 q 272 594 231 586 q 365 603 313 603 q 506 563 461 603 q 551 431 551 522 l 551 419 l 383 419 q 145 358 226 419 q 64 194 64 297 q 94 84 64 132 q 177 11 125 36 q 290 -14 229 -14 m 338 97 q 224 128 258 97 q 190 208 190 158 q 400 318 190 318 l 551 318 l 551 201 q 456 127 513 157 q 338 97 399 97 "},"á":{"ha":781,"x_min":64,"x_max":678,"o":"m 290 -14 q 551 92 449 -14 l 551 56 q 569 11 551 29 q 614 -7 588 -7 q 659 11 640 -7 q 678 56 678 29 l 678 449 q 647 583 678 521 q 549 683 615 644 q 388 722 483 722 q 147 672 265 722 q 111 619 111 657 q 126 582 111 597 q 163 567 142 567 q 181 569 169 567 q 272 594 231 586 q 365 603 313 603 q 506 563 461 603 q 551 431 551 522 l 551 419 l 383 419 q 145 358 226 419 q 64 194 64 297 q 94 84 64 132 q 177 11 125 36 q 290 -14 229 -14 m 338 97 q 224 128 258 97 q 190 208 190 158 q 400 318 190 318 l 551 318 l 551 201 q 456 127 513 157 q 338 97 399 97 m 388 788 q 418 803 406 788 l 514 917 q 528 951 528 932 q 513 989 528 975 q 476 1003 499 1003 q 431 976 444 1003 l 360 851 q 350 825 350 838 q 360 798 350 808 q 388 788 371 788 "},"ă":{"ha":781,"x_min":64,"x_max":678,"o":"m 290 -14 q 551 92 449 -14 l 551 56 q 569 11 551 29 q 614 -7 588 -7 q 659 11 640 -7 q 678 56 678 29 l 678 449 q 647 583 678 521 q 549 683 615 644 q 388 722 483 722 q 147 672 265 722 q 111 619 111 657 q 126 582 111 597 q 163 567 142 567 q 181 569 169 567 q 272 594 231 586 q 365 603 313 603 q 506 563 461 603 q 551 431 551 522 l 551 419 l 383 419 q 145 358 226 419 q 64 194 64 297 q 94 84 64 132 q 177 11 125 36 q 290 -14 229 -14 m 338 97 q 224 128 258 97 q 190 208 190 158 q 400 318 190 318 l 551 318 l 551 201 q 456 127 513 157 q 338 97 399 97 m 388 800 q 506 830 454 800 q 582 913 558 860 q 586 932 586 921 q 574 963 586 950 q 543 975 563 975 q 504 949 517 975 q 458 899 489 917 q 388 881 428 881 q 317 899 347 881 q 271 949 286 917 q 232 975 258 975 q 201 963 213 975 q 189 932 189 950 q 193 913 189 921 q 269 830 217 860 q 388 800 321 800 "},"ắ":{"ha":781,"x_min":64,"x_max":678,"o":"m 290 -14 q 551 92 449 -14 l 551 56 q 569 11 551 29 q 614 -7 588 -7 q 659 11 640 -7 q 678 56 678 29 l 678 449 q 647 583 678 521 q 549 683 615 644 q 388 722 483 722 q 147 672 265 722 q 111 619 111 657 q 126 582 111 597 q 163 567 142 567 q 181 569 169 567 q 272 594 231 586 q 365 603 313 603 q 506 563 461 603 q 551 431 551 522 l 551 419 l 383 419 q 145 358 226 419 q 64 194 64 297 q 94 84 64 132 q 177 11 125 36 q 290 -14 229 -14 m 338 97 q 224 128 258 97 q 190 208 190 158 q 400 318 190 318 l 551 318 l 551 201 q 456 127 513 157 q 338 97 399 97 m 385 922 q 415 936 401 922 l 486 1013 q 504 1051 504 1031 q 490 1083 504 1071 q 457 1096 476 1096 q 413 1063 432 1096 l 363 978 q 356 950 356 964 q 364 931 356 939 q 385 922 372 922 m 388 800 q 506 827 454 800 q 582 900 558 854 q 586 918 586 908 q 575 944 586 933 q 547 956 564 956 q 514 932 528 956 q 388 869 475 869 q 312 887 344 869 q 261 932 279 904 q 228 956 247 956 q 200 944 211 956 q 189 918 189 933 q 193 900 189 908 q 269 827 217 854 q 388 800 321 800 "},"ặ":{"ha":781,"x_min":64,"x_max":678,"o":"m 290 -14 q 551 92 449 -14 l 551 56 q 569 11 551 29 q 614 -7 588 -7 q 659 11 640 -7 q 678 56 678 29 l 678 449 q 647 583 678 521 q 549 683 615 644 q 388 722 483 722 q 147 672 265 722 q 111 619 111 657 q 126 582 111 597 q 163 567 142 567 q 181 569 169 567 q 272 594 231 586 q 365 603 313 603 q 506 563 461 603 q 551 431 551 522 l 551 419 l 383 419 q 145 358 226 419 q 64 194 64 297 q 94 84 64 132 q 177 11 125 36 q 290 -14 229 -14 m 338 97 q 224 128 258 97 q 190 208 190 158 q 400 318 190 318 l 551 318 l 551 201 q 456 127 513 157 q 338 97 399 97 m 396 -231 q 446 -210 425 -231 q 467 -160 467 -189 q 446 -110 467 -131 q 396 -89 425 -89 q 346 -110 367 -89 q 325 -160 325 -131 q 346 -210 325 -189 q 396 -231 367 -231 m 388 800 q 506 830 454 800 q 582 913 558 860 q 586 932 586 921 q 574 963 586 950 q 543 975 563 975 q 504 949 517 975 q 458 899 489 917 q 388 881 428 881 q 317 899 347 881 q 271 949 286 917 q 232 975 258 975 q 201 963 213 975 q 189 932 189 950 q 193 913 189 921 q 269 830 217 860 q 388 800 321 800 "},"ằ":{"ha":781,"x_min":64,"x_max":678,"o":"m 290 -14 q 551 92 449 -14 l 551 56 q 569 11 551 29 q 614 -7 588 -7 q 659 11 640 -7 q 678 56 678 29 l 678 449 q 647 583 678 521 q 549 683 615 644 q 388 722 483 722 q 147 672 265 722 q 111 619 111 657 q 126 582 111 597 q 163 567 142 567 q 181 569 169 567 q 272 594 231 586 q 365 603 313 603 q 506 563 461 603 q 551 431 551 522 l 551 419 l 383 419 q 145 358 226 419 q 64 194 64 297 q 94 84 64 132 q 177 11 125 36 q 290 -14 229 -14 m 338 97 q 224 128 258 97 q 190 208 190 158 q 400 318 190 318 l 551 318 l 551 201 q 456 127 513 157 q 338 97 399 97 m 390 922 q 411 931 403 922 q 419 950 419 939 q 413 978 419 964 l 363 1063 q 318 1096 343 1096 q 285 1083 299 1096 q 271 1051 271 1071 q 289 1013 271 1031 l 360 936 q 390 922 374 922 m 388 800 q 506 827 454 800 q 582 900 558 854 q 586 918 586 908 q 575 944 586 933 q 547 956 564 956 q 514 932 528 956 q 388 869 475 869 q 312 887 344 869 q 261 932 279 904 q 228 956 247 956 q 200 944 211 956 q 189 918 189 933 q 193 900 189 908 q 269 827 217 854 q 388 800 321 800 "},"ẳ":{"ha":781,"x_min":64,"x_max":678,"o":"m 290 -14 q 551 92 449 -14 l 551 56 q 569 11 551 29 q 614 -7 588 -7 q 659 11 640 -7 q 678 56 678 29 l 678 449 q 647 583 678 521 q 549 683 615 644 q 388 722 483 722 q 147 672 265 722 q 111 619 111 657 q 126 582 111 597 q 163 567 142 567 q 181 569 169 567 q 272 594 231 586 q 365 603 313 603 q 506 563 461 603 q 551 431 551 522 l 551 419 l 383 419 q 145 358 226 419 q 64 194 64 297 q 94 84 64 132 q 177 11 125 36 q 290 -14 229 -14 m 338 97 q 224 128 258 97 q 190 208 190 158 q 400 318 190 318 l 551 318 l 551 201 q 456 127 513 157 q 338 97 399 97 m 378 922 q 413 943 404 922 q 428 967 418 957 q 456 989 439 978 q 497 1028 483 1010 q 510 1076 510 1046 q 480 1144 510 1121 q 394 1167 450 1167 q 338 1160 367 1167 q 288 1139 310 1153 q 272 1110 272 1129 q 281 1090 272 1099 q 301 1081 289 1081 q 333 1091 307 1081 q 394 1101 360 1101 q 438 1075 438 1101 q 429 1056 438 1064 q 400 1031 421 1047 q 360 996 375 1013 q 346 956 346 979 q 356 931 346 939 q 378 922 365 922 m 388 800 q 506 827 454 800 q 582 900 558 854 q 586 918 586 908 q 575 944 586 933 q 547 956 564 956 q 514 932 528 956 q 388 869 475 869 q 312 887 344 869 q 261 932 279 904 q 228 956 247 956 q 200 944 211 956 q 189 918 189 933 q 193 900 189 908 q 269 827 217 854 q 388 800 321 800 "},"ẵ":{"ha":781,"x_min":64,"x_max":678,"o":"m 290 -14 q 551 92 449 -14 l 551 56 q 569 11 551 29 q 614 -7 588 -7 q 659 11 640 -7 q 678 56 678 29 l 678 449 q 647 583 678 521 q 549 683 615 644 q 388 722 483 722 q 147 672 265 722 q 111 619 111 657 q 126 582 111 597 q 163 567 142 567 q 181 569 169 567 q 272 594 231 586 q 365 603 313 603 q 506 563 461 603 q 551 431 551 522 l 551 419 l 383 419 q 145 358 226 419 q 64 194 64 297 q 94 84 64 132 q 177 11 125 36 q 290 -14 229 -14 m 338 97 q 224 128 258 97 q 190 208 190 158 q 400 318 190 318 l 551 318 l 551 201 q 456 127 513 157 q 338 97 399 97 m 221 979 q 237 984 229 979 q 246 996 244 989 q 265 1017 251 1010 q 303 1024 278 1024 q 342 1017 321 1024 q 383 1004 364 1011 q 433 988 414 993 q 474 983 451 983 q 550 1015 518 983 q 582 1083 582 1046 q 556 1106 579 1106 q 540 1101 544 1106 q 531 1090 535 1097 q 508 1070 521 1076 q 474 1064 494 1064 q 420 1072 446 1064 q 390 1082 394 1081 q 343 1097 363 1092 q 301 1101 324 1101 q 223 1070 251 1101 q 194 1001 194 1039 q 202 985 194 992 q 221 979 210 979 m 388 800 q 506 827 454 800 q 582 900 558 854 q 586 918 586 908 q 575 944 586 933 q 547 956 564 956 q 514 932 528 956 q 388 869 475 869 q 312 887 344 869 q 261 932 279 904 q 228 956 247 956 q 200 944 211 956 q 189 918 189 933 q 193 900 189 908 q 269 827 217 854 q 388 800 321 800 "},"â":{"ha":781,"x_min":64,"x_max":678,"o":"m 290 -14 q 551 92 449 -14 l 551 56 q 569 11 551 29 q 614 -7 588 -7 q 659 11 640 -7 q 678 56 678 29 l 678 449 q 647 583 678 521 q 549 683 615 644 q 388 722 483 722 q 147 672 265 722 q 111 619 111 657 q 126 582 111 597 q 163 567 142 567 q 181 569 169 567 q 272 594 231 586 q 365 603 313 603 q 506 563 461 603 q 551 431 551 522 l 551 419 l 383 419 q 145 358 226 419 q 64 194 64 297 q 94 84 64 132 q 177 11 125 36 q 290 -14 229 -14 m 338 97 q 224 128 258 97 q 190 208 190 158 q 400 318 190 318 l 551 318 l 551 201 q 456 127 513 157 q 338 97 399 97 m 242 786 q 267 796 257 786 l 388 899 l 508 796 q 533 786 518 786 q 564 799 551 786 q 575 828 576 813 q 564 854 575 843 l 469 951 q 444 972 457 965 q 414 979 432 979 l 361 979 q 331 972 343 979 q 306 951 318 965 l 211 854 q 200 828 200 843 q 211 799 199 813 q 242 786 224 786 "},"ấ":{"ha":781,"x_min":64,"x_max":678,"o":"m 290 -14 q 551 92 449 -14 l 551 56 q 569 11 551 29 q 614 -7 588 -7 q 659 11 640 -7 q 678 56 678 29 l 678 449 q 647 583 678 521 q 549 683 615 644 q 388 722 483 722 q 147 672 265 722 q 111 619 111 657 q 126 582 111 597 q 163 567 142 567 q 181 569 169 567 q 272 594 231 586 q 365 603 313 603 q 506 563 461 603 q 551 431 551 522 l 551 419 l 383 419 q 145 358 226 419 q 64 194 64 297 q 94 84 64 132 q 177 11 125 36 q 290 -14 229 -14 m 338 97 q 224 128 258 97 q 190 208 190 158 q 400 318 190 318 l 551 318 l 551 201 q 456 127 513 157 q 338 97 399 97 m 532 922 q 563 936 549 922 l 633 1013 q 651 1051 651 1031 q 638 1083 651 1071 q 604 1096 624 1096 q 560 1063 579 1096 l 510 978 q 503 950 503 964 q 511 931 503 939 q 532 922 519 922 m 242 786 q 267 794 256 786 l 388 890 l 508 794 q 533 786 519 786 q 563 798 550 786 q 575 824 576 810 q 564 849 575 838 l 469 929 q 443 948 454 942 q 414 954 432 954 l 361 954 q 332 948 343 954 q 306 929 321 942 l 211 849 q 200 824 200 838 q 212 798 199 810 q 242 786 225 786 "},"ậ":{"ha":781,"x_min":64,"x_max":678,"o":"m 290 -14 q 551 92 449 -14 l 551 56 q 569 11 551 29 q 614 -7 588 -7 q 659 11 640 -7 q 678 56 678 29 l 678 449 q 647 583 678 521 q 549 683 615 644 q 388 722 483 722 q 147 672 265 722 q 111 619 111 657 q 126 582 111 597 q 163 567 142 567 q 181 569 169 567 q 272 594 231 586 q 365 603 313 603 q 506 563 461 603 q 551 431 551 522 l 551 419 l 383 419 q 145 358 226 419 q 64 194 64 297 q 94 84 64 132 q 177 11 125 36 q 290 -14 229 -14 m 338 97 q 224 128 258 97 q 190 208 190 158 q 400 318 190 318 l 551 318 l 551 201 q 456 127 513 157 q 338 97 399 97 m 396 -231 q 446 -210 425 -231 q 467 -160 467 -189 q 446 -110 467 -131 q 396 -89 425 -89 q 346 -110 367 -89 q 325 -160 325 -131 q 346 -210 325 -189 q 396 -231 367 -231 m 242 786 q 267 796 257 786 l 388 899 l 508 796 q 533 786 518 786 q 564 799 551 786 q 575 828 576 813 q 564 854 575 843 l 469 951 q 444 972 457 965 q 414 979 432 979 l 361 979 q 331 972 343 979 q 306 951 318 965 l 211 854 q 200 828 200 843 q 211 799 199 813 q 242 786 224 786 "},"ầ":{"ha":781,"x_min":64,"x_max":678,"o":"m 290 -14 q 551 92 449 -14 l 551 56 q 569 11 551 29 q 614 -7 588 -7 q 659 11 640 -7 q 678 56 678 29 l 678 449 q 647 583 678 521 q 549 683 615 644 q 388 722 483 722 q 147 672 265 722 q 111 619 111 657 q 126 582 111 597 q 163 567 142 567 q 181 569 169 567 q 272 594 231 586 q 365 603 313 603 q 506 563 461 603 q 551 431 551 522 l 551 419 l 383 419 q 145 358 226 419 q 64 194 64 297 q 94 84 64 132 q 177 11 125 36 q 290 -14 229 -14 m 338 97 q 224 128 258 97 q 190 208 190 158 q 400 318 190 318 l 551 318 l 551 201 q 456 127 513 157 q 338 97 399 97 m 539 922 q 560 931 551 922 q 568 950 568 939 q 561 978 568 964 l 511 1063 q 467 1096 492 1096 q 433 1083 447 1096 q 419 1051 419 1071 q 438 1013 419 1031 l 508 936 q 539 922 522 922 m 242 786 q 267 794 256 786 l 388 890 l 508 794 q 533 786 519 786 q 563 798 550 786 q 575 824 576 810 q 564 849 575 838 l 469 929 q 443 948 454 942 q 414 954 432 954 l 361 954 q 332 948 343 954 q 306 929 321 942 l 211 849 q 200 824 200 838 q 212 798 199 810 q 242 786 225 786 "},"ẩ":{"ha":781,"x_min":64,"x_max":678,"o":"m 290 -14 q 551 92 449 -14 l 551 56 q 569 11 551 29 q 614 -7 588 -7 q 659 11 640 -7 q 678 56 678 29 l 678 449 q 647 583 678 521 q 549 683 615 644 q 388 722 483 722 q 147 672 265 722 q 111 619 111 657 q 126 582 111 597 q 163 567 142 567 q 181 569 169 567 q 272 594 231 586 q 365 603 313 603 q 506 563 461 603 q 551 431 551 522 l 551 419 l 383 419 q 145 358 226 419 q 64 194 64 297 q 94 84 64 132 q 177 11 125 36 q 290 -14 229 -14 m 338 97 q 224 128 258 97 q 190 208 190 158 q 400 318 190 318 l 551 318 l 551 201 q 456 127 513 157 q 338 97 399 97 m 532 926 q 567 946 558 926 q 581 965 571 957 q 607 985 590 974 q 647 1018 633 1001 q 661 1061 661 1035 q 550 1144 661 1144 q 456 1121 496 1144 q 440 1093 440 1111 q 449 1074 440 1082 q 469 1065 457 1065 q 500 1075 476 1065 q 549 1085 524 1085 q 592 1060 592 1085 q 587 1048 592 1054 q 571 1035 582 1042 q 557 1025 560 1028 q 515 994 529 1008 q 500 958 500 979 q 510 935 500 943 q 532 926 519 926 m 242 786 q 267 794 256 786 l 388 890 l 508 794 q 533 786 519 786 q 563 798 550 786 q 575 824 576 810 q 564 849 575 838 l 469 929 q 443 948 454 942 q 414 954 432 954 l 361 954 q 332 948 343 954 q 306 929 321 942 l 211 849 q 200 824 200 838 q 212 798 199 810 q 242 786 225 786 "},"ẫ":{"ha":781,"x_min":64,"x_max":678,"o":"m 290 -14 q 551 92 449 -14 l 551 56 q 569 11 551 29 q 614 -7 588 -7 q 659 11 640 -7 q 678 56 678 29 l 678 449 q 647 583 678 521 q 549 683 615 644 q 388 722 483 722 q 147 672 265 722 q 111 619 111 657 q 126 582 111 597 q 163 567 142 567 q 181 569 169 567 q 272 594 231 586 q 365 603 313 603 q 506 563 461 603 q 551 431 551 522 l 551 419 l 383 419 q 145 358 226 419 q 64 194 64 297 q 94 84 64 132 q 177 11 125 36 q 290 -14 229 -14 m 338 97 q 224 128 258 97 q 190 208 190 158 q 400 318 190 318 l 551 318 l 551 201 q 456 127 513 157 q 338 97 399 97 m 221 979 q 237 984 229 979 q 246 996 244 989 q 265 1017 251 1010 q 303 1024 278 1024 q 342 1017 321 1024 q 383 1004 364 1011 q 433 988 414 993 q 474 983 451 983 q 550 1015 518 983 q 582 1083 582 1046 q 556 1106 579 1106 q 540 1101 544 1106 q 531 1090 535 1097 q 508 1070 521 1076 q 474 1064 494 1064 q 420 1072 446 1064 q 390 1082 394 1081 q 343 1097 363 1092 q 301 1101 324 1101 q 223 1070 251 1101 q 194 1001 194 1039 q 202 985 194 992 q 221 979 210 979 m 242 786 q 267 794 256 786 l 388 890 l 508 794 q 533 786 519 786 q 563 798 550 786 q 575 824 576 810 q 564 849 575 838 l 469 929 q 443 948 454 942 q 414 954 432 954 l 361 954 q 332 948 343 954 q 306 929 321 942 l 211 849 q 200 824 200 838 q 212 798 199 810 q 242 786 225 786 "},"ȁ":{"ha":781,"x_min":64,"x_max":678,"o":"m 290 -14 q 551 92 449 -14 l 551 56 q 569 11 551 29 q 614 -7 588 -7 q 659 11 640 -7 q 678 56 678 29 l 678 449 q 647 583 678 521 q 549 683 615 644 q 388 722 483 722 q 147 672 265 722 q 111 619 111 657 q 126 582 111 597 q 163 567 142 567 q 181 569 169 567 q 272 594 231 586 q 365 603 313 603 q 506 563 461 603 q 551 431 551 522 l 551 419 l 383 419 q 145 358 226 419 q 64 194 64 297 q 94 84 64 132 q 177 11 125 36 q 290 -14 229 -14 m 338 97 q 224 128 258 97 q 190 208 190 158 q 400 318 190 318 l 551 318 l 551 201 q 456 127 513 157 q 338 97 399 97 m 281 788 q 311 803 299 788 l 407 917 q 421 951 421 932 q 406 989 421 975 q 369 1003 392 1003 q 324 976 338 1003 l 253 851 q 243 825 243 838 q 253 798 243 808 q 281 788 264 788 m 494 788 q 525 803 513 788 l 621 917 q 635 951 635 932 q 620 989 635 975 q 583 1003 606 1003 q 538 976 551 1003 l 467 851 q 457 825 457 838 q 467 798 457 808 q 494 788 478 788 "},"ä":{"ha":781,"x_min":64,"x_max":678,"o":"m 290 -14 q 551 92 449 -14 l 551 56 q 569 11 551 29 q 614 -7 588 -7 q 659 11 640 -7 q 678 56 678 29 l 678 449 q 647 583 678 521 q 549 683 615 644 q 388 722 483 722 q 147 672 265 722 q 111 619 111 657 q 126 582 111 597 q 163 567 142 567 q 181 569 169 567 q 272 594 231 586 q 365 603 313 603 q 506 563 461 603 q 551 431 551 522 l 551 419 l 383 419 q 145 358 226 419 q 64 194 64 297 q 94 84 64 132 q 177 11 125 36 q 290 -14 229 -14 m 338 97 q 224 128 258 97 q 190 208 190 158 q 400 318 190 318 l 551 318 l 551 201 q 456 127 513 157 q 338 97 399 97 m 271 799 q 321 819 300 799 q 342 869 342 840 q 321 919 342 899 q 271 940 300 940 q 221 919 242 940 q 200 869 200 899 q 221 819 200 840 q 271 799 242 799 m 504 799 q 554 819 533 799 q 575 869 575 840 q 554 919 575 899 q 504 940 533 940 q 454 919 475 940 q 433 869 433 899 q 454 819 433 840 q 504 799 475 799 "},"ạ":{"ha":781,"x_min":64,"x_max":678,"o":"m 290 -14 q 551 92 449 -14 l 551 56 q 569 11 551 29 q 614 -7 588 -7 q 659 11 640 -7 q 678 56 678 29 l 678 449 q 647 583 678 521 q 549 683 615 644 q 388 722 483 722 q 147 672 265 722 q 111 619 111 657 q 126 582 111 597 q 163 567 142 567 q 181 569 169 567 q 272 594 231 586 q 365 603 313 603 q 506 563 461 603 q 551 431 551 522 l 551 419 l 383 419 q 145 358 226 419 q 64 194 64 297 q 94 84 64 132 q 177 11 125 36 q 290 -14 229 -14 m 338 97 q 224 128 258 97 q 190 208 190 158 q 400 318 190 318 l 551 318 l 551 201 q 456 127 513 157 q 338 97 399 97 m 396 -231 q 446 -210 425 -231 q 467 -160 467 -189 q 446 -110 467 -131 q 396 -89 425 -89 q 346 -110 367 -89 q 325 -160 325 -131 q 346 -210 325 -189 q 396 -231 367 -231 "},"à":{"ha":781,"x_min":64,"x_max":678,"o":"m 290 -14 q 551 92 449 -14 l 551 56 q 569 11 551 29 q 614 -7 588 -7 q 659 11 640 -7 q 678 56 678 29 l 678 449 q 647 583 678 521 q 549 683 615 644 q 388 722 483 722 q 147 672 265 722 q 111 619 111 657 q 126 582 111 597 q 163 567 142 567 q 181 569 169 567 q 272 594 231 586 q 365 603 313 603 q 506 563 461 603 q 551 431 551 522 l 551 419 l 383 419 q 145 358 226 419 q 64 194 64 297 q 94 84 64 132 q 177 11 125 36 q 290 -14 229 -14 m 338 97 q 224 128 258 97 q 190 208 190 158 q 400 318 190 318 l 551 318 l 551 201 q 456 127 513 157 q 338 97 399 97 m 388 788 q 415 798 404 788 q 425 825 425 808 q 415 851 425 838 l 344 976 q 299 1003 331 1003 q 261 989 275 1003 q 247 951 247 975 q 261 917 247 932 l 357 803 q 388 788 369 788 "},"ả":{"ha":781,"x_min":64,"x_max":678,"o":"m 290 -14 q 551 92 449 -14 l 551 56 q 569 11 551 29 q 614 -7 588 -7 q 659 11 640 -7 q 678 56 678 29 l 678 449 q 647 583 678 521 q 549 683 615 644 q 388 722 483 722 q 147 672 265 722 q 111 619 111 657 q 126 582 111 597 q 163 567 142 567 q 181 569 169 567 q 272 594 231 586 q 365 603 313 603 q 506 563 461 603 q 551 431 551 522 l 551 419 l 383 419 q 145 358 226 419 q 64 194 64 297 q 94 84 64 132 q 177 11 125 36 q 290 -14 229 -14 m 338 97 q 224 128 258 97 q 190 208 190 158 q 400 318 190 318 l 551 318 l 551 201 q 456 127 513 157 q 338 97 399 97 m 378 786 q 413 807 404 786 q 428 831 418 821 q 456 853 439 842 q 497 892 483 874 q 510 940 510 910 q 480 1008 510 985 q 394 1031 450 1031 q 338 1024 367 1031 q 288 1003 310 1017 q 272 974 272 993 q 281 953 272 963 q 301 944 289 944 q 333 955 307 944 q 394 965 360 965 q 438 939 438 965 q 429 919 438 928 q 400 894 421 911 q 360 860 375 876 q 346 819 346 843 q 356 794 346 803 q 378 786 365 786 "},"ȃ":{"ha":781,"x_min":64,"x_max":678,"o":"m 290 -14 q 551 92 449 -14 l 551 56 q 569 11 551 29 q 614 -7 588 -7 q 659 11 640 -7 q 678 56 678 29 l 678 449 q 647 583 678 521 q 549 683 615 644 q 388 722 483 722 q 147 672 265 722 q 111 619 111 657 q 126 582 111 597 q 163 567 142 567 q 181 569 169 567 q 272 594 231 586 q 365 603 313 603 q 506 563 461 603 q 551 431 551 522 l 551 419 l 383 419 q 145 358 226 419 q 64 194 64 297 q 94 84 64 132 q 177 11 125 36 q 290 -14 229 -14 m 338 97 q 224 128 258 97 q 190 208 190 158 q 400 318 190 318 l 551 318 l 551 201 q 456 127 513 157 q 338 97 399 97 m 232 788 q 271 814 258 788 q 317 864 286 846 q 388 882 347 882 q 458 864 428 882 q 504 814 489 846 q 543 788 517 788 q 574 800 563 788 q 586 831 586 813 q 582 850 586 842 q 504 932 556 901 q 388 963 453 963 q 271 932 322 963 q 193 850 219 901 q 189 831 189 842 q 201 800 189 813 q 232 788 213 788 "},"ā":{"ha":781,"x_min":64,"x_max":678,"o":"m 290 -14 q 551 92 449 -14 l 551 56 q 569 11 551 29 q 614 -7 588 -7 q 659 11 640 -7 q 678 56 678 29 l 678 449 q 647 583 678 521 q 549 683 615 644 q 388 722 483 722 q 147 672 265 722 q 111 619 111 657 q 126 582 111 597 q 163 567 142 567 q 181 569 169 567 q 272 594 231 586 q 365 603 313 603 q 506 563 461 603 q 551 431 551 522 l 551 419 l 383 419 q 145 358 226 419 q 64 194 64 297 q 94 84 64 132 q 177 11 125 36 q 290 -14 229 -14 m 338 97 q 224 128 258 97 q 190 208 190 158 q 400 318 190 318 l 551 318 l 551 201 q 456 127 513 157 q 338 97 399 97 m 225 817 l 550 817 q 580 828 568 817 q 592 858 592 840 q 580 888 592 876 q 550 900 568 900 l 225 900 q 195 888 207 900 q 183 858 183 876 q 195 828 183 840 q 225 817 207 817 "},"ą":{"ha":769,"x_min":53,"x_max":667,"o":"m 521 -282 q 640 -249 593 -282 q 656 -224 656 -237 q 647 -201 656 -210 q 625 -193 639 -193 q 613 -196 621 -193 q 564 -204 585 -204 q 493 -139 493 -204 q 526 -66 493 -103 q 619 -6 560 -29 q 654 19 642 3 q 667 56 667 35 l 667 449 q 635 583 667 521 q 538 683 604 644 q 376 722 472 722 q 136 672 254 722 q 100 619 100 657 q 115 582 100 597 q 151 567 131 567 q 169 569 158 567 q 260 594 219 586 q 354 603 301 603 q 495 563 450 603 q 540 431 540 522 l 540 419 l 372 419 q 134 358 215 419 q 53 194 53 297 q 83 84 53 132 q 166 11 114 36 q 279 -14 218 -14 q 540 92 438 -14 l 540 21 q 392 -165 392 -57 q 430 -250 392 -218 q 521 -282 468 -282 m 326 97 q 213 128 247 97 q 179 208 179 158 q 389 318 179 318 l 540 318 l 540 201 q 444 127 501 157 q 326 97 388 97 "},"å":{"ha":781,"x_min":64,"x_max":678,"o":"m 290 -14 q 551 92 449 -14 l 551 56 q 569 11 551 29 q 614 -7 588 -7 q 659 11 640 -7 q 678 56 678 29 l 678 449 q 647 583 678 521 q 549 683 615 644 q 388 722 483 722 q 147 672 265 722 q 111 619 111 657 q 126 582 111 597 q 163 567 142 567 q 181 569 169 567 q 272 594 231 586 q 365 603 313 603 q 506 563 461 603 q 551 431 551 522 l 551 419 l 383 419 q 145 358 226 419 q 64 194 64 297 q 94 84 64 132 q 177 11 125 36 q 290 -14 229 -14 m 338 97 q 224 128 258 97 q 190 208 190 158 q 400 318 190 318 l 551 318 l 551 201 q 456 127 513 157 q 338 97 399 97 m 388 765 q 480 803 442 765 q 518 896 518 842 q 480 988 518 950 q 388 1026 442 1026 q 295 988 333 1026 q 257 896 257 950 q 295 803 257 842 q 388 765 333 765 m 388 828 q 340 848 360 828 q 319 896 319 868 q 340 944 319 924 q 388 964 360 964 q 435 944 415 964 q 456 896 456 924 q 435 848 456 868 q 388 828 415 828 "},"ǻ":{"ha":781,"x_min":64,"x_max":678,"o":"m 499 1003 q 529 1017 515 1003 l 600 1093 q 618 1132 618 1111 q 604 1164 618 1151 q 571 1176 590 1176 q 526 1143 546 1176 l 476 1058 q 469 1031 469 1044 q 478 1011 469 1019 q 499 1003 486 1003 m 376 765 q 469 803 431 765 q 507 896 507 842 q 469 988 507 950 q 376 1026 431 1026 q 284 988 322 1026 q 246 896 246 950 q 284 803 246 842 q 376 765 322 765 m 376 828 q 328 848 349 828 q 308 896 308 868 q 328 944 308 924 q 376 964 349 964 q 424 944 404 964 q 444 896 444 924 q 424 848 444 868 q 376 828 404 828 m 290 -14 q 551 92 449 -14 l 551 56 q 569 11 551 29 q 614 -7 588 -7 q 659 11 640 -7 q 678 56 678 29 l 678 449 q 647 583 678 521 q 549 683 615 644 q 388 722 483 722 q 147 672 265 722 q 111 619 111 657 q 126 582 111 597 q 163 567 142 567 q 181 569 169 567 q 272 594 231 586 q 365 603 313 603 q 506 563 461 603 q 551 431 551 522 l 551 419 l 383 419 q 145 358 226 419 q 64 194 64 297 q 94 84 64 132 q 177 11 125 36 q 290 -14 229 -14 m 338 97 q 224 128 258 97 q 190 208 190 158 q 400 318 190 318 l 551 318 l 551 201 q 456 127 513 157 q 338 97 399 97 "},"ã":{"ha":781,"x_min":64,"x_max":678,"o":"m 290 -14 q 551 92 449 -14 l 551 56 q 569 11 551 29 q 614 -7 588 -7 q 659 11 640 -7 q 678 56 678 29 l 678 449 q 647 583 678 521 q 549 683 615 644 q 388 722 483 722 q 147 672 265 722 q 111 619 111 657 q 126 582 111 597 q 163 567 142 567 q 181 569 169 567 q 272 594 231 586 q 365 603 313 603 q 506 563 461 603 q 551 431 551 522 l 551 419 l 383 419 q 145 358 226 419 q 64 194 64 297 q 94 84 64 132 q 177 11 125 36 q 290 -14 229 -14 m 338 97 q 224 128 258 97 q 190 208 190 158 q 400 318 190 318 l 551 318 l 551 201 q 456 127 513 157 q 338 97 399 97 m 196 793 q 228 818 219 793 q 282 863 246 863 q 328 854 306 863 q 382 831 350 846 q 443 805 418 814 q 496 796 468 796 q 579 838 546 796 q 613 928 613 879 q 603 949 611 940 q 581 958 594 958 q 546 929 557 958 q 527 901 539 911 q 494 892 515 892 q 447 900 469 892 q 392 924 424 908 q 333 949 357 940 q 281 957 308 957 q 219 936 246 957 q 178 885 193 915 q 164 825 164 854 q 174 802 164 811 q 196 793 183 793 "}}}
